{"glyphs":{"0":{"ha":694,"x_min":45,"x_max":650,"o":"m 650 491 q 584 111 650 225 q 338 -30 503 -30 q 105 94 178 -30 q 45 431 45 195 q 81 723 45 617 q 189 875 115 821 q 357 926 259 926 q 576 834 509 926 q 650 491 650 733 m 483 380 q 445 760 483 645 q 340 852 414 852 q 241 782 271 852 q 210 527 210 707 q 237 181 210 300 q 264 99 250 124 q 355 41 298 41 q 473 191 453 41 q 483 380 483 270 z "},"1":{"ha":694,"x_min":47,"x_max":633,"o":"m 633 2 l 626 -6 q 394 0 531 0 q 113 -6 260 0 l 105 1 l 105 43 l 113 50 q 180 56 148 54 q 255 68 239 61 q 275 93 267 73 q 288 351 288 125 l 288 519 q 285 712 288 595 l 283 763 q 269 797 283 797 q 229 781 263 797 q 70 706 136 739 l 62 711 q 47 797 58 749 l 48 802 q 467 944 235 855 l 481 934 q 473 815 478 894 q 469 655 471 785 l 467 389 q 477 81 467 102 q 497 62 484 66 q 625 50 522 56 l 633 43 l 633 2 z "},"2":{"ha":694,"x_min":37,"x_max":655,"o":"m 655 153 q 653 2 647 73 l 645 -7 q 340 0 458 0 q 45 -7 216 0 l 37 1 l 37 63 l 175 204 q 378 444 330 362 q 417 532 406 492 q 429 616 429 572 q 280 779 429 779 q 149 715 197 779 q 122 614 141 686 l 115 607 l 76 607 l 69 614 l 94 840 q 332 926 180 926 q 543 854 469 926 q 611 682 611 789 q 601 600 611 637 q 515 447 580 524 q 351 277 460 382 q 229 161 311 238 l 231 153 l 351 153 q 450 154 403 153 l 567 157 q 645 161 612 159 l 655 153 z "},"3":{"ha":694,"x_min":35,"x_max":635,"o":"m 635 315 q 515 70 635 170 q 233 -30 395 -30 q 67 7 146 -30 q 35 207 55 125 l 39 216 l 73 227 l 81 223 q 296 52 148 52 q 419 101 372 52 q 465 238 465 151 q 414 371 465 324 q 285 416 366 416 q 204 404 248 416 l 196 412 q 222 515 211 460 l 277 515 q 382 558 338 515 q 426 661 426 602 q 387 753 426 718 q 290 788 348 788 q 164 741 197 788 q 134 676 149 718 l 127 654 l 117 648 l 83 650 l 76 659 l 100 770 q 115 861 110 817 q 336 928 203 928 q 517 872 450 928 q 581 730 581 818 q 430 526 581 604 q 568 474 506 526 q 635 315 635 418 z "},"4":{"ha":694,"x_min":18,"x_max":656,"o":"m 656 3 l 649 -5 q 430 0 551 0 q 204 -5 361 0 l 197 2 l 197 44 l 205 52 l 277 57 q 342 72 332 61 q 357 145 355 87 l 360 234 l 271 234 l 135 233 q 27 231 98 233 l 18 287 q 165 595 45 373 q 357 909 289 824 l 528 943 l 540 932 q 528 505 528 801 l 528 346 l 549 346 q 644 349 581 346 l 652 342 q 652 241 650 275 l 644 233 q 610 234 633 234 l 528 234 q 543 71 528 85 q 595 56 555 59 q 650 50 625 53 l 656 43 l 656 3 m 368 818 q 235 592 278 673 q 117 346 205 536 l 361 346 l 368 818 z "},"5":{"ha":694,"x_min":32,"x_max":629,"o":"m 629 328 q 516 77 629 181 q 231 -30 400 -30 q 75 2 159 -30 q 32 192 71 41 l 36 201 l 68 213 l 78 209 q 296 52 146 52 q 446 145 402 52 q 465 243 465 187 q 416 386 465 334 q 281 439 368 439 q 126 382 204 439 l 100 397 q 109 610 109 528 l 109 704 q 98 915 109 804 l 107 922 q 383 914 271 914 q 589 922 456 914 l 595 911 q 587 814 587 844 q 589 767 587 797 l 583 758 q 382 762 499 762 q 182 757 242 762 l 176 535 q 360 582 275 582 q 557 513 484 582 q 629 328 629 444 z "},"6":{"ha":694,"x_min":54,"x_max":651,"o":"m 651 308 q 513 16 651 113 q 350 -30 448 -30 q 134 71 212 -30 q 54 357 54 172 q 118 654 54 536 q 297 852 186 779 q 551 928 411 928 l 605 884 l 584 861 q 538 865 559 865 q 355 788 433 865 q 293 701 319 753 q 235 458 250 612 q 344 551 326 543 q 445 569 387 569 q 589 504 532 569 q 651 308 651 433 m 488 233 q 448 395 488 338 q 350 448 412 448 q 243 378 269 448 q 231 288 231 345 q 287 77 231 138 q 367 41 319 41 q 488 233 488 41 z "},"7":{"ha":694,"x_min":66,"x_max":683,"o":"m 683 858 q 427 348 526 571 q 286 4 337 146 l 275 -3 q 208 0 245 0 q 130 -3 172 0 l 123 12 l 415 515 q 471 615 451 576 l 535 741 l 530 753 l 359 753 l 237 751 q 163 745 178 750 q 144 724 151 741 q 123 596 137 708 l 116 589 l 74 590 l 66 597 q 71 742 71 673 q 66 916 71 822 l 75 924 q 392 916 237 916 q 675 920 593 916 l 683 913 l 683 858 z "},"8":{"ha":694,"x_min":48,"x_max":647,"o":"m 647 288 q 618 147 647 208 q 442 -12 564 31 q 320 -29 392 -29 q 85 86 167 -29 q 48 222 48 138 q 114 389 48 324 q 210 450 136 410 q 73 666 73 526 q 217 897 73 824 q 359 929 279 929 q 543 871 475 929 q 606 726 606 815 q 477 528 606 604 q 611 429 572 488 q 647 288 647 375 m 491 707 q 451 813 491 773 q 344 854 412 854 q 247 816 283 854 q 214 728 214 781 q 257 635 214 677 q 325 591 280 612 q 372 568 340 583 l 409 552 q 491 707 491 605 m 496 210 q 408 357 496 307 q 286 416 351 389 l 268 423 q 172 238 172 349 q 195 134 172 174 q 345 44 248 44 q 454 91 412 44 q 496 210 496 137 z "},"9":{"ha":694,"x_min":43,"x_max":641,"o":"m 641 541 q 576 243 641 361 q 397 45 509 119 q 144 -30 281 -30 l 90 14 l 106 41 q 157 33 127 33 q 342 112 262 33 q 401 196 374 143 q 460 439 444 279 q 348 345 359 347 q 252 329 303 329 q 104 395 161 329 q 43 590 43 467 q 182 883 43 788 q 345 928 248 928 q 603 759 526 928 q 641 541 641 675 m 464 610 q 427 796 464 736 q 328 857 391 857 q 222 772 250 857 q 207 665 207 726 q 245 503 207 559 q 345 450 282 450 q 452 522 425 450 q 464 610 464 554 z "},"A":{"ha":1080,"x_min":33,"x_max":1047,"o":"m 1047 3 l 1041 -4 q 859 0 890 0 q 627 -4 734 0 l 621 3 l 621 45 l 628 53 l 687 56 q 724 83 724 58 q 705 146 724 97 l 650 290 q 459 291 557 291 q 302 290 406 291 l 272 207 q 238 89 238 113 q 270 58 238 63 q 339 53 288 56 l 346 46 l 346 3 l 339 -4 q 178 0 214 0 q 40 -4 150 0 l 33 2 l 33 46 l 41 53 q 126 81 111 57 q 246 363 142 104 l 423 806 q 483 962 443 858 l 579 962 l 939 116 q 977 62 960 68 q 1041 54 999 54 l 1047 46 l 1047 3 m 617 368 l 472 723 l 333 368 q 477 366 389 366 q 617 368 564 366 m 531 996 m 509 -53 z "},"B":{"ha":918,"x_min":43,"x_max":839,"o":"m 839 306 q 674 42 839 136 q 465 -4 593 -4 q 397 -3 424 -4 l 235 0 q 101 -4 149 0 l 94 3 l 94 22 l 98 30 q 152 70 148 62 q 159 160 158 82 l 161 312 l 161 656 q 153 866 161 817 q 130 891 149 886 q 50 898 119 894 l 43 905 l 43 951 l 50 957 q 258 953 111 953 q 427 956 351 953 q 528 959 486 959 q 776 873 717 959 q 807 768 807 827 q 732 608 807 672 q 657 562 696 577 q 559 533 612 545 q 839 306 839 521 m 602 735 q 446 885 602 885 q 359 880 395 885 q 356 748 356 808 l 356 561 q 418 559 372 559 q 580 638 541 559 q 602 735 602 684 m 631 285 q 418 488 631 488 q 356 486 391 488 l 356 172 q 359 73 356 121 q 437 68 387 68 q 583 127 532 68 q 631 285 631 184 z "},"C":{"ha":1003,"x_min":64,"x_max":960,"o":"m 960 119 l 928 50 q 608 -29 785 -29 q 124 226 254 -29 q 64 481 64 344 q 212 836 64 704 q 625 972 363 972 q 949 912 791 972 l 958 902 q 930 683 935 808 l 924 676 l 884 676 l 877 684 q 869 798 875 766 q 625 893 785 893 q 366 789 460 893 q 273 505 273 684 q 439 134 273 263 q 677 64 528 64 q 943 134 813 64 l 960 119 z "},"D":{"ha":1154,"x_min":43,"x_max":1090,"o":"m 1090 533 q 941 152 1090 303 q 763 37 867 78 q 502 -4 651 -7 l 262 0 q 101 -4 165 1 l 94 3 l 94 22 l 98 30 q 152 70 148 62 q 159 160 158 82 l 161 312 l 161 656 q 153 866 161 817 q 130 891 149 886 q 50 898 119 894 l 43 905 l 43 951 l 50 957 q 187 953 122 953 q 472 957 345 953 q 599 959 535 959 q 869 919 775 959 q 1031 781 972 875 q 1090 533 1090 684 m 882 500 q 791 789 882 688 q 673 864 744 842 q 484 884 605 884 q 363 876 420 884 q 356 508 356 800 l 357 212 q 363 80 358 113 q 485 71 422 71 q 698 110 620 71 q 831 255 782 153 q 882 500 882 361 z "},"E":{"ha":842,"x_min":43,"x_max":790,"o":"m 790 227 q 775 3 775 127 l 768 -4 l 275 0 q 101 -4 152 0 l 94 3 l 94 22 l 98 30 q 152 70 148 62 q 159 160 158 83 l 161 312 l 161 656 q 153 866 161 817 q 130 891 149 886 q 50 898 119 894 l 43 905 l 43 951 l 50 957 q 262 953 119 953 q 747 957 389 953 l 754 951 l 745 876 q 739 815 741 840 l 734 752 l 728 745 l 688 745 l 682 751 q 671 857 681 844 q 598 871 663 866 q 483 877 532 877 q 363 872 424 877 q 356 675 356 801 l 356 534 q 443 531 410 531 l 532 532 q 602 542 594 532 q 616 633 613 554 l 623 640 l 665 640 l 672 633 q 669 494 669 557 q 672 345 669 426 l 665 338 l 620 338 l 613 345 q 602 438 613 423 q 536 457 591 452 q 448 460 495 460 q 356 457 399 460 l 356 250 q 359 78 356 161 l 452 78 q 694 94 650 78 q 705 101 702 96 q 718 142 712 111 l 734 226 l 741 233 l 783 233 l 790 227 m 446 -53 m 446 996 z "},"F":{"ha":774,"x_min":43,"x_max":723,"o":"m 723 951 l 714 874 q 708 806 711 848 l 704 752 l 697 745 l 658 745 l 651 751 q 640 856 650 843 q 451 877 625 877 q 363 873 423 877 q 356 625 356 804 l 356 533 l 433 531 q 561 534 467 530 q 585 544 579 534 q 597 633 595 560 l 604 640 l 646 640 l 653 633 q 650 494 650 557 q 653 345 650 426 l 646 338 l 601 338 l 594 345 q 588 429 594 416 q 518 457 576 452 q 439 460 478 460 q 356 458 393 460 l 356 297 q 365 87 356 136 q 388 62 368 67 q 485 55 393 60 l 492 48 l 492 3 l 484 -4 l 212 0 q 50 -4 153 1 l 43 2 l 43 48 l 50 55 q 130 62 119 59 q 153 87 149 67 q 161 297 161 136 l 161 656 q 153 866 161 817 q 130 891 149 886 q 50 898 119 894 l 43 905 l 43 951 l 50 957 q 259 953 115 953 q 716 957 352 953 l 723 951 z "},"G":{"ha":1157,"x_min":79,"x_max":1090,"o":"m 1090 342 l 1084 335 q 1035 307 1042 325 q 1028 170 1028 289 q 1034 56 1028 112 q 623 -30 807 -30 q 230 106 380 -30 q 79 477 79 242 q 345 913 79 783 q 653 972 466 972 q 873 949 762 972 q 1017 904 964 929 l 1023 892 q 994 684 1006 832 l 987 677 l 946 677 l 939 684 q 937 738 939 697 q 930 794 934 778 q 828 863 900 835 q 661 893 751 893 q 330 699 421 893 q 288 492 288 610 q 388 179 288 303 q 660 50 492 50 q 831 88 749 50 q 836 218 836 136 q 831 300 836 286 q 806 315 827 311 q 691 326 787 319 l 684 332 l 684 375 l 691 382 q 897 380 789 379 q 1084 382 960 380 l 1090 375 l 1090 342 z "},"H":{"ha":1157,"x_min":43,"x_max":1114,"o":"m 1114 3 l 1107 -4 q 898 0 1040 0 q 689 -4 753 0 l 682 2 l 682 48 l 690 55 q 769 62 759 59 q 792 87 789 67 q 801 297 801 136 l 801 460 q 581 464 766 464 q 356 460 410 464 l 356 297 q 365 87 356 136 q 388 62 368 67 q 467 55 398 59 l 474 48 l 474 3 l 468 -4 q 259 0 400 0 q 50 -4 113 0 l 43 2 l 43 48 l 50 55 q 130 62 119 59 q 153 87 149 67 q 161 297 161 136 l 161 656 q 153 866 161 817 q 130 891 149 886 q 50 898 119 894 l 43 905 l 43 951 l 50 957 q 259 953 115 953 q 468 957 406 953 l 474 951 l 474 904 l 467 898 q 388 891 398 894 q 365 866 368 886 q 356 656 356 817 l 356 544 q 554 541 428 541 q 801 544 752 541 l 801 656 q 792 866 801 817 q 769 891 789 886 q 690 898 759 894 l 682 905 l 682 951 l 689 957 q 898 953 755 953 q 1107 957 1046 953 l 1114 951 l 1114 904 l 1107 898 q 1027 891 1037 894 q 1004 866 1008 886 q 996 656 996 817 l 996 297 q 1004 87 996 136 q 1027 62 1008 67 q 1107 55 1038 59 l 1114 48 l 1114 3 z "},"I":{"ha":541,"x_min":55,"x_max":486,"o":"m 486 3 l 479 -4 q 270 0 412 0 q 61 -4 129 0 l 55 3 l 55 48 l 62 55 q 141 62 131 59 q 164 87 161 67 q 173 297 173 136 l 173 656 q 164 866 173 817 q 141 891 161 886 q 62 898 131 894 l 55 905 l 55 951 l 62 957 q 271 953 127 953 q 479 957 414 953 l 486 951 l 486 905 l 479 898 q 399 891 410 894 q 376 866 380 886 q 368 656 368 817 l 368 297 q 376 87 368 136 q 399 62 380 67 q 479 55 410 59 l 486 48 l 486 3 m 270 996 m 270 -53 z "},"J":{"ha":541,"x_min":0,"x_max":503,"o":"m 503 904 l 496 898 q 416 891 427 894 q 393 866 397 886 q 385 656 385 817 l 385 151 q 355 -61 385 15 q 236 -223 322 -148 q 56 -306 142 -306 q 0 -296 27 -306 q 3 -170 3 -245 l 19 -161 q 116 -210 74 -210 q 181 -149 174 -210 q 190 92 190 -68 l 190 656 q 181 866 190 817 q 158 891 178 886 q 63 898 153 892 l 56 905 l 56 951 l 63 957 q 287 953 157 953 q 496 957 435 953 l 503 951 l 503 904 z "},"K":{"ha":1069,"x_min":43,"x_max":1050,"o":"m 1050 3 l 1043 -4 q 889 0 932 0 q 769 -4 851 0 q 699 92 753 30 l 498 321 q 356 458 432 396 l 356 297 q 365 87 356 136 q 388 62 368 67 q 467 55 398 59 l 474 48 l 474 3 l 468 -4 q 259 0 400 0 q 50 -4 113 0 l 43 2 l 43 48 l 50 55 q 130 62 119 59 q 153 87 149 67 q 161 297 161 136 l 161 656 q 153 866 161 817 q 130 891 149 886 q 50 898 119 894 l 43 905 l 43 951 l 50 957 q 259 953 115 953 q 468 957 406 953 l 474 951 l 474 904 l 467 898 q 388 891 398 894 q 365 866 368 886 q 356 656 356 817 l 356 488 q 538 663 483 606 l 634 762 q 761 903 684 814 l 761 950 l 768 957 q 871 953 821 953 q 1009 957 930 953 l 1016 950 l 1016 908 l 1009 901 q 892 876 930 901 q 684 694 838 840 l 547 564 q 642 448 576 525 l 794 272 q 989 64 963 76 q 1043 56 1006 56 l 1050 48 l 1050 3 z "},"L":{"ha":842,"x_min":43,"x_max":790,"o":"m 790 227 q 775 3 775 127 l 768 -4 l 275 0 q 101 -4 152 0 l 94 3 l 94 22 l 98 30 q 152 70 148 62 q 159 160 158 82 l 161 312 l 161 656 q 153 866 161 817 q 130 891 149 886 q 50 898 119 894 l 43 905 l 43 951 l 50 957 q 255 953 120 953 q 467 957 395 953 l 474 951 l 474 904 l 467 898 q 388 891 398 894 q 365 866 368 886 q 356 656 356 817 l 356 250 q 359 78 356 161 l 452 78 q 694 94 650 78 q 705 101 702 96 q 718 142 712 111 l 734 226 l 741 233 l 783 233 l 790 227 z "},"M":{"ha":1389,"x_min":53,"x_max":1340,"o":"m 1340 3 l 1333 -4 q 1124 0 1266 0 q 916 -4 979 0 l 909 2 l 909 48 l 916 55 q 996 62 985 59 q 1019 87 1015 67 q 1027 297 1027 136 l 1027 755 l 876 446 q 788 256 863 420 l 664 -16 l 618 -16 q 523 197 583 68 l 428 398 l 250 768 l 250 297 q 259 87 250 136 q 282 62 262 67 q 361 55 292 59 l 368 48 l 368 2 l 361 -4 q 216 0 283 0 q 60 -4 138 0 l 53 2 l 53 48 l 60 55 q 139 62 129 59 q 162 87 159 67 q 171 297 171 136 l 171 656 q 162 866 171 817 q 139 891 159 886 q 60 898 129 894 l 53 905 l 53 951 l 60 957 q 238 953 130 953 q 382 957 321 953 q 446 812 405 905 l 490 718 l 705 267 l 809 477 l 971 824 q 1027 957 1000 886 q 1130 953 1103 953 q 1333 957 1263 953 l 1340 951 l 1340 904 l 1333 898 q 1254 891 1264 894 q 1231 866 1234 886 q 1222 656 1222 817 l 1222 297 q 1231 87 1222 136 q 1254 62 1234 67 q 1333 55 1264 59 l 1340 48 l 1340 3 z "},"N":{"ha":1157,"x_min":60,"x_max":1112,"o":"m 1112 905 l 1105 898 q 1025 891 1036 894 q 1002 866 1006 886 q 994 656 994 817 l 994 380 q 1002 -16 994 76 l 994 -22 q 878 -4 917 -9 q 257 741 696 200 l 257 297 q 266 87 257 136 q 289 62 269 67 q 368 55 299 59 l 375 48 l 375 2 l 368 -4 q 223 0 290 0 q 66 -4 145 0 l 60 2 l 60 48 l 66 55 q 146 62 136 59 q 169 87 165 67 q 178 297 178 136 l 178 656 q 169 866 178 817 q 146 891 165 886 q 66 898 136 894 l 60 905 l 60 951 l 66 957 q 189 953 131 953 q 341 957 281 953 q 915 259 585 631 l 915 656 q 906 866 915 817 q 883 891 903 886 q 804 898 873 894 l 797 905 l 797 951 l 804 957 q 948 953 880 953 q 1105 957 1036 953 l 1112 951 l 1112 905 z "},"O":{"ha":1157,"x_min":64,"x_max":1093,"o":"m 1093 501 q 947 109 1093 251 q 560 -30 806 -30 q 196 101 328 -30 q 64 464 64 231 q 313 916 64 790 q 591 972 426 972 q 960 848 828 972 q 1093 501 1093 722 m 884 466 q 805 778 884 663 q 574 894 726 894 q 307 713 372 894 q 273 505 273 620 q 350 174 273 295 q 589 48 430 48 q 849 239 783 48 q 884 466 884 340 m 574 -53 m 574 996 z "},"P":{"ha":848,"x_min":43,"x_max":812,"o":"m 812 745 q 717 527 812 605 q 502 448 622 448 q 420 458 461 448 q 396 507 414 476 l 410 522 q 463 512 439 512 q 572 561 531 512 q 614 696 614 609 q 444 886 614 886 q 362 878 423 886 q 356 656 356 861 l 356 297 q 365 87 356 136 q 388 62 368 67 q 481 55 394 60 l 488 47 l 488 3 l 481 -4 q 259 0 389 0 q 50 -4 113 0 l 43 2 l 43 47 l 51 55 q 130 62 119 59 q 153 87 149 67 q 161 297 161 136 l 161 656 q 153 866 161 817 q 130 891 149 886 q 50 898 119 894 l 43 905 l 43 950 l 51 957 q 255 953 117 953 q 419 955 312 953 q 543 957 526 957 q 784 863 728 957 q 812 745 812 814 z "},"Q":{"ha":1157,"x_min":64,"x_max":1093,"o":"m 1093 501 q 1031 223 1093 343 q 848 35 968 100 q 561 -30 728 -30 q 518 -28 540 -30 q 727 -92 578 -39 l 833 -129 q 968 -159 918 -159 q 1074 -127 1003 -159 l 1081 -134 l 1081 -170 l 1076 -180 q 937 -269 951 -254 q 679 -210 873 -269 q 427 -150 483 -150 q 299 -209 394 -150 l 289 -205 l 278 -174 l 281 -164 q 346 -116 294 -151 q 496 -26 439 -52 q 184 113 300 -13 q 64 464 64 245 q 203 837 64 701 q 591 972 342 972 q 1027 766 897 972 q 1093 501 1093 661 m 884 466 q 805 778 884 663 q 574 894 726 894 q 307 713 372 894 q 273 505 273 620 q 350 174 273 295 q 589 48 430 48 q 849 239 783 48 q 884 466 884 340 z "},"R":{"ha":991,"x_min":43,"x_max":972,"o":"m 972 3 l 965 -4 q 939 -3 960 -4 q 823 0 846 0 q 713 -4 789 0 q 688 50 711 12 l 519 331 l 444 446 q 404 487 430 467 l 412 510 q 435 509 427 509 q 539 530 501 509 q 603 597 574 549 q 632 710 632 644 q 547 865 632 825 q 428 884 506 884 q 363 878 394 884 q 356 652 356 812 l 356 297 q 365 87 356 136 q 388 62 368 67 q 467 55 398 59 l 474 48 l 474 3 l 468 -4 q 259 0 400 0 q 50 -4 113 0 l 43 2 l 43 48 l 50 55 q 130 62 119 59 q 153 87 149 67 q 161 297 161 136 l 161 656 q 153 866 161 817 q 130 891 149 886 q 50 898 119 894 l 43 905 l 43 951 l 50 957 q 259 953 117 953 q 393 955 342 953 q 547 959 496 959 q 719 938 664 959 q 818 842 793 909 q 830 763 830 808 q 623 501 830 578 q 694 386 656 444 l 799 225 q 922 63 891 83 q 965 53 937 53 l 972 46 l 972 3 z "},"S":{"ha":848,"x_min":81,"x_max":776,"o":"m 776 313 q 712 116 776 201 q 566 4 656 41 q 369 -30 484 -30 q 90 35 227 -30 l 81 50 q 100 272 100 128 l 107 279 l 151 279 l 157 272 l 157 256 q 165 156 157 218 q 252 81 189 113 q 389 49 318 49 q 575 142 524 49 q 602 242 602 191 q 529 366 602 329 q 413 397 493 385 q 175 467 232 425 q 89 664 89 530 q 182 886 89 803 q 458 972 281 972 q 714 922 616 972 l 719 905 q 699 711 703 825 l 692 705 l 649 705 l 642 711 q 635 817 640 793 q 562 871 614 849 q 446 895 507 895 q 302 846 355 895 q 253 729 253 801 q 309 614 253 651 q 482 569 346 591 q 562 555 496 567 q 635 536 602 549 q 739 457 704 510 q 776 313 776 399 z "},"T":{"ha":926,"x_min":28,"x_max":899,"o":"m 899 953 q 890 849 890 903 l 888 736 l 882 729 l 839 729 l 831 735 q 824 837 828 822 q 781 869 816 864 q 653 871 767 871 l 562 871 q 561 682 561 847 l 561 297 q 570 87 561 136 q 593 62 573 67 q 672 55 603 59 l 679 48 l 679 3 l 672 -4 q 463 0 605 0 q 254 -4 318 0 l 248 2 l 248 48 l 255 55 q 334 62 324 59 q 357 87 354 67 q 366 297 366 136 l 366 682 q 364 871 366 850 l 267 871 q 125 863 146 871 q 111 853 115 859 q 100 810 104 842 q 94 736 96 774 l 87 729 l 45 729 l 37 736 l 36 852 q 28 953 35 901 l 34 960 q 326 953 74 953 l 600 953 q 892 960 832 953 l 899 953 z "},"U":{"ha":1080,"x_min":37,"x_max":1044,"o":"m 1044 905 l 1038 898 q 947 855 958 898 q 939 752 942 831 q 937 582 937 693 l 937 373 q 858 85 937 172 q 558 -28 753 -28 q 281 31 380 -28 q 171 173 197 81 q 155 481 155 232 l 155 656 q 146 866 155 817 q 123 891 142 886 q 43 898 113 894 l 37 905 l 37 950 l 43 957 q 252 953 109 953 q 460 957 399 953 l 467 950 l 467 905 l 460 898 q 381 891 391 894 q 358 866 361 886 q 349 656 349 817 l 349 516 q 372 202 349 260 q 600 88 418 88 q 785 146 718 88 q 828 203 816 174 q 847 291 840 231 q 853 404 853 347 l 853 545 q 852 787 853 722 q 844 867 850 848 q 820 888 838 880 q 736 898 804 894 l 730 905 l 730 950 l 736 957 q 858 953 795 953 q 1038 957 905 953 l 1044 950 l 1044 905 m 558 996 m 558 -53 z "},"V":{"ha":1080,"x_min":34,"x_max":1058,"o":"m 1058 904 l 1051 897 q 990 886 1004 892 q 962 855 977 880 q 904 728 946 829 l 856 613 l 765 392 q 607 -9 648 107 l 504 -9 l 193 746 q 123 882 143 864 q 41 897 109 896 l 34 905 l 34 949 l 41 957 q 221 953 113 953 q 468 957 357 953 l 475 949 l 475 904 l 469 897 q 378 885 400 897 q 367 862 367 878 q 411 733 367 844 l 443 652 l 614 229 l 765 606 q 806 715 774 628 q 852 863 852 842 q 837 890 852 885 q 746 897 822 895 l 739 904 l 739 950 l 747 957 q 906 953 823 953 q 1050 957 965 953 l 1058 949 l 1058 904 z "},"W":{"ha":1389,"x_min":31,"x_max":1381,"o":"m 1381 906 l 1374 900 q 1337 898 1342 899 q 1304 883 1315 894 q 1285 848 1293 871 q 1225 648 1269 804 q 1162 412 1202 569 l 1101 177 q 1058 -9 1063 32 l 954 -9 l 920 85 q 761 500 833 317 l 722 597 q 696 667 709 630 l 519 248 q 445 66 492 185 l 415 -9 l 316 -9 l 149 769 q 130 847 136 829 q 91 895 116 890 q 38 901 79 898 l 31 907 l 31 949 l 39 957 q 220 953 159 953 q 435 957 294 953 l 442 950 l 442 907 l 435 901 q 383 898 389 899 q 349 887 357 895 q 341 863 341 880 q 354 778 341 847 l 377 654 q 413 481 387 600 l 453 297 l 538 503 q 616 686 564 564 l 696 880 q 731 969 718 934 l 793 969 q 1051 306 863 774 l 1171 787 q 1185 859 1185 844 q 1153 894 1185 889 q 1080 900 1141 896 l 1074 907 l 1074 949 l 1081 957 q 1217 953 1198 952 l 1374 957 l 1381 950 l 1381 906 z "},"X":{"ha":926,"x_min":26,"x_max":901,"o":"m 901 5 l 895 -2 l 756 0 q 637 -2 722 1 q 571 109 617 23 l 430 370 l 376 293 q 188 -2 275 147 q 125 0 157 0 q 33 -2 62 0 l 26 5 l 26 48 l 33 56 q 100 67 89 60 q 193 178 121 80 l 281 298 q 390 444 287 304 l 338 535 l 256 678 q 121 858 168 830 q 89 867 106 867 q 47 865 75 867 l 38 872 l 33 908 l 39 918 q 285 972 134 938 q 373 872 328 945 q 441 751 395 837 l 517 609 l 606 738 q 747 956 715 898 q 802 953 775 953 q 895 956 848 953 l 901 949 l 901 904 l 895 897 q 832 887 848 897 q 773 823 817 878 q 657 670 729 768 q 559 535 617 616 q 656 359 593 473 l 743 210 q 834 71 815 87 q 895 55 852 55 l 901 48 l 901 5 z "},"Y":{"ha":926,"x_min":22,"x_max":915,"o":"m 915 925 q 680 568 808 779 q 601 415 608 448 q 597 364 597 397 l 597 297 q 609 76 597 98 q 625 64 614 66 q 708 55 642 59 l 715 48 l 715 3 l 708 -4 q 499 0 641 0 q 290 -4 354 0 l 284 2 l 284 48 l 291 55 q 374 64 357 59 q 390 76 385 66 q 402 297 402 98 l 402 377 q 296 583 402 403 q 123 833 187 767 q 81 869 92 865 q 30 873 70 873 l 22 881 l 22 919 l 29 926 q 241 972 195 959 q 304 928 277 956 q 459 677 362 872 l 548 500 q 701 759 588 564 l 776 894 q 809 956 788 916 l 908 956 l 915 949 l 915 925 m 499 -53 m 499 996 z "},"Z":{"ha":926,"x_min":35,"x_max":869,"o":"m 869 235 q 847 2 854 112 l 840 -4 q 417 1 562 1 q 42 -4 311 1 l 35 2 l 35 50 q 189 259 85 113 l 288 400 l 414 587 q 603 872 477 679 l 433 871 q 205 862 235 871 q 181 835 188 857 q 170 772 178 826 l 164 738 l 157 731 l 115 731 l 109 739 q 113 869 113 811 q 112 950 113 887 l 119 957 q 530 953 211 953 q 857 957 605 953 l 864 950 l 864 909 l 808 831 q 658 618 721 711 l 457 324 q 299 81 423 275 q 408 80 335 80 q 774 99 752 80 q 806 203 787 109 q 813 236 810 223 l 821 243 l 861 243 l 869 235 z "},"Á":{"ha":1080,"x_min":33,"x_max":1047,"o":"m 1047 3 l 1041 -4 q 859 0 890 0 q 627 -4 734 0 l 621 3 l 621 45 l 628 53 l 687 56 q 724 83 724 58 q 705 146 724 97 l 650 290 q 459 291 557 291 q 302 290 406 291 l 272 207 q 238 89 238 113 q 270 58 238 63 q 339 53 288 56 l 346 46 l 346 3 l 339 -4 q 178 0 214 0 q 40 -4 150 0 l 33 2 l 33 46 l 41 53 q 126 81 111 57 q 246 363 142 104 l 423 806 q 483 962 443 858 l 579 962 l 939 116 q 977 62 960 68 q 1041 54 999 54 l 1047 46 l 1047 3 m 617 368 l 472 723 l 333 368 q 477 366 389 366 q 617 368 564 366 m 531 996 m 509 -53 m 756 1272 l 450 1050 l 419 1074 l 419 1084 l 568 1271 l 741 1292 l 756 1272 z "},"À":{"ha":1080,"x_min":33,"x_max":1047,"o":"m 1047 3 l 1041 -4 q 859 0 890 0 q 627 -4 734 0 l 621 3 l 621 45 l 628 53 l 687 56 q 724 83 724 58 q 705 146 724 97 l 650 290 q 459 291 557 291 q 302 290 406 291 l 272 207 q 238 89 238 113 q 270 58 238 63 q 339 53 288 56 l 346 46 l 346 3 l 339 -4 q 178 0 214 0 q 40 -4 150 0 l 33 2 l 33 46 l 41 53 q 126 81 111 57 q 246 363 142 104 l 423 806 q 483 962 443 858 l 579 962 l 939 116 q 977 62 960 68 q 1041 54 999 54 l 1047 46 l 1047 3 m 617 368 l 472 723 l 333 368 q 477 366 389 366 q 617 368 564 366 m 531 996 m 509 -53 m 643 1074 l 612 1050 l 306 1272 l 321 1292 l 494 1271 l 643 1084 l 643 1074 z "},"Â":{"ha":1080,"x_min":33,"x_max":1047,"o":"m 1047 3 l 1041 -4 q 859 0 890 0 q 627 -4 734 0 l 621 3 l 621 45 l 628 53 l 687 56 q 724 83 724 58 q 705 146 724 97 l 650 290 q 459 291 557 291 q 302 290 406 291 l 272 207 q 238 89 238 113 q 270 58 238 63 q 339 53 288 56 l 346 46 l 346 3 l 339 -4 q 178 0 214 0 q 40 -4 150 0 l 33 2 l 33 46 l 41 53 q 126 81 111 57 q 246 363 142 104 l 423 806 q 483 962 443 858 l 579 962 l 939 116 q 977 62 960 68 q 1041 54 999 54 l 1047 46 l 1047 3 m 617 368 l 472 723 l 333 368 q 477 366 389 366 q 617 368 564 366 m 531 996 m 509 -53 m 764 1050 l 762 1044 l 709 1044 l 531 1190 l 353 1044 l 300 1044 l 298 1050 l 465 1292 l 597 1292 l 764 1050 m 784 1126 m 531 1264 z "},"Ä":{"ha":1080,"x_min":33,"x_max":1047,"o":"m 1047 3 l 1041 -4 q 859 0 890 0 q 627 -4 734 0 l 621 3 l 621 45 l 628 53 l 687 56 q 724 83 724 58 q 705 146 724 97 l 650 290 q 459 291 557 291 q 302 290 406 291 l 272 207 q 238 89 238 113 q 270 58 238 63 q 339 53 288 56 l 346 46 l 346 3 l 339 -4 q 178 0 214 0 q 40 -4 150 0 l 33 2 l 33 46 l 41 53 q 126 81 111 57 q 246 363 142 104 l 423 806 q 483 962 443 858 l 579 962 l 939 116 q 977 62 960 68 q 1041 54 999 54 l 1047 46 l 1047 3 m 617 368 l 472 723 l 333 368 q 477 366 389 366 q 617 368 564 366 m 531 996 m 509 -53 m 779 1168 q 750 1098 779 1126 q 680 1069 722 1069 q 611 1098 640 1069 q 582 1168 582 1126 q 611 1239 582 1209 q 680 1268 640 1268 q 750 1239 720 1268 q 779 1168 779 1211 m 481 1168 q 452 1098 481 1127 q 382 1069 422 1069 q 313 1098 341 1069 q 284 1168 284 1126 q 313 1239 284 1211 q 382 1268 342 1268 q 452 1239 422 1268 q 481 1168 481 1209 z "},"Ã":{"ha":1080,"x_min":33,"x_max":1047,"o":"m 1047 3 l 1041 -4 q 859 0 890 0 q 627 -4 734 0 l 621 3 l 621 45 l 628 53 l 687 56 q 724 83 724 58 q 705 146 724 97 l 650 290 q 459 291 557 291 q 302 290 406 291 l 272 207 q 238 89 238 113 q 270 58 238 63 q 339 53 288 56 l 346 46 l 346 3 l 339 -4 q 178 0 214 0 q 40 -4 150 0 l 33 2 l 33 46 l 41 53 q 126 81 111 57 q 246 363 142 104 l 423 806 q 483 962 443 858 l 579 962 l 939 116 q 977 62 960 68 q 1041 54 999 54 l 1047 46 l 1047 3 m 617 368 l 472 723 l 333 368 q 477 366 389 366 q 617 368 564 366 m 531 996 m 509 -53 m 793 1261 q 734 1134 779 1185 q 635 1081 690 1081 q 546 1105 597 1081 q 492 1129 528 1114 q 446 1151 479 1136 q 394 1163 419 1163 q 317 1086 340 1163 l 274 1086 l 269 1093 q 328 1221 283 1169 q 427 1273 372 1273 q 516 1249 465 1273 q 570 1225 534 1240 q 616 1203 583 1218 q 668 1191 643 1191 q 745 1268 722 1191 l 788 1268 l 793 1261 z "},"Ă":{"ha":1080,"x_min":33,"x_max":1047,"o":"m 1047 3 l 1041 -4 q 859 0 890 0 q 627 -4 734 0 l 621 3 l 621 45 l 628 53 l 687 56 q 724 83 724 58 q 705 146 724 97 l 650 290 q 459 291 557 291 q 302 290 406 291 l 272 207 q 238 89 238 113 q 270 58 238 63 q 339 53 288 56 l 346 46 l 346 3 l 339 -4 q 178 0 214 0 q 40 -4 150 0 l 33 2 l 33 46 l 41 53 q 126 81 111 57 q 246 363 142 104 l 423 806 q 483 962 443 858 l 579 962 l 939 116 q 977 62 960 68 q 1041 54 999 54 l 1047 46 l 1047 3 m 617 368 l 472 723 l 333 368 q 477 366 389 366 q 617 368 564 366 m 531 996 m 509 -53 m 733 1286 q 532 1060 728 1060 q 330 1286 334 1060 l 336 1293 l 377 1293 q 532 1179 391 1179 q 686 1293 673 1179 l 727 1293 l 733 1286 m 534 1293 z "},"Å":{"ha":1080,"x_min":33,"x_max":1047,"o":"m 1047 3 l 1041 -4 q 859 0 890 0 q 627 -4 734 0 l 621 3 l 621 45 l 628 53 l 687 56 q 724 83 724 58 q 705 146 724 97 l 650 290 q 459 291 557 291 q 302 290 406 291 l 272 207 q 238 89 238 113 q 270 58 238 63 q 339 53 288 56 l 346 46 l 346 3 l 339 -4 q 178 0 214 0 q 40 -4 150 0 l 33 2 l 33 46 l 41 53 q 126 81 111 57 q 246 363 142 104 l 423 806 q 483 962 443 858 l 579 962 l 939 116 q 977 62 960 68 q 1041 54 999 54 l 1047 46 l 1047 3 m 617 368 l 472 723 l 333 368 q 477 366 389 366 q 617 368 564 366 m 531 996 m 509 -53 m 682 1173 q 638 1074 682 1112 q 531 1035 595 1035 q 424 1074 467 1035 q 380 1173 380 1112 q 424 1271 380 1232 q 531 1309 468 1309 q 638 1270 595 1309 q 682 1173 682 1232 m 608 1173 q 590 1235 608 1209 q 531 1265 569 1265 q 473 1235 493 1265 q 455 1173 455 1209 q 473 1110 455 1136 q 531 1080 493 1080 q 590 1110 569 1080 q 608 1173 608 1136 z "},"Ǻ":{"ha":1080,"x_min":33,"x_max":1047,"o":"m 1047 3 l 1041 -4 q 859 0 890 0 q 627 -4 734 0 l 621 3 l 621 45 l 628 53 l 687 56 q 724 83 724 58 q 705 146 724 97 l 650 290 q 459 291 557 291 q 302 290 406 291 l 272 207 q 238 89 238 113 q 270 58 238 63 q 339 53 288 56 l 346 46 l 346 3 l 339 -4 q 178 0 214 0 q 40 -4 150 0 l 33 2 l 33 46 l 41 53 q 126 81 111 57 q 246 363 142 104 l 423 806 q 483 962 443 858 l 579 962 l 939 116 q 977 62 960 68 q 1041 54 999 54 l 1047 46 l 1047 3 m 617 368 l 472 723 l 333 368 q 477 366 389 366 q 617 368 564 366 m 531 996 m 509 -53 m 667 1085 q 628 996 667 1029 q 531 962 590 962 q 435 995 472 962 q 395 1085 395 1029 q 435 1175 395 1141 q 531 1208 472 1208 q 627 1175 590 1208 q 667 1085 667 1141 m 600 1085 q 582 1144 600 1120 q 531 1168 564 1168 q 480 1144 498 1168 q 462 1085 462 1120 q 479 1027 462 1050 q 531 1002 498 1002 q 583 1027 564 1002 q 600 1085 600 1050 m 743 1438 l 437 1217 l 406 1240 l 406 1250 l 554 1437 l 728 1458 l 743 1438 z "},"Ā":{"ha":1080,"x_min":33,"x_max":1047,"o":"m 1047 3 l 1041 -4 q 859 0 890 0 q 627 -4 734 0 l 621 3 l 621 45 l 628 53 l 687 56 q 724 83 724 58 q 705 146 724 97 l 650 290 q 459 291 557 291 q 302 290 406 291 l 272 207 q 238 89 238 113 q 270 58 238 63 q 339 53 288 56 l 346 46 l 346 3 l 339 -4 q 178 0 214 0 q 40 -4 150 0 l 33 2 l 33 46 l 41 53 q 126 81 111 57 q 246 363 142 104 l 423 806 q 483 962 443 858 l 579 962 l 939 116 q 977 62 960 68 q 1041 54 999 54 l 1047 46 l 1047 3 m 617 368 l 472 723 l 333 368 q 477 366 389 366 q 617 368 564 366 m 531 996 m 509 -53 m 770 1111 l 291 1111 l 291 1223 l 770 1223 l 770 1111 z "},"Ą":{"ha":1080,"x_min":33,"x_max":1047,"o":"m 1047 3 l 1041 -4 l 909 -1 q 829 -165 829 -73 q 922 -269 829 -269 q 1010 -250 963 -269 l 1018 -255 l 1023 -279 l 1020 -288 q 963 -315 996 -304 q 876 -328 920 -328 q 720 -186 720 -328 q 854 0 720 -73 q 627 -4 734 0 l 621 3 l 621 45 l 628 53 l 687 56 q 724 83 724 58 q 705 146 724 97 l 650 290 q 459 291 557 291 q 302 290 406 291 l 272 207 q 238 89 238 113 q 270 58 238 63 q 339 53 288 56 l 346 46 l 346 3 l 339 -4 q 178 0 214 0 q 40 -4 150 0 l 33 2 l 33 46 l 41 53 q 126 81 111 57 q 246 363 142 104 l 423 806 q 483 962 443 858 l 579 962 l 939 116 q 977 62 959 68 q 1041 54 999 54 l 1047 46 l 1047 3 m 617 368 l 472 723 l 333 368 q 477 366 389 366 q 617 368 564 366 z "},"Æ":{"ha":1389,"x_min":5,"x_max":1309,"o":"m 1309 227 q 1294 3 1294 127 l 1287 -4 l 799 0 q 619 -4 665 0 l 612 3 l 612 22 l 616 30 q 662 54 640 42 q 677 110 674 65 q 680 297 678 130 l 318 297 l 297 262 q 216 106 233 155 q 210 80 210 87 q 254 53 210 55 q 313 50 275 52 l 320 43 l 320 3 l 313 -3 q 106 0 273 0 q 12 -3 49 0 l 5 3 l 5 43 l 13 50 q 89 75 73 56 q 146 163 103 92 l 422 625 q 557 873 557 850 q 524 890 557 888 l 429 898 l 422 905 l 422 950 l 429 957 l 779 953 q 1265 957 908 953 l 1272 950 l 1264 876 q 1258 815 1262 857 l 1253 752 l 1246 745 l 1207 745 l 1200 751 q 1190 857 1200 844 q 1117 871 1182 866 q 1002 877 1051 877 q 882 872 943 877 q 875 675 875 801 l 875 534 q 962 531 928 531 l 1050 532 q 1121 542 1113 532 q 1135 633 1132 554 l 1142 640 l 1184 640 l 1191 633 q 1188 494 1188 557 q 1191 345 1188 426 l 1184 338 l 1139 338 l 1132 345 q 1121 438 1132 423 q 1055 457 1110 452 q 967 460 1014 460 q 875 457 918 460 l 875 250 q 878 78 875 161 l 970 78 q 1213 94 1168 78 q 1224 101 1221 96 q 1237 142 1231 111 l 1253 226 l 1260 233 l 1301 233 l 1309 227 m 680 372 l 680 837 q 668 870 680 870 q 652 856 663 870 q 599 770 647 848 q 473 564 511 628 q 364 372 435 499 l 680 372 z "},"Ǽ":{"ha":1389,"x_min":5,"x_max":1309,"o":"m 1309 227 q 1294 3 1294 127 l 1287 -4 l 799 0 q 619 -4 665 0 l 612 3 l 612 22 l 616 30 q 662 54 640 42 q 677 110 674 65 q 680 297 678 130 l 318 297 l 297 262 q 216 106 233 155 q 210 80 210 87 q 254 53 210 55 q 313 50 275 52 l 320 43 l 320 3 l 313 -3 q 106 0 273 0 q 12 -3 49 0 l 5 3 l 5 43 l 13 50 q 89 75 73 56 q 146 163 103 92 l 422 625 q 557 873 557 850 q 524 890 557 888 l 429 898 l 422 905 l 422 950 l 429 957 l 779 953 q 1265 957 908 953 l 1272 950 l 1264 876 q 1258 815 1262 857 l 1253 752 l 1246 745 l 1207 745 l 1200 751 q 1190 857 1200 844 q 1117 871 1182 866 q 1002 877 1051 877 q 882 872 943 877 q 875 675 875 801 l 875 534 q 962 531 928 531 l 1050 532 q 1121 542 1113 532 q 1135 633 1132 554 l 1142 640 l 1184 640 l 1191 633 q 1188 494 1188 557 q 1191 345 1188 426 l 1184 338 l 1139 338 l 1132 345 q 1121 438 1132 423 q 1055 457 1110 452 q 967 460 1014 460 q 875 457 918 460 l 875 250 q 878 78 875 161 l 970 78 q 1213 94 1168 78 q 1224 101 1221 96 q 1237 142 1231 111 l 1253 226 l 1260 233 l 1301 233 l 1309 227 m 680 372 l 680 837 q 668 870 680 870 q 652 856 663 870 q 599 770 647 848 q 473 564 511 628 q 364 372 435 499 l 680 372 m 1142 1272 l 836 1050 l 805 1074 l 805 1084 l 954 1271 l 1127 1292 l 1142 1272 z "},"Ć":{"ha":1003,"x_min":64,"x_max":960,"o":"m 960 119 l 928 50 q 608 -29 785 -29 q 124 226 254 -29 q 64 481 64 344 q 212 836 64 704 q 625 972 363 972 q 949 912 791 972 l 958 902 q 930 683 935 808 l 924 676 l 884 676 l 877 684 q 869 798 875 766 q 625 893 785 893 q 366 789 460 893 q 273 505 273 684 q 439 134 273 263 q 677 64 528 64 q 943 134 813 64 l 960 119 m 833 1272 l 528 1050 l 496 1074 l 496 1084 l 645 1271 l 819 1292 l 833 1272 z "},"Ĉ":{"ha":1003,"x_min":64,"x_max":960,"o":"m 960 119 l 928 50 q 608 -29 785 -29 q 124 226 254 -29 q 64 481 64 344 q 212 836 64 704 q 625 972 363 972 q 949 912 791 972 l 958 902 q 930 683 935 808 l 924 676 l 884 676 l 877 684 q 869 798 875 766 q 625 893 785 893 q 366 789 460 893 q 273 505 273 684 q 439 134 273 263 q 677 64 528 64 q 943 134 813 64 l 960 119 m 834 1050 l 832 1044 l 780 1044 l 602 1190 l 423 1044 l 371 1044 l 369 1050 l 535 1292 l 668 1292 l 834 1050 m 854 1126 m 602 1264 z "},"Č":{"ha":1003,"x_min":64,"x_max":960,"o":"m 960 119 l 928 50 q 608 -29 785 -29 q 124 226 254 -29 q 64 481 64 344 q 212 836 64 704 q 625 972 363 972 q 949 912 791 972 l 958 902 q 930 683 935 808 l 924 676 l 884 676 l 877 684 q 869 798 875 766 q 625 893 785 893 q 366 789 460 893 q 273 505 273 684 q 439 134 273 263 q 677 64 528 64 q 943 134 813 64 l 960 119 m 834 1285 l 668 1044 l 535 1044 l 369 1285 l 371 1292 l 423 1292 l 602 1146 l 780 1292 l 832 1292 l 834 1285 z "},"Ç":{"ha":1003,"x_min":64,"x_max":960,"o":"m 960 119 l 928 50 q 608 -29 785 -29 l 593 -29 l 562 -94 q 608 -90 584 -90 q 699 -113 663 -90 q 741 -191 741 -140 q 673 -290 741 -257 q 548 -317 621 -317 q 421 -294 481 -317 l 418 -283 l 433 -249 l 443 -245 q 530 -260 488 -260 q 577 -244 557 -260 q 597 -201 597 -228 q 581 -160 597 -176 q 538 -144 564 -144 q 500 -151 522 -144 l 484 -138 l 534 -26 q 124 226 241 -2 q 64 481 64 344 q 212 836 64 704 q 625 972 363 972 q 949 912 791 972 l 958 902 q 930 683 935 808 l 924 676 l 884 676 l 877 684 q 869 798 875 766 q 625 893 785 893 q 366 789 460 893 q 273 505 273 684 q 439 134 273 263 q 677 64 528 64 q 943 134 813 64 l 960 119 z "},"Ċ":{"ha":1003,"x_min":64,"x_max":960,"o":"m 960 119 l 928 50 q 608 -29 785 -29 q 124 226 254 -29 q 64 481 64 344 q 212 836 64 704 q 625 972 363 972 q 949 912 791 972 l 958 902 q 930 683 935 808 l 924 676 l 884 676 l 877 684 q 869 798 875 766 q 625 893 785 893 q 366 789 460 893 q 273 505 273 684 q 439 134 273 263 q 677 64 528 64 q 943 134 813 64 l 960 119 m 703 1168 q 674 1098 703 1126 q 604 1069 646 1069 q 535 1098 564 1069 q 506 1168 506 1126 q 535 1239 506 1209 q 604 1268 564 1268 q 674 1239 644 1268 q 703 1168 703 1211 z "},"Ď":{"ha":1154,"x_min":43,"x_max":1090,"o":"m 1090 533 q 941 152 1090 303 q 763 37 867 78 q 502 -4 651 -7 l 262 0 q 101 -4 165 1 l 94 3 l 94 22 l 98 30 q 152 70 148 62 q 159 160 158 82 l 161 312 l 161 656 q 153 866 161 817 q 130 891 149 886 q 50 898 119 894 l 43 905 l 43 951 l 50 957 q 187 953 122 953 q 472 957 345 953 q 599 959 535 959 q 869 919 775 959 q 1031 781 972 875 q 1090 533 1090 684 m 882 500 q 791 789 882 688 q 673 864 744 842 q 484 884 605 884 q 363 876 420 884 q 356 508 356 800 l 357 212 q 363 80 358 113 q 485 71 422 71 q 698 110 620 71 q 831 255 782 153 q 882 500 882 361 m 760 1285 l 593 1044 l 460 1044 l 294 1285 l 296 1292 l 349 1292 l 527 1146 l 705 1292 l 758 1292 l 760 1285 z "},"Đ":{"ha":1154,"x_min":43,"x_max":1090,"o":"m 1090 533 q 941 152 1090 303 q 763 37 867 78 q 502 -4 651 -7 l 262 0 q 101 -4 165 1 l 94 3 l 94 22 l 98 30 q 152 70 148 62 q 159 160 158 82 l 161 312 l 161 469 l 50 469 l 43 475 l 43 534 l 50 541 l 161 541 l 161 656 q 153 866 161 817 q 130 891 149 886 q 50 898 119 894 l 43 905 l 43 951 l 50 957 q 187 953 122 953 q 472 957 345 953 q 599 959 535 959 q 869 919 775 959 q 1031 781 972 875 q 1090 533 1090 684 m 882 500 q 791 789 882 688 q 673 864 744 842 q 484 884 605 884 q 363 876 420 884 q 356 541 356 802 l 574 541 l 581 534 l 581 475 l 574 469 l 356 469 l 356 350 l 357 212 q 363 80 358 113 q 485 71 422 71 q 698 110 620 71 q 831 255 782 153 q 882 500 882 361 z "},"Ð":{"ha":1154,"x_min":43,"x_max":1090,"o":"m 1090 533 q 941 152 1090 303 q 763 37 867 78 q 502 -4 651 -7 l 262 0 q 101 -4 165 1 l 94 3 l 94 22 l 98 30 q 152 70 148 62 q 159 160 158 82 l 161 312 l 161 469 l 50 469 l 43 475 l 43 534 l 50 541 l 161 541 l 161 656 q 153 866 161 817 q 130 891 149 886 q 50 898 119 894 l 43 905 l 43 951 l 50 957 q 187 953 122 953 q 472 957 345 953 q 599 959 535 959 q 869 919 775 959 q 1031 781 972 875 q 1090 533 1090 684 m 882 500 q 791 789 882 688 q 673 864 744 842 q 484 884 605 884 q 363 876 420 884 q 356 541 356 802 l 574 541 l 581 534 l 581 475 l 574 469 l 356 469 l 356 350 l 357 212 q 363 80 358 113 q 485 71 422 71 q 698 110 620 71 q 831 255 782 153 q 882 500 882 361 z "},"É":{"ha":842,"x_min":43,"x_max":790,"o":"m 790 227 q 775 3 775 127 l 768 -4 l 275 0 q 101 -4 152 0 l 94 3 l 94 22 l 98 30 q 152 70 148 62 q 159 160 158 83 l 161 312 l 161 656 q 153 866 161 817 q 130 891 149 886 q 50 898 119 894 l 43 905 l 43 951 l 50 957 q 262 953 119 953 q 747 957 389 953 l 754 951 l 745 876 q 739 815 741 840 l 734 752 l 728 745 l 688 745 l 682 751 q 671 857 681 844 q 598 871 663 866 q 483 877 532 877 q 363 872 424 877 q 356 675 356 801 l 356 534 q 443 531 410 531 l 532 532 q 602 542 594 532 q 616 633 613 554 l 623 640 l 665 640 l 672 633 q 669 494 669 557 q 672 345 669 426 l 665 338 l 620 338 l 613 345 q 602 438 613 423 q 536 457 591 452 q 448 460 495 460 q 356 457 399 460 l 356 250 q 359 78 356 161 l 452 78 q 694 94 650 78 q 705 101 702 96 q 718 142 712 111 l 734 226 l 741 233 l 783 233 l 790 227 m 446 -53 m 446 996 m 671 1272 l 366 1050 l 334 1074 l 334 1084 l 483 1271 l 656 1292 l 671 1272 z "},"È":{"ha":842,"x_min":43,"x_max":790,"o":"m 790 227 q 775 3 775 127 l 768 -4 l 275 0 q 101 -4 152 0 l 94 3 l 94 22 l 98 30 q 152 70 148 62 q 159 160 158 83 l 161 312 l 161 656 q 153 866 161 817 q 130 891 149 886 q 50 898 119 894 l 43 905 l 43 951 l 50 957 q 262 953 119 953 q 747 957 389 953 l 754 951 l 745 876 q 739 815 741 840 l 734 752 l 728 745 l 688 745 l 682 751 q 671 857 681 844 q 598 871 663 866 q 483 877 532 877 q 363 872 424 877 q 356 675 356 801 l 356 534 q 443 531 410 531 l 532 532 q 602 542 594 532 q 616 633 613 554 l 623 640 l 665 640 l 672 633 q 669 494 669 557 q 672 345 669 426 l 665 338 l 620 338 l 613 345 q 602 438 613 423 q 536 457 591 452 q 448 460 495 460 q 356 457 399 460 l 356 250 q 359 78 356 161 l 452 78 q 694 94 650 78 q 705 101 702 96 q 718 142 712 111 l 734 226 l 741 233 l 783 233 l 790 227 m 446 -53 m 446 996 m 558 1074 l 527 1050 l 221 1272 l 236 1292 l 410 1271 l 558 1084 l 558 1074 z "},"Ê":{"ha":842,"x_min":43,"x_max":790,"o":"m 790 227 q 775 3 775 127 l 768 -4 l 275 0 q 101 -4 152 0 l 94 3 l 94 22 l 98 30 q 152 70 148 62 q 159 160 158 83 l 161 312 l 161 656 q 153 866 161 817 q 130 891 149 886 q 50 898 119 894 l 43 905 l 43 951 l 50 957 q 262 953 119 953 q 747 957 389 953 l 754 951 l 745 876 q 739 815 741 840 l 734 752 l 728 745 l 688 745 l 682 751 q 671 857 681 844 q 598 871 663 866 q 483 877 532 877 q 363 872 424 877 q 356 675 356 801 l 356 534 q 443 531 410 531 l 532 532 q 602 542 594 532 q 616 633 613 554 l 623 640 l 665 640 l 672 633 q 669 494 669 557 q 672 345 669 426 l 665 338 l 620 338 l 613 345 q 602 438 613 423 q 536 457 591 452 q 448 460 495 460 q 356 457 399 460 l 356 250 q 359 78 356 161 l 452 78 q 694 94 650 78 q 705 101 702 96 q 718 142 712 111 l 734 226 l 741 233 l 783 233 l 790 227 m 446 -53 m 446 996 m 679 1050 l 677 1044 l 625 1044 l 446 1190 l 268 1044 l 216 1044 l 214 1050 l 380 1292 l 513 1292 l 679 1050 m 699 1126 m 446 1264 z "},"Ë":{"ha":842,"x_min":43,"x_max":790,"o":"m 790 227 q 775 3 775 127 l 768 -4 l 275 0 q 101 -4 152 0 l 94 3 l 94 22 l 98 30 q 152 70 148 62 q 159 160 158 83 l 161 312 l 161 656 q 153 866 161 817 q 130 891 149 886 q 50 898 119 894 l 43 905 l 43 951 l 50 957 q 262 953 119 953 q 747 957 389 953 l 754 951 l 745 876 q 739 815 741 840 l 734 752 l 728 745 l 688 745 l 682 751 q 671 857 681 844 q 598 871 663 866 q 483 877 532 877 q 363 872 424 877 q 356 675 356 801 l 356 534 q 443 531 410 531 l 532 532 q 602 542 594 532 q 616 633 613 554 l 623 640 l 665 640 l 672 633 q 669 494 669 557 q 672 345 669 426 l 665 338 l 620 338 l 613 345 q 602 438 613 423 q 536 457 591 452 q 448 460 495 460 q 356 457 399 460 l 356 250 q 359 78 356 161 l 452 78 q 694 94 650 78 q 705 101 702 96 q 718 142 712 111 l 734 226 l 741 233 l 783 233 l 790 227 m 446 -53 m 446 996 m 694 1168 q 665 1098 694 1126 q 595 1069 636 1069 q 525 1098 554 1069 q 496 1168 496 1126 q 526 1239 496 1209 q 595 1268 555 1268 q 664 1239 635 1268 q 694 1168 694 1211 m 395 1168 q 366 1098 395 1127 q 297 1069 337 1069 q 227 1098 256 1069 q 199 1168 199 1126 q 228 1239 199 1211 q 297 1268 257 1268 q 366 1239 337 1268 q 395 1168 395 1209 z "},"Ě":{"ha":842,"x_min":43,"x_max":790,"o":"m 790 227 q 775 3 775 127 l 768 -4 l 275 0 q 101 -4 152 0 l 94 3 l 94 22 l 98 30 q 152 70 148 62 q 159 160 158 83 l 161 312 l 161 656 q 153 866 161 817 q 130 891 149 886 q 50 898 119 894 l 43 905 l 43 951 l 50 957 q 262 953 119 953 q 747 957 389 953 l 754 951 l 745 876 q 739 815 741 840 l 734 752 l 728 745 l 688 745 l 682 751 q 671 857 681 844 q 598 871 663 866 q 483 877 532 877 q 363 872 424 877 q 356 675 356 801 l 356 534 q 443 531 410 531 l 532 532 q 602 542 594 532 q 616 633 613 554 l 623 640 l 665 640 l 672 633 q 669 494 669 557 q 672 345 669 426 l 665 338 l 620 338 l 613 345 q 602 438 613 423 q 536 457 591 452 q 448 460 495 460 q 356 457 399 460 l 356 250 q 359 78 356 161 l 452 78 q 694 94 650 78 q 705 101 702 96 q 718 142 712 111 l 734 226 l 741 233 l 783 233 l 790 227 m 446 -53 m 446 996 m 679 1285 l 513 1044 l 380 1044 l 214 1285 l 216 1292 l 268 1292 l 446 1146 l 625 1292 l 677 1292 l 679 1285 z "},"Ĕ":{"ha":842,"x_min":43,"x_max":790,"o":"m 790 227 q 775 3 775 127 l 768 -4 l 275 0 q 101 -4 152 0 l 94 3 l 94 22 l 98 30 q 152 70 148 62 q 159 160 158 83 l 161 312 l 161 656 q 153 866 161 817 q 130 891 149 886 q 50 898 119 894 l 43 905 l 43 951 l 50 957 q 262 953 119 953 q 747 957 389 953 l 754 951 l 745 876 q 739 815 741 840 l 734 752 l 728 745 l 688 745 l 682 751 q 671 857 681 844 q 598 871 663 866 q 483 877 532 877 q 363 872 424 877 q 356 675 356 801 l 356 534 q 443 531 410 531 l 532 532 q 602 542 594 532 q 616 633 613 554 l 623 640 l 665 640 l 672 633 q 669 494 669 557 q 672 345 669 426 l 665 338 l 620 338 l 613 345 q 602 438 613 423 q 536 457 591 452 q 448 460 495 460 q 356 457 399 460 l 356 250 q 359 78 356 161 l 452 78 q 694 94 650 78 q 705 101 702 96 q 718 142 712 111 l 734 226 l 741 233 l 783 233 l 790 227 m 446 -53 m 446 996 m 648 1286 q 447 1060 644 1060 q 245 1286 250 1060 l 252 1293 l 292 1293 q 447 1179 306 1179 q 602 1293 588 1179 l 642 1293 l 648 1286 m 449 1293 z "},"Ė":{"ha":842,"x_min":43,"x_max":790,"o":"m 790 227 q 775 3 775 127 l 768 -4 l 275 0 q 101 -4 152 0 l 94 3 l 94 22 l 98 30 q 152 70 148 62 q 159 160 158 83 l 161 312 l 161 656 q 153 866 161 817 q 130 891 149 886 q 50 898 119 894 l 43 905 l 43 951 l 50 957 q 262 953 119 953 q 747 957 389 953 l 754 951 l 745 876 q 739 815 741 840 l 734 752 l 728 745 l 688 745 l 682 751 q 671 857 681 844 q 598 871 663 866 q 483 877 532 877 q 363 872 424 877 q 356 675 356 801 l 356 534 q 443 531 410 531 l 532 532 q 602 542 594 532 q 616 633 613 554 l 623 640 l 665 640 l 672 633 q 669 494 669 557 q 672 345 669 426 l 665 338 l 620 338 l 613 345 q 602 438 613 423 q 536 457 591 452 q 448 460 495 460 q 356 457 399 460 l 356 250 q 359 78 356 161 l 452 78 q 694 94 650 78 q 705 101 702 96 q 718 142 712 111 l 734 226 l 741 233 l 783 233 l 790 227 m 446 -53 m 446 996 m 545 1168 q 516 1098 545 1126 q 446 1069 488 1069 q 377 1098 406 1069 q 348 1168 348 1126 q 377 1239 348 1209 q 446 1268 406 1268 q 516 1239 486 1268 q 545 1168 545 1211 z "},"Ē":{"ha":842,"x_min":43,"x_max":790,"o":"m 790 227 q 775 3 775 127 l 768 -4 l 275 0 q 101 -4 152 0 l 94 3 l 94 22 l 98 30 q 152 70 148 62 q 159 160 158 83 l 161 312 l 161 656 q 153 866 161 817 q 130 891 149 886 q 50 898 119 894 l 43 905 l 43 951 l 50 957 q 262 953 119 953 q 747 957 389 953 l 754 951 l 745 876 q 739 815 741 840 l 734 752 l 728 745 l 688 745 l 682 751 q 671 857 681 844 q 598 871 663 866 q 483 877 532 877 q 363 872 424 877 q 356 675 356 801 l 356 534 q 443 531 410 531 l 532 532 q 602 542 594 532 q 616 633 613 554 l 623 640 l 665 640 l 672 633 q 669 494 669 557 q 672 345 669 426 l 665 338 l 620 338 l 613 345 q 602 438 613 423 q 536 457 591 452 q 448 460 495 460 q 356 457 399 460 l 356 250 q 359 78 356 161 l 452 78 q 694 94 650 78 q 705 101 702 96 q 718 142 712 111 l 734 226 l 741 233 l 783 233 l 790 227 m 446 -53 m 446 996 m 686 1111 l 206 1111 l 206 1223 l 686 1223 l 686 1111 z "},"Ę":{"ha":842,"x_min":43,"x_max":794,"o":"m 794 -279 l 791 -288 q 734 -315 767 -304 q 647 -328 692 -328 q 491 -186 491 -328 q 621 -3 491 -73 l 275 0 q 101 -4 152 0 l 94 3 l 94 22 l 98 30 q 152 70 148 62 q 159 160 158 83 l 161 312 l 161 656 q 153 866 161 817 q 130 891 149 886 q 50 898 119 894 l 43 905 l 43 951 l 50 957 q 262 953 119 953 q 747 957 389 953 l 754 951 l 745 876 q 739 815 741 840 l 734 752 l 728 745 l 688 745 l 682 751 q 671 857 681 844 q 598 871 663 866 q 483 877 532 877 q 363 872 424 877 q 356 675 356 801 l 356 534 q 443 531 413 531 l 532 532 q 602 542 593 532 q 616 633 613 554 l 623 640 l 665 640 l 672 633 q 669 494 669 557 q 672 345 669 426 l 665 338 l 620 338 l 613 345 q 602 438 613 423 q 536 457 591 452 q 448 460 495 460 q 356 457 399 460 l 356 250 q 359 78 356 161 l 452 78 q 694 94 650 78 q 705 101 702 96 q 718 142 712 111 l 734 226 l 741 233 l 783 233 l 790 227 q 775 3 775 127 l 768 -4 l 677 -3 q 601 -165 601 -73 q 693 -269 601 -269 q 781 -250 734 -269 l 789 -255 l 794 -279 z "},"Ǵ":{"ha":1157,"x_min":79,"x_max":1090,"o":"m 1090 342 l 1084 335 q 1035 307 1042 325 q 1028 170 1028 289 q 1034 56 1028 112 q 623 -30 807 -30 q 230 106 380 -30 q 79 477 79 242 q 345 913 79 783 q 653 972 466 972 q 873 949 762 972 q 1017 904 964 929 l 1023 892 q 994 684 1006 832 l 987 677 l 946 677 l 939 684 q 937 738 939 697 q 930 794 934 778 q 828 863 900 835 q 661 893 751 893 q 330 699 421 893 q 288 492 288 610 q 388 179 288 303 q 660 50 492 50 q 831 88 749 50 q 836 218 836 136 q 831 300 836 286 q 806 315 827 311 q 691 326 787 319 l 684 332 l 684 375 l 691 382 q 897 380 789 379 q 1084 382 960 380 l 1090 375 l 1090 342 m 862 1272 l 556 1050 l 525 1074 l 525 1084 l 673 1271 l 847 1292 l 862 1272 z "},"Ĝ":{"ha":1157,"x_min":79,"x_max":1090,"o":"m 1090 342 l 1084 335 q 1035 307 1042 325 q 1028 170 1028 289 q 1034 56 1028 112 q 623 -30 807 -30 q 230 106 380 -30 q 79 477 79 242 q 345 913 79 783 q 653 972 466 972 q 873 949 762 972 q 1017 904 964 929 l 1023 892 q 994 684 1006 832 l 987 677 l 946 677 l 939 684 q 937 738 939 697 q 930 794 934 778 q 828 863 900 835 q 661 893 751 893 q 330 699 421 893 q 288 492 288 610 q 388 179 288 303 q 660 50 492 50 q 831 88 749 50 q 836 218 836 136 q 831 300 836 286 q 806 315 827 311 q 691 326 787 319 l 684 332 l 684 375 l 691 382 q 897 380 789 379 q 1084 382 960 380 l 1090 375 l 1090 342 m 888 1050 l 886 1044 l 834 1044 l 656 1190 l 477 1044 l 425 1044 l 423 1050 l 589 1292 l 722 1292 l 888 1050 m 909 1126 m 656 1264 z "},"Ğ":{"ha":1157,"x_min":79,"x_max":1090,"o":"m 1090 342 l 1084 335 q 1035 307 1042 325 q 1028 170 1028 289 q 1034 56 1028 112 q 623 -30 807 -30 q 230 106 380 -30 q 79 477 79 242 q 345 913 79 783 q 653 972 466 972 q 873 949 762 972 q 1017 904 964 929 l 1023 892 q 994 684 1006 832 l 987 677 l 946 677 l 939 684 q 937 738 939 697 q 930 794 934 778 q 828 863 900 835 q 661 893 751 893 q 330 699 421 893 q 288 492 288 610 q 388 179 288 303 q 660 50 492 50 q 831 88 749 50 q 836 218 836 136 q 831 300 836 286 q 806 315 827 311 q 691 326 787 319 l 684 332 l 684 375 l 691 382 q 897 380 789 379 q 1084 382 960 380 l 1090 375 l 1090 342 m 845 1286 q 644 1060 840 1060 q 441 1286 446 1060 l 448 1293 l 489 1293 q 644 1179 503 1179 q 798 1293 785 1179 l 839 1293 l 845 1286 m 646 1293 z "},"Ģ":{"ha":1157,"x_min":79,"x_max":1090,"o":"m 1090 342 l 1084 335 q 1035 307 1042 325 q 1028 170 1028 289 q 1034 56 1028 112 q 623 -30 807 -30 q 230 106 380 -30 q 79 477 79 242 q 345 913 79 783 q 653 972 466 972 q 873 949 762 972 q 1017 904 964 929 l 1023 892 q 994 684 1006 832 l 987 677 l 946 677 l 939 684 q 937 738 939 697 q 930 794 934 778 q 828 863 900 835 q 661 893 751 893 q 330 699 421 893 q 288 492 288 610 q 388 179 288 303 q 660 50 492 50 q 831 88 749 50 q 836 218 836 136 q 831 300 836 286 q 806 315 827 311 q 691 326 787 319 l 684 332 l 684 375 l 691 382 q 897 380 789 379 q 1084 382 960 380 l 1090 375 l 1090 342 m 734 -212 q 683 -349 734 -296 q 529 -416 629 -406 l 524 -398 q 661 -286 661 -370 q 629 -260 661 -261 q 577 -252 595 -259 q 524 -168 524 -229 q 552 -104 524 -129 q 623 -79 580 -79 q 706 -117 675 -79 q 734 -212 734 -152 z "},"Ġ":{"ha":1157,"x_min":79,"x_max":1090,"o":"m 1090 342 l 1084 335 q 1035 307 1042 325 q 1028 170 1028 289 q 1034 56 1028 112 q 623 -30 807 -30 q 230 106 380 -30 q 79 477 79 242 q 345 913 79 783 q 653 972 466 972 q 873 949 762 972 q 1017 904 964 929 l 1023 892 q 994 684 1006 832 l 987 677 l 946 677 l 939 684 q 937 738 939 697 q 930 794 934 778 q 828 863 900 835 q 661 893 751 893 q 330 699 421 893 q 288 492 288 610 q 388 179 288 303 q 660 50 492 50 q 831 88 749 50 q 836 218 836 136 q 831 300 836 286 q 806 315 827 311 q 691 326 787 319 l 684 332 l 684 375 l 691 382 q 897 380 789 379 q 1084 382 960 380 l 1090 375 l 1090 342 m 735 1168 q 706 1098 735 1126 q 636 1069 677 1069 q 567 1098 595 1069 q 538 1168 538 1126 q 567 1239 538 1209 q 636 1268 596 1268 q 706 1239 676 1268 q 735 1168 735 1211 z "},"Ĥ":{"ha":1157,"x_min":43,"x_max":1114,"o":"m 1114 3 l 1107 -4 q 898 0 1040 0 q 689 -4 753 0 l 682 2 l 682 48 l 690 55 q 769 62 759 59 q 792 87 789 67 q 801 297 801 136 l 801 460 q 581 464 766 464 q 356 460 410 464 l 356 297 q 365 87 356 136 q 388 62 368 67 q 467 55 398 59 l 474 48 l 474 3 l 468 -4 q 259 0 400 0 q 50 -4 113 0 l 43 2 l 43 48 l 50 55 q 130 62 119 59 q 153 87 149 67 q 161 297 161 136 l 161 656 q 153 866 161 817 q 130 891 149 886 q 50 898 119 894 l 43 905 l 43 951 l 50 957 q 259 953 115 953 q 468 957 406 953 l 474 951 l 474 904 l 467 898 q 388 891 398 894 q 365 866 368 886 q 356 656 356 817 l 356 544 q 554 541 428 541 q 801 544 752 541 l 801 656 q 792 866 801 817 q 769 891 789 886 q 690 898 759 894 l 682 905 l 682 951 l 689 957 q 898 953 755 953 q 1107 957 1046 953 l 1114 951 l 1114 904 l 1107 898 q 1027 891 1037 894 q 1004 866 1008 886 q 996 656 996 817 l 996 297 q 1004 87 996 136 q 1027 62 1008 67 q 1107 55 1038 59 l 1114 48 l 1114 3 m 811 1050 l 809 1044 l 757 1044 l 578 1190 l 400 1044 l 348 1044 l 346 1050 l 512 1292 l 645 1292 l 811 1050 m 831 1126 m 578 1264 z "},"Ħ":{"ha":1157,"x_min":43,"x_max":1114,"o":"m 1114 3 l 1107 -4 q 898 0 1040 0 q 689 -4 753 0 l 682 2 l 682 48 l 690 55 q 769 62 759 59 q 792 87 789 67 q 801 297 801 136 l 801 460 q 581 464 766 464 q 356 460 410 464 l 356 297 q 365 87 356 136 q 388 62 368 67 q 467 55 398 59 l 474 48 l 474 3 l 468 -4 q 259 0 400 0 q 50 -4 113 0 l 43 2 l 43 48 l 50 55 q 130 62 119 59 q 153 87 149 67 q 161 297 161 136 l 161 654 l 54 654 l 43 661 l 43 722 l 54 732 l 160 732 q 153 866 157 840 q 130 891 149 886 q 50 898 119 894 l 43 905 l 43 951 l 50 957 q 259 953 115 953 q 468 957 406 953 l 474 951 l 474 904 l 467 898 q 388 891 398 894 q 365 866 368 886 q 357 731 360 840 l 800 731 q 792 866 797 840 q 769 891 789 886 q 690 898 759 894 l 682 905 l 682 951 l 689 957 q 898 953 755 953 q 1107 957 1046 953 l 1114 951 l 1114 904 l 1107 898 q 1027 891 1037 894 q 1004 866 1008 886 q 997 732 1000 840 l 1103 732 l 1114 722 l 1114 661 l 1103 654 l 996 654 l 996 297 q 1004 87 996 136 q 1027 62 1008 67 q 1107 55 1038 59 l 1114 48 l 1114 3 m 801 544 l 801 654 l 356 654 l 356 544 q 554 541 428 541 q 801 544 752 541 z "},"Í":{"ha":541,"x_min":55,"x_max":495,"o":"m 486 3 l 479 -4 q 270 0 412 0 q 61 -4 129 0 l 55 3 l 55 48 l 62 55 q 141 62 131 59 q 164 87 161 67 q 173 297 173 136 l 173 656 q 164 866 173 817 q 141 891 161 886 q 62 898 131 894 l 55 905 l 55 951 l 62 957 q 271 953 127 953 q 479 957 414 953 l 486 951 l 486 905 l 479 898 q 399 891 410 894 q 376 866 380 886 q 368 656 368 817 l 368 297 q 376 87 368 136 q 399 62 380 67 q 479 55 410 59 l 486 48 l 486 3 m 270 996 m 270 -53 m 495 1272 l 189 1050 l 158 1074 l 158 1084 l 307 1271 l 480 1292 l 495 1272 z "},"Ì":{"ha":541,"x_min":45,"x_max":486,"o":"m 486 3 l 479 -4 q 270 0 412 0 q 61 -4 129 0 l 55 3 l 55 48 l 62 55 q 141 62 131 59 q 164 87 161 67 q 173 297 173 136 l 173 656 q 164 866 173 817 q 141 891 161 886 q 62 898 131 894 l 55 905 l 55 951 l 62 957 q 271 953 127 953 q 479 957 414 953 l 486 951 l 486 905 l 479 898 q 399 891 410 894 q 376 866 380 886 q 368 656 368 817 l 368 297 q 376 87 368 136 q 399 62 380 67 q 479 55 410 59 l 486 48 l 486 3 m 270 996 m 270 -53 m 382 1074 l 351 1050 l 45 1272 l 60 1292 l 233 1271 l 382 1084 l 382 1074 z "},"Î":{"ha":541,"x_min":37,"x_max":523,"o":"m 486 3 l 479 -4 q 270 0 412 0 q 61 -4 129 0 l 55 3 l 55 48 l 62 55 q 141 62 131 59 q 164 87 161 67 q 173 297 173 136 l 173 656 q 164 866 173 817 q 141 891 161 886 q 62 898 131 894 l 55 905 l 55 951 l 62 957 q 271 953 127 953 q 479 957 414 953 l 486 951 l 486 905 l 479 898 q 399 891 410 894 q 376 866 380 886 q 368 656 368 817 l 368 297 q 376 87 368 136 q 399 62 380 67 q 479 55 410 59 l 486 48 l 486 3 m 270 996 m 270 -53 m 503 1050 l 500 1044 l 448 1044 l 270 1190 l 92 1044 l 39 1044 l 37 1050 l 203 1292 l 336 1292 l 503 1050 m 523 1126 m 270 1264 z "},"Ï":{"ha":541,"x_min":22,"x_max":517,"o":"m 486 3 l 479 -4 q 270 0 412 0 q 61 -4 129 0 l 55 3 l 55 48 l 62 55 q 141 62 131 59 q 164 87 161 67 q 173 297 173 136 l 173 656 q 164 866 173 817 q 141 891 161 886 q 62 898 131 894 l 55 905 l 55 951 l 62 957 q 271 953 127 953 q 479 957 414 953 l 486 951 l 486 905 l 479 898 q 399 891 410 894 q 376 866 380 886 q 368 656 368 817 l 368 297 q 376 87 368 136 q 399 62 380 67 q 479 55 410 59 l 486 48 l 486 3 m 270 996 m 270 -53 m 517 1168 q 489 1098 517 1126 q 418 1069 460 1069 q 349 1098 378 1069 q 320 1168 320 1126 q 349 1239 320 1209 q 418 1268 378 1268 q 488 1239 458 1268 q 517 1168 517 1211 m 219 1168 q 190 1098 219 1127 q 121 1069 161 1069 q 51 1098 79 1069 q 22 1168 22 1126 q 52 1239 22 1211 q 121 1268 81 1268 q 190 1239 161 1268 q 219 1168 219 1209 z "},"Ĩ":{"ha":541,"x_min":8,"x_max":532,"o":"m 486 3 l 479 -4 q 270 0 412 0 q 61 -4 129 0 l 55 3 l 55 48 l 62 55 q 141 62 131 59 q 164 87 161 67 q 173 297 173 136 l 173 656 q 164 866 173 817 q 141 891 161 886 q 62 898 131 894 l 55 905 l 55 951 l 62 957 q 271 953 127 953 q 479 957 414 953 l 486 951 l 486 905 l 479 898 q 399 891 410 894 q 376 866 380 886 q 368 656 368 817 l 368 297 q 376 87 368 136 q 399 62 380 67 q 479 55 410 59 l 486 48 l 486 3 m 270 996 m 270 -53 m 532 1261 q 473 1134 517 1185 q 374 1081 429 1081 q 285 1105 336 1081 q 231 1129 267 1114 q 185 1151 218 1136 q 133 1163 158 1163 q 56 1086 79 1163 l 13 1086 l 8 1093 q 67 1221 22 1169 q 166 1273 111 1273 q 255 1249 203 1273 q 309 1225 273 1240 q 355 1203 322 1218 q 407 1191 382 1191 q 484 1268 461 1191 l 527 1268 l 532 1261 z "},"Ĭ":{"ha":541,"x_min":55,"x_max":486,"o":"m 486 3 l 479 -4 q 270 0 412 0 q 61 -4 129 0 l 55 3 l 55 48 l 62 55 q 141 62 131 59 q 164 87 161 67 q 173 297 173 136 l 173 656 q 164 866 173 817 q 141 891 161 886 q 62 898 131 894 l 55 905 l 55 951 l 62 957 q 271 953 127 953 q 479 957 414 953 l 486 951 l 486 905 l 479 898 q 399 891 410 894 q 376 866 380 886 q 368 656 368 817 l 368 297 q 376 87 368 136 q 399 62 380 67 q 479 55 410 59 l 486 48 l 486 3 m 270 996 m 270 -53 m 472 1286 q 271 1060 467 1060 q 68 1286 73 1060 l 75 1293 l 116 1293 q 271 1179 130 1179 q 425 1293 412 1179 l 466 1293 l 472 1286 m 273 1293 z "},"İ":{"ha":541,"x_min":55,"x_max":486,"o":"m 486 3 l 479 -4 q 270 0 412 0 q 61 -4 129 0 l 55 3 l 55 48 l 62 55 q 141 62 131 59 q 164 87 161 67 q 173 297 173 136 l 173 656 q 164 866 173 817 q 141 891 161 886 q 62 898 131 894 l 55 905 l 55 951 l 62 957 q 271 953 127 953 q 479 957 414 953 l 486 951 l 486 905 l 479 898 q 399 891 410 894 q 376 866 380 886 q 368 656 368 817 l 368 297 q 376 87 368 136 q 399 62 380 67 q 479 55 410 59 l 486 48 l 486 3 m 270 996 m 270 -53 m 369 1168 q 340 1098 369 1126 q 270 1069 311 1069 q 200 1098 229 1069 q 172 1168 172 1126 q 201 1239 172 1209 q 270 1268 230 1268 q 339 1239 310 1268 q 369 1168 369 1211 z "},"Ī":{"ha":541,"x_min":30,"x_max":509,"o":"m 486 3 l 479 -4 q 270 0 412 0 q 61 -4 129 0 l 55 3 l 55 48 l 62 55 q 141 62 131 59 q 164 87 161 67 q 173 297 173 136 l 173 656 q 164 866 173 817 q 141 891 161 886 q 62 898 131 894 l 55 905 l 55 951 l 62 957 q 271 953 127 953 q 479 957 414 953 l 486 951 l 486 905 l 479 898 q 399 891 410 894 q 376 866 380 886 q 368 656 368 817 l 368 297 q 376 87 368 136 q 399 62 380 67 q 479 55 410 59 l 486 48 l 486 3 m 270 996 m 270 -53 m 509 1111 l 30 1111 l 30 1223 l 509 1223 l 509 1111 z "},"Į":{"ha":541,"x_min":55,"x_max":486,"o":"m 486 3 l 479 -4 q 323 0 422 -1 q 243 -165 243 -73 q 335 -269 243 -269 q 423 -250 376 -269 l 431 -255 l 436 -279 l 433 -288 q 376 -315 409 -304 q 289 -328 334 -328 q 133 -186 133 -328 q 268 0 133 -73 q 61 -4 129 0 l 55 3 l 55 48 l 62 55 q 141 62 131 59 q 164 87 161 67 q 173 297 173 136 l 173 656 q 164 866 173 817 q 141 891 161 886 q 62 898 131 894 l 55 905 l 55 951 l 62 957 q 271 953 127 953 q 479 957 414 953 l 486 951 l 486 905 l 479 898 q 399 891 410 894 q 376 866 380 886 q 368 656 368 817 l 368 297 q 376 87 368 136 q 399 62 380 67 q 479 55 410 59 l 486 48 l 486 3 z "},"Ĵ":{"ha":541,"x_min":0,"x_max":540,"o":"m 503 904 l 496 898 q 416 891 427 894 q 393 866 397 886 q 385 656 385 817 l 385 151 q 355 -61 385 15 q 236 -223 322 -148 q 56 -306 142 -306 q 0 -296 27 -306 q 3 -170 3 -245 l 19 -161 q 116 -210 74 -210 q 181 -149 174 -210 q 190 92 190 -68 l 190 656 q 181 866 190 817 q 158 891 178 886 q 63 898 153 892 l 56 905 l 56 951 l 63 957 q 287 953 157 953 q 496 957 435 953 l 503 951 l 503 904 m 519 1050 l 517 1044 l 465 1044 l 287 1190 l 109 1044 l 56 1044 l 54 1050 l 220 1292 l 353 1292 l 519 1050 m 540 1126 m 287 1264 z "},"Ķ":{"ha":1069,"x_min":43,"x_max":1050,"o":"m 1050 3 l 1043 -4 q 889 0 932 0 q 769 -4 851 0 q 699 92 753 30 l 498 321 q 356 458 432 396 l 356 297 q 365 87 356 136 q 388 62 368 67 q 467 55 398 59 l 474 48 l 474 3 l 468 -4 q 259 0 400 0 q 50 -4 113 0 l 43 2 l 43 48 l 50 55 q 130 62 119 59 q 153 87 149 67 q 161 297 161 136 l 161 656 q 153 866 161 817 q 130 891 149 886 q 50 898 119 894 l 43 905 l 43 951 l 50 957 q 259 953 115 953 q 468 957 406 953 l 474 951 l 474 904 l 467 898 q 388 891 398 894 q 365 866 368 886 q 356 656 356 817 l 356 488 q 538 663 483 606 l 634 762 q 761 903 684 814 l 761 950 l 768 957 q 871 953 821 953 q 1009 957 930 953 l 1016 950 l 1016 908 l 1009 901 q 892 876 930 901 q 684 694 838 840 l 547 564 q 642 448 576 525 l 794 272 q 989 64 963 76 q 1043 56 1006 56 l 1050 48 l 1050 3 m 656 -212 q 604 -349 656 -296 q 450 -416 551 -406 l 446 -398 q 582 -286 582 -370 q 551 -260 582 -261 q 498 -252 517 -259 q 445 -168 445 -229 q 473 -104 445 -129 q 544 -79 501 -79 q 627 -117 597 -79 q 656 -212 656 -152 z "},"Ĺ":{"ha":842,"x_min":43,"x_max":790,"o":"m 790 227 q 775 3 775 127 l 768 -4 l 275 0 q 101 -4 152 0 l 94 3 l 94 22 l 98 30 q 152 70 148 62 q 159 160 158 82 l 161 312 l 161 656 q 153 866 161 817 q 130 891 149 886 q 50 898 119 894 l 43 905 l 43 951 l 50 957 q 255 953 120 953 q 467 957 395 953 l 474 951 l 474 904 l 467 898 q 388 891 398 894 q 365 866 368 886 q 356 656 356 817 l 356 250 q 359 78 356 161 l 452 78 q 694 94 650 78 q 705 101 702 96 q 718 142 712 111 l 734 226 l 741 233 l 783 233 l 790 227 m 508 1272 l 202 1050 l 171 1074 l 171 1084 l 319 1271 l 493 1292 l 508 1272 z "},"Ļ":{"ha":842,"x_min":43,"x_max":790,"o":"m 790 227 q 775 3 775 127 l 768 -4 l 275 0 q 101 -4 152 0 l 94 3 l 94 22 l 98 30 q 152 70 148 62 q 159 160 158 82 l 161 312 l 161 656 q 153 866 161 817 q 130 891 149 886 q 50 898 119 894 l 43 905 l 43 951 l 50 957 q 255 953 120 953 q 467 957 395 953 l 474 951 l 474 904 l 467 898 q 388 891 398 894 q 365 866 368 886 q 356 656 356 817 l 356 250 q 359 78 356 161 l 452 78 q 694 94 650 78 q 705 101 702 96 q 718 142 712 111 l 734 226 l 741 233 l 783 233 l 790 227 m 529 -212 q 477 -349 529 -296 q 323 -416 424 -406 l 319 -398 q 455 -286 455 -370 q 424 -260 455 -261 q 372 -252 390 -259 q 318 -168 318 -229 q 346 -104 318 -129 q 417 -79 374 -79 q 500 -117 470 -79 q 529 -212 529 -152 z "},"Ľ":{"ha":842,"x_min":43,"x_max":790,"o":"m 790 227 q 775 3 775 127 l 768 -4 l 275 0 q 101 -4 152 0 l 94 3 l 94 22 l 98 30 q 152 70 148 62 q 159 160 158 82 l 161 312 l 161 656 q 153 866 161 817 q 130 891 149 886 q 50 898 119 894 l 43 905 l 43 951 l 50 957 q 255 953 120 953 q 467 957 395 953 l 474 951 l 474 904 l 467 898 q 388 891 398 894 q 365 866 368 886 q 356 656 356 817 l 356 250 q 359 78 356 161 l 452 78 q 694 94 650 78 q 705 101 702 96 q 718 142 712 111 l 734 226 l 741 233 l 783 233 l 790 227 m 760 825 q 708 687 760 741 q 554 621 654 631 l 549 638 q 686 751 686 666 q 654 776 686 775 q 602 785 621 777 q 549 868 549 807 q 577 932 549 907 q 648 957 605 957 q 731 920 701 957 q 760 825 760 884 z "},"Ŀ":{"ha":842,"x_min":43,"x_max":790,"o":"m 790 227 q 775 3 775 127 l 768 -4 l 275 0 q 101 -4 152 0 l 94 3 l 94 22 l 98 30 q 152 70 148 62 q 159 160 158 82 l 161 312 l 161 656 q 153 866 161 817 q 130 891 149 886 q 50 898 119 894 l 43 905 l 43 951 l 50 957 q 255 953 120 953 q 467 957 395 953 l 474 951 l 474 904 l 467 898 q 388 891 398 894 q 365 866 368 886 q 356 656 356 817 l 356 250 q 359 78 356 161 l 452 78 q 694 94 650 78 q 705 101 702 96 q 718 142 712 111 l 734 226 l 741 233 l 783 233 l 790 227 m 656 551 q 628 481 656 510 q 557 452 599 452 q 488 481 517 452 q 459 551 459 510 q 488 622 459 593 q 557 652 517 652 q 627 623 597 652 q 656 551 656 594 z "},"Ł":{"ha":842,"x_min":18,"x_max":790,"o":"m 790 227 q 775 3 775 127 l 768 -4 l 275 0 q 101 -4 152 0 l 94 3 l 94 22 l 98 30 q 152 70 148 62 q 159 160 158 82 l 161 402 l 44 336 l 34 340 l 18 382 l 22 391 l 161 470 l 161 656 q 153 866 161 817 q 130 891 149 886 q 50 898 119 894 l 43 905 l 43 951 l 50 957 q 255 953 120 953 q 467 957 395 953 l 474 951 l 474 904 l 467 898 q 388 891 398 894 q 365 866 368 886 q 356 656 356 817 l 356 576 l 530 674 l 540 669 l 555 627 l 551 617 l 356 508 l 356 250 q 359 78 356 161 l 452 78 q 694 94 650 78 q 705 101 702 96 q 718 142 712 111 l 734 226 l 741 233 l 783 233 l 790 227 z "},"Ń":{"ha":1157,"x_min":60,"x_max":1112,"o":"m 1112 905 l 1105 898 q 1025 891 1036 894 q 1002 866 1006 886 q 994 656 994 817 l 994 380 q 1002 -16 994 76 l 994 -22 q 878 -4 917 -9 q 257 741 696 200 l 257 297 q 266 87 257 136 q 289 62 269 67 q 368 55 299 59 l 375 48 l 375 2 l 368 -4 q 223 0 290 0 q 66 -4 145 0 l 60 2 l 60 48 l 66 55 q 146 62 136 59 q 169 87 165 67 q 178 297 178 136 l 178 656 q 169 866 178 817 q 146 891 165 886 q 66 898 136 894 l 60 905 l 60 951 l 66 957 q 189 953 131 953 q 341 957 281 953 q 915 259 585 631 l 915 656 q 906 866 915 817 q 883 891 903 886 q 804 898 873 894 l 797 905 l 797 951 l 804 957 q 948 953 880 953 q 1105 957 1036 953 l 1112 951 l 1112 905 m 810 1272 l 505 1050 l 473 1074 l 473 1084 l 622 1271 l 795 1292 l 810 1272 z "},"Ñ":{"ha":1157,"x_min":60,"x_max":1112,"o":"m 1112 905 l 1105 898 q 1025 891 1036 894 q 1002 866 1006 886 q 994 656 994 817 l 994 380 q 1002 -16 994 76 l 994 -22 q 878 -4 917 -9 q 257 741 696 200 l 257 297 q 266 87 257 136 q 289 62 269 67 q 368 55 299 59 l 375 48 l 375 2 l 368 -4 q 223 0 290 0 q 66 -4 145 0 l 60 2 l 60 48 l 66 55 q 146 62 136 59 q 169 87 165 67 q 178 297 178 136 l 178 656 q 169 866 178 817 q 146 891 165 886 q 66 898 136 894 l 60 905 l 60 951 l 66 957 q 189 953 131 953 q 341 957 281 953 q 915 259 585 631 l 915 656 q 906 866 915 817 q 883 891 903 886 q 804 898 873 894 l 797 905 l 797 951 l 804 957 q 948 953 880 953 q 1105 957 1036 953 l 1112 951 l 1112 905 m 848 1261 q 789 1134 833 1185 q 690 1081 745 1081 q 601 1105 652 1081 q 547 1129 583 1114 q 501 1151 534 1136 q 449 1163 474 1163 q 372 1086 395 1163 l 329 1086 l 324 1093 q 383 1221 338 1169 q 482 1273 427 1273 q 571 1249 519 1273 q 625 1225 589 1240 q 671 1203 638 1218 q 723 1191 698 1191 q 800 1268 777 1191 l 843 1268 l 848 1261 z "},"Ň":{"ha":1157,"x_min":60,"x_max":1112,"o":"m 1112 905 l 1105 898 q 1025 891 1036 894 q 1002 866 1006 886 q 994 656 994 817 l 994 380 q 1002 -16 994 76 l 994 -22 q 878 -4 917 -9 q 257 741 696 200 l 257 297 q 266 87 257 136 q 289 62 269 67 q 368 55 299 59 l 375 48 l 375 2 l 368 -4 q 223 0 290 0 q 66 -4 145 0 l 60 2 l 60 48 l 66 55 q 146 62 136 59 q 169 87 165 67 q 178 297 178 136 l 178 656 q 169 866 178 817 q 146 891 165 886 q 66 898 136 894 l 60 905 l 60 951 l 66 957 q 189 953 131 953 q 341 957 281 953 q 915 259 585 631 l 915 656 q 906 866 915 817 q 883 891 903 886 q 804 898 873 894 l 797 905 l 797 951 l 804 957 q 948 953 880 953 q 1105 957 1036 953 l 1112 951 l 1112 905 m 819 1285 l 652 1044 l 519 1044 l 353 1285 l 355 1292 l 408 1292 l 586 1146 l 764 1292 l 817 1292 l 819 1285 z "},"Ņ":{"ha":1157,"x_min":60,"x_max":1112,"o":"m 1112 905 l 1105 898 q 1025 891 1036 894 q 1002 866 1006 886 q 994 656 994 817 l 994 380 q 1002 -16 994 76 l 994 -22 q 878 -4 917 -9 q 257 741 696 200 l 257 297 q 266 87 257 136 q 289 62 269 67 q 368 55 299 59 l 375 48 l 375 2 l 368 -4 q 223 0 290 0 q 66 -4 145 0 l 60 2 l 60 48 l 66 55 q 146 62 136 59 q 169 87 165 67 q 178 297 178 136 l 178 656 q 169 866 178 817 q 146 891 165 886 q 66 898 136 894 l 60 905 l 60 951 l 66 957 q 189 953 131 953 q 341 957 281 953 q 915 259 585 631 l 915 656 q 906 866 915 817 q 883 891 903 886 q 804 898 873 894 l 797 905 l 797 951 l 804 957 q 948 953 880 953 q 1105 957 1036 953 l 1112 951 l 1112 905 m 711 -212 q 660 -349 711 -296 q 506 -416 606 -406 l 501 -398 q 637 -286 637 -370 q 606 -260 637 -261 q 554 -252 572 -259 q 500 -168 500 -229 q 529 -104 500 -129 q 600 -79 557 -79 q 683 -117 652 -79 q 711 -212 711 -152 z "},"Ó":{"ha":1157,"x_min":64,"x_max":1093,"o":"m 1093 501 q 947 109 1093 251 q 560 -30 806 -30 q 196 101 328 -30 q 64 464 64 231 q 313 916 64 790 q 591 972 426 972 q 960 848 828 972 q 1093 501 1093 722 m 884 466 q 805 778 884 663 q 574 894 726 894 q 307 713 372 894 q 273 505 273 620 q 350 174 273 295 q 589 48 430 48 q 849 239 783 48 q 884 466 884 340 m 574 -53 m 574 996 m 800 1272 l 494 1050 l 463 1074 l 463 1084 l 611 1271 l 785 1292 l 800 1272 z "},"Ò":{"ha":1157,"x_min":64,"x_max":1093,"o":"m 1093 501 q 947 109 1093 251 q 560 -30 806 -30 q 196 101 328 -30 q 64 464 64 231 q 313 916 64 790 q 591 972 426 972 q 960 848 828 972 q 1093 501 1093 722 m 884 466 q 805 778 884 663 q 574 894 726 894 q 307 713 372 894 q 273 505 273 620 q 350 174 273 295 q 589 48 430 48 q 849 239 783 48 q 884 466 884 340 m 574 -53 m 574 996 m 686 1074 l 655 1050 l 349 1272 l 364 1292 l 538 1271 l 686 1084 l 686 1074 z "},"Ô":{"ha":1157,"x_min":64,"x_max":1093,"o":"m 1093 501 q 947 109 1093 251 q 560 -30 806 -30 q 196 101 328 -30 q 64 464 64 231 q 313 916 64 790 q 591 972 426 972 q 960 848 828 972 q 1093 501 1093 722 m 884 466 q 805 778 884 663 q 574 894 726 894 q 307 713 372 894 q 273 505 273 620 q 350 174 273 295 q 589 48 430 48 q 849 239 783 48 q 884 466 884 340 m 574 -53 m 574 996 m 807 1050 l 805 1044 l 753 1044 l 574 1190 l 396 1044 l 344 1044 l 342 1050 l 508 1292 l 641 1292 l 807 1050 m 827 1126 m 574 1264 z "},"Ö":{"ha":1157,"x_min":64,"x_max":1093,"o":"m 1093 501 q 947 109 1093 251 q 560 -30 806 -30 q 196 101 328 -30 q 64 464 64 231 q 313 916 64 790 q 591 972 426 972 q 960 848 828 972 q 1093 501 1093 722 m 884 466 q 805 778 884 663 q 574 894 726 894 q 307 713 372 894 q 273 505 273 620 q 350 174 273 295 q 589 48 430 48 q 849 239 783 48 q 884 466 884 340 m 574 -53 m 574 996 m 822 1168 q 793 1098 822 1126 q 723 1069 764 1069 q 653 1098 682 1069 q 625 1168 625 1126 q 654 1239 625 1209 q 723 1268 683 1268 q 792 1239 763 1268 q 822 1168 822 1211 m 524 1168 q 494 1098 524 1127 q 425 1069 465 1069 q 355 1098 384 1069 q 327 1168 327 1126 q 356 1239 327 1211 q 425 1268 385 1268 q 494 1239 465 1268 q 524 1168 524 1209 z "},"Õ":{"ha":1157,"x_min":64,"x_max":1093,"o":"m 1093 501 q 947 109 1093 251 q 560 -30 806 -30 q 196 101 328 -30 q 64 464 64 231 q 313 916 64 790 q 591 972 426 972 q 960 848 828 972 q 1093 501 1093 722 m 884 466 q 805 778 884 663 q 574 894 726 894 q 307 713 372 894 q 273 505 273 620 q 350 174 273 295 q 589 48 430 48 q 849 239 783 48 q 884 466 884 340 m 574 -53 m 574 996 m 836 1261 q 778 1134 822 1185 q 678 1081 733 1081 q 589 1105 641 1081 q 536 1129 571 1114 q 490 1151 522 1136 q 437 1163 463 1163 q 360 1086 383 1163 l 317 1086 l 313 1093 q 371 1221 327 1169 q 471 1273 416 1273 q 559 1249 508 1273 q 613 1225 578 1240 q 659 1203 627 1218 q 711 1191 686 1191 q 789 1268 766 1191 l 831 1268 l 836 1261 z "},"Ŏ":{"ha":1157,"x_min":64,"x_max":1093,"o":"m 1093 501 q 947 109 1093 251 q 560 -30 806 -30 q 196 101 328 -30 q 64 464 64 231 q 313 916 64 790 q 591 972 426 972 q 960 848 828 972 q 1093 501 1093 722 m 884 466 q 805 778 884 663 q 574 894 726 894 q 307 713 372 894 q 273 505 273 620 q 350 174 273 295 q 589 48 430 48 q 849 239 783 48 q 884 466 884 340 m 574 -53 m 574 996 m 777 1286 q 575 1060 772 1060 q 373 1286 378 1060 l 380 1293 l 420 1293 q 575 1179 434 1179 q 730 1293 716 1179 l 770 1293 l 777 1286 m 577 1293 z "},"Ő":{"ha":1157,"x_min":64,"x_max":1093,"o":"m 1093 501 q 947 109 1093 251 q 560 -30 806 -30 q 196 101 328 -30 q 64 464 64 231 q 313 916 64 790 q 591 972 426 972 q 960 848 828 972 q 1093 501 1093 722 m 884 466 q 805 778 884 663 q 574 894 726 894 q 307 713 372 894 q 273 505 273 620 q 350 174 273 295 q 589 48 430 48 q 849 239 783 48 q 884 466 884 340 m 574 -53 m 574 996 m 1004 1272 l 699 1050 l 667 1074 l 667 1084 l 816 1271 l 989 1292 l 1004 1272 m 697 1272 l 391 1050 l 360 1074 l 360 1084 l 509 1271 l 682 1292 l 697 1272 z "},"Ō":{"ha":1157,"x_min":64,"x_max":1093,"o":"m 1093 501 q 947 109 1093 251 q 560 -30 806 -30 q 196 101 328 -30 q 64 464 64 231 q 313 916 64 790 q 591 972 426 972 q 960 848 828 972 q 1093 501 1093 722 m 884 466 q 805 778 884 663 q 574 894 726 894 q 307 713 372 894 q 273 505 273 620 q 350 174 273 295 q 589 48 430 48 q 849 239 783 48 q 884 466 884 340 m 574 -53 m 574 996 m 814 1111 l 334 1111 l 334 1223 l 814 1223 l 814 1111 z "},"Ø":{"ha":1157,"x_min":44,"x_max":1110,"o":"m 1110 919 l 995 811 q 1093 501 1093 694 q 947 109 1093 251 q 560 -30 806 -30 q 214 84 345 -30 l 95 -27 l 85 -27 l 44 15 l 44 25 l 164 137 q 64 464 64 262 q 313 916 64 790 q 591 972 426 972 q 943 863 814 972 l 1061 972 l 1072 972 l 1110 928 l 1110 919 m 823 750 q 707 868 775 836 q 574 894 652 894 q 307 713 372 894 q 273 505 273 620 q 305 269 273 368 l 823 750 m 884 466 q 853 680 884 585 l 336 197 q 448 79 380 115 q 589 48 506 48 q 849 239 783 48 q 884 466 884 340 z "},"Ǿ":{"ha":1157,"x_min":44,"x_max":1110,"o":"m 1110 919 l 995 811 q 1093 501 1093 694 q 947 109 1093 251 q 560 -30 806 -30 q 214 84 345 -30 l 95 -27 l 85 -27 l 44 15 l 44 25 l 164 137 q 64 464 64 262 q 313 916 64 790 q 591 972 426 972 q 943 863 814 972 l 1061 972 l 1072 972 l 1110 928 l 1110 919 m 823 750 q 707 868 775 836 q 574 894 652 894 q 307 713 372 894 q 273 505 273 620 q 305 269 273 368 l 823 750 m 884 466 q 853 680 884 585 l 336 197 q 448 79 380 115 q 589 48 506 48 q 849 239 783 48 q 884 466 884 340 m 800 1272 l 494 1050 l 463 1074 l 463 1084 l 611 1271 l 785 1292 l 800 1272 z "},"Œ":{"ha":1389,"x_min":60,"x_max":1350,"o":"m 1350 227 q 1335 3 1335 127 l 1328 -4 l 895 1 q 696 -12 822 1 q 529 -24 585 -24 q 182 117 307 -24 q 60 491 60 255 q 179 839 60 709 q 559 974 303 974 q 728 960 618 974 q 878 949 814 948 l 1307 957 l 1314 950 l 1305 876 q 1299 815 1301 842 l 1294 752 l 1287 745 l 1248 745 l 1241 751 q 1230 857 1240 844 q 1157 871 1223 866 q 1063 877 1092 877 q 943 872 1004 877 q 936 675 936 801 l 936 534 q 1023 531 990 531 l 1091 532 q 1162 542 1154 532 q 1176 633 1173 554 l 1183 640 l 1225 640 l 1232 633 q 1229 494 1229 557 q 1232 345 1229 426 l 1225 338 l 1179 338 l 1173 345 q 1162 438 1173 423 q 1096 457 1151 452 q 1028 460 1055 460 q 936 457 979 460 l 936 250 q 939 78 936 161 l 1031 78 q 1166 81 1103 78 q 1254 94 1228 85 q 1265 101 1261 96 q 1278 142 1272 111 l 1294 226 l 1301 233 l 1342 233 l 1350 227 m 741 416 l 741 548 q 735 833 741 642 q 637 886 695 871 q 555 895 600 895 q 301 722 365 895 q 268 509 268 632 q 403 109 268 219 q 566 54 471 54 q 698 75 647 54 q 735 96 715 81 q 741 416 741 157 z "},"Ŕ":{"ha":991,"x_min":43,"x_max":972,"o":"m 972 3 l 965 -4 q 939 -3 960 -4 q 823 0 846 0 q 713 -4 789 0 q 688 50 711 12 l 519 331 l 444 446 q 404 487 430 467 l 412 510 q 435 509 427 509 q 539 530 501 509 q 603 597 574 549 q 632 710 632 644 q 547 865 632 825 q 428 884 506 884 q 363 878 394 884 q 356 652 356 812 l 356 297 q 365 87 356 136 q 388 62 368 67 q 467 55 398 59 l 474 48 l 474 3 l 468 -4 q 259 0 400 0 q 50 -4 113 0 l 43 2 l 43 48 l 50 55 q 130 62 119 59 q 153 87 149 67 q 161 297 161 136 l 161 656 q 153 866 161 817 q 130 891 149 886 q 50 898 119 894 l 43 905 l 43 951 l 50 957 q 259 953 117 953 q 393 955 342 953 q 547 959 496 959 q 719 938 664 959 q 818 842 793 909 q 830 763 830 808 q 623 501 830 578 q 694 386 656 444 l 799 225 q 922 63 891 83 q 965 53 937 53 l 972 46 l 972 3 m 653 1272 l 347 1050 l 316 1074 l 316 1084 l 465 1271 l 638 1292 l 653 1272 z "},"Ř":{"ha":991,"x_min":43,"x_max":972,"o":"m 972 3 l 965 -4 q 939 -3 960 -4 q 823 0 846 0 q 713 -4 789 0 q 688 50 711 12 l 519 331 l 444 446 q 404 487 430 467 l 412 510 q 435 509 427 509 q 539 530 501 509 q 603 597 574 549 q 632 710 632 644 q 547 865 632 825 q 428 884 506 884 q 363 878 394 884 q 356 652 356 812 l 356 297 q 365 87 356 136 q 388 62 368 67 q 467 55 398 59 l 474 48 l 474 3 l 468 -4 q 259 0 400 0 q 50 -4 113 0 l 43 2 l 43 48 l 50 55 q 130 62 119 59 q 153 87 149 67 q 161 297 161 136 l 161 656 q 153 866 161 817 q 130 891 149 886 q 50 898 119 894 l 43 905 l 43 951 l 50 957 q 259 953 117 953 q 393 955 342 953 q 547 959 496 959 q 719 938 664 959 q 818 842 793 909 q 830 763 830 808 q 623 501 830 578 q 694 386 656 444 l 799 225 q 922 63 891 83 q 965 53 937 53 l 972 46 l 972 3 m 661 1285 l 494 1044 l 361 1044 l 195 1285 l 197 1292 l 250 1292 l 428 1146 l 606 1292 l 659 1292 l 661 1285 z "},"Ŗ":{"ha":991,"x_min":43,"x_max":972,"o":"m 972 3 l 965 -4 q 939 -3 960 -4 q 823 0 846 0 q 713 -4 789 0 q 688 50 711 12 l 519 331 l 444 446 q 404 487 430 467 l 412 510 q 435 509 427 509 q 539 530 501 509 q 603 597 574 549 q 632 710 632 644 q 547 865 632 825 q 428 884 506 884 q 363 878 394 884 q 356 652 356 812 l 356 297 q 365 87 356 136 q 388 62 368 67 q 467 55 398 59 l 474 48 l 474 3 l 468 -4 q 259 0 400 0 q 50 -4 113 0 l 43 2 l 43 48 l 50 55 q 130 62 119 59 q 153 87 149 67 q 161 297 161 136 l 161 656 q 153 866 161 817 q 130 891 149 886 q 50 898 119 894 l 43 905 l 43 951 l 50 957 q 259 953 117 953 q 393 955 342 953 q 547 959 496 959 q 719 938 664 959 q 818 842 793 909 q 830 763 830 808 q 623 501 830 578 q 694 386 656 444 l 799 225 q 922 63 891 83 q 965 53 937 53 l 972 46 l 972 3 m 613 -212 q 562 -349 613 -296 q 408 -416 508 -406 l 403 -398 q 539 -286 539 -370 q 508 -260 539 -261 q 456 -252 474 -259 q 402 -168 402 -229 q 430 -104 402 -129 q 501 -79 458 -79 q 585 -117 554 -79 q 613 -212 613 -152 z "},"Ś":{"ha":848,"x_min":81,"x_max":776,"o":"m 776 313 q 712 116 776 201 q 566 4 656 41 q 369 -30 484 -30 q 90 35 227 -30 l 81 50 q 100 272 100 128 l 107 279 l 151 279 l 157 272 l 157 256 q 165 156 157 218 q 252 81 189 113 q 389 49 318 49 q 575 142 524 49 q 602 242 602 191 q 529 366 602 329 q 413 397 493 385 q 175 467 232 425 q 89 664 89 530 q 182 886 89 803 q 458 972 281 972 q 714 922 616 972 l 719 905 q 699 711 703 825 l 692 705 l 649 705 l 642 711 q 635 817 640 793 q 562 871 614 849 q 446 895 507 895 q 302 846 355 895 q 253 729 253 801 q 309 614 253 651 q 482 569 346 591 q 562 555 496 567 q 635 536 602 549 q 739 457 704 510 q 776 313 776 399 m 649 1272 l 343 1050 l 312 1074 l 312 1084 l 460 1271 l 634 1292 l 649 1272 z "},"Ŝ":{"ha":848,"x_min":81,"x_max":776,"o":"m 776 313 q 712 116 776 201 q 566 4 656 41 q 369 -30 484 -30 q 90 35 227 -30 l 81 50 q 100 272 100 128 l 107 279 l 151 279 l 157 272 l 157 256 q 165 156 157 218 q 252 81 189 113 q 389 49 318 49 q 575 142 524 49 q 602 242 602 191 q 529 366 602 329 q 413 397 493 385 q 175 467 232 425 q 89 664 89 530 q 182 886 89 803 q 458 972 281 972 q 714 922 616 972 l 719 905 q 699 711 703 825 l 692 705 l 649 705 l 642 711 q 635 817 640 793 q 562 871 614 849 q 446 895 507 895 q 302 846 355 895 q 253 729 253 801 q 309 614 253 651 q 482 569 346 591 q 562 555 496 567 q 635 536 602 549 q 739 457 704 510 q 776 313 776 399 m 656 1050 l 654 1044 l 602 1044 l 424 1190 l 245 1044 l 193 1044 l 191 1050 l 357 1292 l 490 1292 l 656 1050 m 677 1126 m 424 1264 z "},"Š":{"ha":848,"x_min":81,"x_max":776,"o":"m 776 313 q 712 116 776 201 q 566 4 656 41 q 369 -30 484 -30 q 90 35 227 -30 l 81 50 q 100 272 100 128 l 107 279 l 151 279 l 157 272 l 157 256 q 165 156 157 218 q 252 81 189 113 q 389 49 318 49 q 575 142 524 49 q 602 242 602 191 q 529 366 602 329 q 413 397 493 385 q 175 467 232 425 q 89 664 89 530 q 182 886 89 803 q 458 972 281 972 q 714 922 616 972 l 719 905 q 699 711 703 825 l 692 705 l 649 705 l 642 711 q 635 817 640 793 q 562 871 614 849 q 446 895 507 895 q 302 846 355 895 q 253 729 253 801 q 309 614 253 651 q 482 569 346 591 q 562 555 496 567 q 635 536 602 549 q 739 457 704 510 q 776 313 776 399 m 656 1285 l 490 1044 l 357 1044 l 191 1285 l 193 1292 l 245 1292 l 424 1146 l 602 1292 l 654 1292 l 656 1285 z "},"Ș":{"ha":848,"x_min":81,"x_max":776,"o":"m 776 313 q 712 116 776 201 q 566 4 656 41 q 369 -30 484 -30 q 90 35 227 -30 l 81 50 q 100 272 100 128 l 107 279 l 151 279 l 157 272 l 157 256 q 165 156 157 218 q 252 81 189 113 q 389 49 318 49 q 575 142 524 49 q 602 242 602 191 q 529 366 602 329 q 413 397 493 385 q 175 467 232 425 q 89 664 89 530 q 182 886 89 803 q 458 972 281 972 q 714 922 616 972 l 719 905 q 699 711 703 825 l 692 705 l 649 705 l 642 711 q 635 817 640 793 q 562 871 614 849 q 446 895 507 895 q 302 846 355 895 q 253 729 253 801 q 309 614 253 651 q 482 569 346 591 q 562 555 496 567 q 635 536 602 549 q 739 457 704 510 q 776 313 776 399 m 517 -212 q 466 -349 517 -296 q 312 -416 412 -406 l 307 -398 q 444 -286 444 -370 q 412 -260 444 -261 q 360 -252 378 -259 q 307 -168 307 -229 q 335 -104 307 -129 q 406 -79 363 -79 q 489 -117 458 -79 q 517 -212 517 -152 z "},"Ş":{"ha":848,"x_min":81,"x_max":776,"o":"m 776 313 q 712 116 776 201 q 566 4 656 41 q 431 -27 507 -20 l 399 -94 q 446 -90 421 -90 q 536 -113 500 -90 q 578 -191 578 -140 q 511 -290 578 -257 q 385 -317 458 -317 q 258 -294 319 -317 l 255 -283 l 270 -249 l 280 -245 q 368 -260 326 -260 q 415 -244 395 -260 q 435 -201 435 -228 q 418 -160 435 -176 q 375 -144 401 -144 q 338 -151 359 -144 l 321 -138 l 370 -30 l 369 -30 q 90 35 227 -30 l 81 50 q 100 272 100 128 l 107 279 l 151 279 l 157 272 l 157 256 q 165 156 157 218 q 252 81 189 113 q 389 49 318 49 q 575 142 524 49 q 602 242 602 191 q 529 366 602 329 q 413 397 493 385 q 175 467 232 425 q 89 664 89 530 q 182 886 89 803 q 458 972 281 972 q 714 922 616 972 l 719 905 q 699 711 703 825 l 692 705 l 649 705 l 642 711 q 635 817 640 793 q 562 871 610 854 q 446 895 507 895 q 302 846 355 895 q 253 729 253 801 q 309 614 253 651 q 482 569 346 591 q 562 555 498 566 q 635 536 602 549 q 739 457 704 510 q 776 313 776 399 z "},"Ț":{"ha":926,"x_min":28,"x_max":899,"o":"m 899 953 q 890 849 890 903 l 888 736 l 882 729 l 839 729 l 831 735 q 824 837 828 822 q 781 869 816 864 q 653 871 767 871 l 562 871 q 561 682 561 847 l 561 297 q 570 87 561 136 q 593 62 573 67 q 672 55 603 59 l 679 48 l 679 3 l 672 -4 q 463 0 605 0 q 254 -4 318 0 l 248 2 l 248 48 l 255 55 q 334 62 324 59 q 357 87 354 67 q 366 297 366 136 l 366 682 q 364 871 366 850 l 267 871 q 125 863 146 871 q 111 853 115 859 q 100 810 104 842 q 94 736 96 774 l 87 729 l 45 729 l 37 736 l 36 852 q 28 953 35 901 l 34 960 q 326 953 74 953 l 600 953 q 892 960 832 953 l 899 953 m 569 -212 q 517 -349 569 -296 q 363 -416 464 -406 l 359 -398 q 495 -286 495 -370 q 464 -260 495 -261 q 412 -252 430 -259 q 358 -168 358 -229 q 386 -104 358 -129 q 457 -79 414 -79 q 541 -117 510 -79 q 569 -212 569 -152 z "},"Ť":{"ha":926,"x_min":28,"x_max":899,"o":"m 899 953 q 890 849 890 903 l 888 736 l 882 729 l 839 729 l 831 735 q 824 837 828 822 q 781 869 816 864 q 653 871 767 871 l 562 871 q 561 682 561 847 l 561 297 q 570 87 561 136 q 593 62 573 67 q 672 55 603 59 l 679 48 l 679 3 l 672 -4 q 463 0 605 0 q 254 -4 318 0 l 248 2 l 248 48 l 255 55 q 334 62 324 59 q 357 87 354 67 q 366 297 366 136 l 366 682 q 364 871 366 850 l 267 871 q 125 863 146 871 q 111 853 115 859 q 100 810 104 842 q 94 736 96 774 l 87 729 l 45 729 l 37 736 l 36 852 q 28 953 35 901 l 34 960 q 326 953 74 953 l 600 953 q 892 960 832 953 l 899 953 m 696 1285 l 530 1044 l 397 1044 l 231 1285 l 233 1292 l 286 1292 l 464 1146 l 642 1292 l 694 1292 l 696 1285 z "},"Ţ":{"ha":926,"x_min":28,"x_max":899,"o":"m 899 953 q 890 849 890 903 l 888 736 l 882 729 l 839 729 l 831 735 q 824 837 828 822 q 781 869 816 864 q 653 871 767 871 l 562 871 q 561 682 561 847 l 561 297 q 570 87 561 136 q 593 62 573 67 q 672 55 603 59 l 679 48 l 679 3 l 672 -4 q 463 0 605 0 q 254 -4 318 0 l 248 2 l 248 48 l 255 55 q 334 62 324 59 q 357 87 354 67 q 366 297 366 136 l 366 682 q 364 871 366 850 l 267 871 q 125 863 146 871 q 111 853 115 859 q 100 810 104 842 q 94 736 96 774 l 87 729 l 45 729 l 37 736 l 36 852 q 28 953 35 901 l 34 960 q 326 953 74 953 l 600 953 q 892 960 832 953 l 899 953 m 605 -191 q 556 -279 605 -242 q 426 -317 507 -317 q 299 -294 359 -317 l 296 -283 l 309 -254 l 319 -251 q 390 -266 361 -266 q 452 -248 427 -266 q 479 -194 479 -229 q 461 -154 479 -170 q 418 -139 444 -139 q 381 -142 401 -139 l 374 -136 l 385 -104 q 479 -90 431 -90 q 570 -118 534 -90 q 605 -191 605 -146 z "},"Ŧ":{"ha":926,"x_min":28,"x_max":899,"o":"m 899 953 q 890 849 890 903 l 888 736 l 882 729 l 839 729 l 831 735 q 824 837 828 822 q 781 869 816 864 q 653 871 767 871 l 562 871 q 561 682 561 847 l 561 593 l 830 593 l 841 583 l 841 522 l 830 514 l 561 514 l 561 297 q 570 87 561 136 q 593 62 573 67 q 672 55 603 59 l 679 48 l 679 3 l 672 -4 q 463 0 605 0 q 254 -4 318 0 l 248 2 l 248 48 l 255 55 q 334 62 324 59 q 357 87 354 67 q 366 297 366 136 l 366 514 l 98 514 l 87 522 l 87 583 l 98 593 l 366 593 l 366 682 q 364 871 366 850 l 267 871 q 125 863 146 871 q 111 853 115 859 q 100 810 104 842 q 94 736 96 774 l 87 729 l 45 729 l 37 736 l 36 852 q 28 953 35 901 l 34 960 q 326 953 74 953 l 600 953 q 892 960 832 953 l 899 953 z "},"Ú":{"ha":1080,"x_min":37,"x_max":1044,"o":"m 1044 905 l 1038 898 q 947 855 958 898 q 939 752 942 831 q 937 582 937 693 l 937 373 q 858 85 937 172 q 558 -28 753 -28 q 281 31 380 -28 q 171 173 197 81 q 155 481 155 232 l 155 656 q 146 866 155 817 q 123 891 142 886 q 43 898 113 894 l 37 905 l 37 950 l 43 957 q 252 953 109 953 q 460 957 399 953 l 467 950 l 467 905 l 460 898 q 381 891 391 894 q 358 866 361 886 q 349 656 349 817 l 349 516 q 372 202 349 260 q 600 88 418 88 q 785 146 718 88 q 828 203 816 174 q 847 291 840 231 q 853 404 853 347 l 853 545 q 852 787 853 722 q 844 867 850 848 q 820 888 838 880 q 736 898 804 894 l 730 905 l 730 950 l 736 957 q 858 953 795 953 q 1038 957 905 953 l 1044 950 l 1044 905 m 558 996 m 558 -53 m 783 1272 l 477 1050 l 446 1074 l 446 1084 l 595 1271 l 768 1292 l 783 1272 z "},"Ù":{"ha":1080,"x_min":37,"x_max":1044,"o":"m 1044 905 l 1038 898 q 947 855 958 898 q 939 752 942 831 q 937 582 937 693 l 937 373 q 858 85 937 172 q 558 -28 753 -28 q 281 31 380 -28 q 171 173 197 81 q 155 481 155 232 l 155 656 q 146 866 155 817 q 123 891 142 886 q 43 898 113 894 l 37 905 l 37 950 l 43 957 q 252 953 109 953 q 460 957 399 953 l 467 950 l 467 905 l 460 898 q 381 891 391 894 q 358 866 361 886 q 349 656 349 817 l 349 516 q 372 202 349 260 q 600 88 418 88 q 785 146 718 88 q 828 203 816 174 q 847 291 840 231 q 853 404 853 347 l 853 545 q 852 787 853 722 q 844 867 850 848 q 820 888 838 880 q 736 898 804 894 l 730 905 l 730 950 l 736 957 q 858 953 795 953 q 1038 957 905 953 l 1044 950 l 1044 905 m 558 996 m 558 -53 m 670 1074 l 639 1050 l 333 1272 l 348 1292 l 522 1271 l 670 1084 l 670 1074 z "},"Û":{"ha":1080,"x_min":37,"x_max":1044,"o":"m 1044 905 l 1038 898 q 947 855 958 898 q 939 752 942 831 q 937 582 937 693 l 937 373 q 858 85 937 172 q 558 -28 753 -28 q 281 31 380 -28 q 171 173 197 81 q 155 481 155 232 l 155 656 q 146 866 155 817 q 123 891 142 886 q 43 898 113 894 l 37 905 l 37 950 l 43 957 q 252 953 109 953 q 460 957 399 953 l 467 950 l 467 905 l 460 898 q 381 891 391 894 q 358 866 361 886 q 349 656 349 817 l 349 516 q 372 202 349 260 q 600 88 418 88 q 785 146 718 88 q 828 203 816 174 q 847 291 840 231 q 853 404 853 347 l 853 545 q 852 787 853 722 q 844 867 850 848 q 820 888 838 880 q 736 898 804 894 l 730 905 l 730 950 l 736 957 q 858 953 795 953 q 1038 957 905 953 l 1044 950 l 1044 905 m 558 996 m 558 -53 m 791 1050 l 789 1044 l 736 1044 l 558 1190 l 380 1044 l 328 1044 l 326 1050 l 492 1292 l 625 1292 l 791 1050 m 811 1126 m 558 1264 z "},"Ü":{"ha":1080,"x_min":37,"x_max":1044,"o":"m 1044 905 l 1038 898 q 947 855 958 898 q 939 752 942 831 q 937 582 937 693 l 937 373 q 858 85 937 172 q 558 -28 753 -28 q 281 31 380 -28 q 171 173 197 81 q 155 481 155 232 l 155 656 q 146 866 155 817 q 123 891 142 886 q 43 898 113 894 l 37 905 l 37 950 l 43 957 q 252 953 109 953 q 460 957 399 953 l 467 950 l 467 905 l 460 898 q 381 891 391 894 q 358 866 361 886 q 349 656 349 817 l 349 516 q 372 202 349 260 q 600 88 418 88 q 785 146 718 88 q 828 203 816 174 q 847 291 840 231 q 853 404 853 347 l 853 545 q 852 787 853 722 q 844 867 850 848 q 820 888 838 880 q 736 898 804 894 l 730 905 l 730 950 l 736 957 q 858 953 795 953 q 1038 957 905 953 l 1044 950 l 1044 905 m 558 996 m 558 -53 m 806 1168 q 777 1098 806 1126 q 707 1069 748 1069 q 637 1098 666 1069 q 608 1168 608 1126 q 637 1239 608 1209 q 707 1268 667 1268 q 776 1239 747 1268 q 806 1168 806 1211 m 507 1168 q 478 1098 507 1127 q 409 1069 449 1069 q 339 1098 368 1069 q 311 1168 311 1126 q 340 1239 311 1211 q 409 1268 369 1268 q 478 1239 449 1268 q 507 1168 507 1209 z "},"Ũ":{"ha":1080,"x_min":37,"x_max":1044,"o":"m 1044 905 l 1038 898 q 947 855 958 898 q 939 752 942 831 q 937 582 937 693 l 937 373 q 858 85 937 172 q 558 -28 753 -28 q 281 31 380 -28 q 171 173 197 81 q 155 481 155 232 l 155 656 q 146 866 155 817 q 123 891 142 886 q 43 898 113 894 l 37 905 l 37 950 l 43 957 q 252 953 109 953 q 460 957 399 953 l 467 950 l 467 905 l 460 898 q 381 891 391 894 q 358 866 361 886 q 349 656 349 817 l 349 516 q 372 202 349 260 q 600 88 418 88 q 785 146 718 88 q 828 203 816 174 q 847 291 840 231 q 853 404 853 347 l 853 545 q 852 787 853 722 q 844 867 850 848 q 820 888 838 880 q 736 898 804 894 l 730 905 l 730 950 l 736 957 q 858 953 795 953 q 1038 957 905 953 l 1044 950 l 1044 905 m 558 996 m 558 -53 m 820 1261 q 762 1134 806 1185 q 662 1081 717 1081 q 573 1105 625 1081 q 519 1129 555 1114 q 473 1151 506 1136 q 421 1163 446 1163 q 344 1086 367 1163 l 301 1086 l 296 1093 q 355 1221 311 1169 q 454 1273 399 1273 q 543 1249 492 1273 q 597 1225 562 1240 q 643 1203 610 1218 q 695 1191 670 1191 q 772 1268 749 1191 l 815 1268 l 820 1261 z "},"Ŭ":{"ha":1080,"x_min":37,"x_max":1044,"o":"m 1044 905 l 1038 898 q 947 855 958 898 q 939 752 942 831 q 937 582 937 693 l 937 373 q 858 85 937 172 q 558 -28 753 -28 q 281 31 380 -28 q 171 173 197 81 q 155 481 155 232 l 155 656 q 146 866 155 817 q 123 891 142 886 q 43 898 113 894 l 37 905 l 37 950 l 43 957 q 252 953 109 953 q 460 957 399 953 l 467 950 l 467 905 l 460 898 q 381 891 391 894 q 358 866 361 886 q 349 656 349 817 l 349 516 q 372 202 349 260 q 600 88 418 88 q 785 146 718 88 q 828 203 816 174 q 847 291 840 231 q 853 404 853 347 l 853 545 q 852 787 853 722 q 844 867 850 848 q 820 888 838 880 q 736 898 804 894 l 730 905 l 730 950 l 736 957 q 858 953 795 953 q 1038 957 905 953 l 1044 950 l 1044 905 m 558 996 m 558 -53 m 760 1286 q 559 1060 755 1060 q 357 1286 361 1060 l 363 1293 l 404 1293 q 559 1179 418 1179 q 713 1293 700 1179 l 754 1293 l 760 1286 m 561 1293 z "},"Ů":{"ha":1080,"x_min":37,"x_max":1044,"o":"m 1044 905 l 1038 898 q 947 855 958 898 q 939 752 942 831 q 937 582 937 693 l 937 373 q 858 85 937 172 q 558 -28 753 -28 q 281 31 380 -28 q 171 173 197 81 q 155 481 155 232 l 155 656 q 146 866 155 817 q 123 891 142 886 q 43 898 113 894 l 37 905 l 37 950 l 43 957 q 252 953 109 953 q 460 957 399 953 l 467 950 l 467 905 l 460 898 q 381 891 391 894 q 358 866 361 886 q 349 656 349 817 l 349 516 q 372 202 349 260 q 600 88 418 88 q 785 146 718 88 q 828 203 816 174 q 847 291 840 231 q 853 404 853 347 l 853 545 q 852 787 853 722 q 844 867 850 848 q 820 888 838 880 q 736 898 804 894 l 730 905 l 730 950 l 736 957 q 858 953 795 953 q 1038 957 905 953 l 1044 950 l 1044 905 m 558 996 m 558 -53 m 709 1173 q 665 1074 709 1112 q 558 1035 622 1035 q 451 1074 494 1035 q 408 1173 408 1112 q 451 1271 408 1232 q 558 1309 495 1309 q 665 1270 622 1309 q 709 1173 709 1232 m 635 1173 q 617 1235 635 1209 q 558 1265 596 1265 q 500 1235 520 1265 q 482 1173 482 1209 q 500 1110 482 1136 q 558 1080 520 1080 q 617 1110 596 1080 q 635 1173 635 1136 z "},"Ű":{"ha":1080,"x_min":37,"x_max":1044,"o":"m 1044 905 l 1038 898 q 947 855 958 898 q 939 752 942 831 q 937 582 937 693 l 937 373 q 858 85 937 172 q 558 -28 753 -28 q 281 31 380 -28 q 171 173 197 81 q 155 481 155 232 l 155 656 q 146 866 155 817 q 123 891 142 886 q 43 898 113 894 l 37 905 l 37 950 l 43 957 q 252 953 109 953 q 460 957 399 953 l 467 950 l 467 905 l 460 898 q 381 891 391 894 q 358 866 361 886 q 349 656 349 817 l 349 516 q 372 202 349 260 q 600 88 418 88 q 785 146 718 88 q 828 203 816 174 q 847 291 840 231 q 853 404 853 347 l 853 545 q 852 787 853 722 q 844 867 850 848 q 820 888 838 880 q 736 898 804 894 l 730 905 l 730 950 l 736 957 q 858 953 795 953 q 1038 957 905 953 l 1044 950 l 1044 905 m 558 996 m 558 -53 m 988 1272 l 682 1050 l 651 1074 l 651 1084 l 800 1271 l 973 1292 l 988 1272 m 681 1272 l 375 1050 l 344 1074 l 344 1084 l 492 1271 l 666 1292 l 681 1272 z "},"Ū":{"ha":1080,"x_min":37,"x_max":1044,"o":"m 1044 905 l 1038 898 q 947 855 958 898 q 939 752 942 831 q 937 582 937 693 l 937 373 q 858 85 937 172 q 558 -28 753 -28 q 281 31 380 -28 q 171 173 197 81 q 155 481 155 232 l 155 656 q 146 866 155 817 q 123 891 142 886 q 43 898 113 894 l 37 905 l 37 950 l 43 957 q 252 953 109 953 q 460 957 399 953 l 467 950 l 467 905 l 460 898 q 381 891 391 894 q 358 866 361 886 q 349 656 349 817 l 349 516 q 372 202 349 260 q 600 88 418 88 q 785 146 718 88 q 828 203 816 174 q 847 291 840 231 q 853 404 853 347 l 853 545 q 852 787 853 722 q 844 867 850 848 q 820 888 838 880 q 736 898 804 894 l 730 905 l 730 950 l 736 957 q 858 953 795 953 q 1038 957 905 953 l 1044 950 l 1044 905 m 558 996 m 558 -53 m 798 1111 l 318 1111 l 318 1223 l 798 1223 l 798 1111 z "},"Ų":{"ha":1080,"x_min":37,"x_max":1044,"o":"m 1044 905 l 1038 898 q 947 855 958 898 q 939 752 942 832 q 937 582 937 693 l 937 373 q 858 85 937 172 q 595 -27 764 -17 q 542 -165 542 -90 q 634 -269 542 -269 q 722 -250 675 -269 l 730 -255 l 735 -279 l 732 -288 q 675 -315 708 -304 q 588 -328 633 -328 q 432 -186 432 -328 q 522 -28 432 -94 q 171 173 224 -17 q 155 481 155 231 l 155 656 q 146 866 155 817 q 123 891 142 886 q 43 898 113 894 l 37 905 l 37 950 l 43 957 q 252 953 109 953 q 460 957 399 953 l 467 950 l 467 905 l 460 898 q 381 891 391 894 q 358 866 361 886 q 349 656 349 817 l 349 516 q 372 202 349 259 q 600 88 418 88 q 785 146 718 88 q 828 203 816 174 q 847 291 840 231 q 853 404 853 346 l 853 545 q 852 787 853 722 q 844 867 850 848 q 820 888 838 880 q 736 898 805 894 l 730 905 l 730 950 l 736 957 q 858 953 795 953 q 1038 957 905 953 l 1044 950 l 1044 905 z "},"Ẃ":{"ha":1389,"x_min":31,"x_max":1381,"o":"m 1381 906 l 1374 900 q 1337 898 1342 899 q 1304 883 1315 894 q 1285 848 1293 871 q 1225 648 1269 804 q 1162 412 1202 569 l 1101 177 q 1058 -9 1063 32 l 954 -9 l 920 85 q 761 500 833 317 l 722 597 q 696 667 709 630 l 519 248 q 445 66 492 185 l 415 -9 l 316 -9 l 149 769 q 130 847 136 829 q 91 895 116 890 q 38 901 79 898 l 31 907 l 31 949 l 39 957 q 220 953 159 953 q 435 957 294 953 l 442 950 l 442 907 l 435 901 q 383 898 389 899 q 349 887 357 895 q 341 863 341 880 q 354 778 341 847 l 377 654 q 413 481 387 600 l 453 297 l 538 503 q 616 686 564 564 l 696 880 q 731 969 718 934 l 793 969 q 1051 306 863 774 l 1171 787 q 1185 859 1185 844 q 1153 894 1185 889 q 1080 900 1141 896 l 1074 907 l 1074 949 l 1081 957 q 1217 953 1198 952 l 1374 957 l 1381 950 l 1381 906 m 974 1272 l 668 1050 l 637 1074 l 637 1084 l 785 1271 l 959 1292 l 974 1272 z "},"Ẁ":{"ha":1389,"x_min":31,"x_max":1381,"o":"m 1381 906 l 1374 900 q 1337 898 1342 899 q 1304 883 1315 894 q 1285 848 1293 871 q 1225 648 1269 804 q 1162 412 1202 569 l 1101 177 q 1058 -9 1063 32 l 954 -9 l 920 85 q 761 500 833 317 l 722 597 q 696 667 709 630 l 519 248 q 445 66 492 185 l 415 -9 l 316 -9 l 149 769 q 130 847 136 829 q 91 895 116 890 q 38 901 79 898 l 31 907 l 31 949 l 39 957 q 220 953 159 953 q 435 957 294 953 l 442 950 l 442 907 l 435 901 q 383 898 389 899 q 349 887 357 895 q 341 863 341 880 q 354 778 341 847 l 377 654 q 413 481 387 600 l 453 297 l 538 503 q 616 686 564 564 l 696 880 q 731 969 718 934 l 793 969 q 1051 306 863 774 l 1171 787 q 1185 859 1185 844 q 1153 894 1185 889 q 1080 900 1141 896 l 1074 907 l 1074 949 l 1081 957 q 1217 953 1198 952 l 1374 957 l 1381 950 l 1381 906 m 861 1074 l 829 1050 l 524 1272 l 538 1292 l 712 1271 l 861 1084 l 861 1074 z "},"Ŵ":{"ha":1389,"x_min":31,"x_max":1381,"o":"m 1381 906 l 1374 900 q 1337 898 1342 899 q 1304 883 1315 894 q 1285 848 1293 871 q 1225 648 1269 804 q 1162 412 1202 569 l 1101 177 q 1058 -9 1063 32 l 954 -9 l 920 85 q 761 500 833 317 l 722 597 q 696 667 709 630 l 519 248 q 445 66 492 185 l 415 -9 l 316 -9 l 149 769 q 130 847 136 829 q 91 895 116 890 q 38 901 79 898 l 31 907 l 31 949 l 39 957 q 220 953 159 953 q 435 957 294 953 l 442 950 l 442 907 l 435 901 q 383 898 389 899 q 349 887 357 895 q 341 863 341 880 q 354 778 341 847 l 377 654 q 413 481 387 600 l 453 297 l 538 503 q 616 686 564 564 l 696 880 q 731 969 718 934 l 793 969 q 1051 306 863 774 l 1171 787 q 1185 859 1185 844 q 1153 894 1185 889 q 1080 900 1141 896 l 1074 907 l 1074 949 l 1081 957 q 1217 953 1198 952 l 1374 957 l 1381 950 l 1381 906 m 983 1050 l 981 1044 l 929 1044 l 751 1190 l 572 1044 l 520 1044 l 518 1050 l 684 1292 l 817 1292 l 983 1050 m 1004 1126 m 751 1264 z "},"Ẅ":{"ha":1389,"x_min":31,"x_max":1381,"o":"m 1381 906 l 1374 900 q 1337 898 1342 899 q 1304 883 1315 894 q 1285 848 1293 871 q 1225 648 1269 804 q 1162 412 1202 569 l 1101 177 q 1058 -9 1063 32 l 954 -9 l 920 85 q 761 500 833 317 l 722 597 q 696 667 709 630 l 519 248 q 445 66 492 185 l 415 -9 l 316 -9 l 149 769 q 130 847 136 829 q 91 895 116 890 q 38 901 79 898 l 31 907 l 31 949 l 39 957 q 220 953 159 953 q 435 957 294 953 l 442 950 l 442 907 l 435 901 q 383 898 389 899 q 349 887 357 895 q 341 863 341 880 q 354 778 341 847 l 377 654 q 413 481 387 600 l 453 297 l 538 503 q 616 686 564 564 l 696 880 q 731 969 718 934 l 793 969 q 1051 306 863 774 l 1171 787 q 1185 859 1185 844 q 1153 894 1185 889 q 1080 900 1141 896 l 1074 907 l 1074 949 l 1081 957 q 1217 953 1198 952 l 1374 957 l 1381 950 l 1381 906 m 998 1168 q 969 1098 998 1126 q 899 1069 941 1069 q 830 1098 859 1069 q 801 1168 801 1126 q 830 1239 801 1209 q 899 1268 859 1268 q 969 1239 939 1268 q 998 1168 998 1211 m 700 1168 q 671 1098 700 1127 q 602 1069 642 1069 q 532 1098 560 1069 q 503 1168 503 1126 q 532 1239 503 1211 q 602 1268 562 1268 q 671 1239 642 1268 q 700 1168 700 1209 z "},"Ý":{"ha":926,"x_min":22,"x_max":915,"o":"m 915 925 q 680 568 808 779 q 601 415 608 448 q 597 364 597 397 l 597 297 q 609 76 597 98 q 625 64 614 66 q 708 55 642 59 l 715 48 l 715 3 l 708 -4 q 499 0 641 0 q 290 -4 354 0 l 284 2 l 284 48 l 291 55 q 374 64 357 59 q 390 76 385 66 q 402 297 402 98 l 402 377 q 296 583 402 403 q 123 833 187 767 q 81 869 92 865 q 30 873 70 873 l 22 881 l 22 919 l 29 926 q 241 972 195 959 q 304 928 277 956 q 459 677 362 872 l 548 500 q 701 759 588 564 l 776 894 q 809 956 788 916 l 908 956 l 915 949 l 915 925 m 499 -53 m 499 996 m 731 1272 l 425 1050 l 394 1074 l 394 1084 l 543 1271 l 716 1292 l 731 1272 z "},"Ỳ":{"ha":926,"x_min":22,"x_max":915,"o":"m 915 925 q 680 568 808 779 q 601 415 608 448 q 597 364 597 397 l 597 297 q 609 76 597 98 q 625 64 614 66 q 708 55 642 59 l 715 48 l 715 3 l 708 -4 q 499 0 641 0 q 290 -4 354 0 l 284 2 l 284 48 l 291 55 q 374 64 357 59 q 390 76 385 66 q 402 297 402 98 l 402 377 q 296 583 402 403 q 123 833 187 767 q 81 869 92 865 q 30 873 70 873 l 22 881 l 22 919 l 29 926 q 241 972 195 959 q 304 928 277 956 q 459 677 362 872 l 548 500 q 701 759 588 564 l 776 894 q 809 956 788 916 l 908 956 l 915 949 l 915 925 m 499 -53 m 499 996 m 618 1074 l 587 1050 l 281 1272 l 296 1292 l 469 1271 l 618 1084 l 618 1074 z "},"Ŷ":{"ha":926,"x_min":22,"x_max":915,"o":"m 915 925 q 680 568 808 779 q 601 415 608 448 q 597 364 597 397 l 597 297 q 609 76 597 98 q 625 64 614 66 q 708 55 642 59 l 715 48 l 715 3 l 708 -4 q 499 0 641 0 q 290 -4 354 0 l 284 2 l 284 48 l 291 55 q 374 64 357 59 q 390 76 385 66 q 402 297 402 98 l 402 377 q 296 583 402 403 q 123 833 187 767 q 81 869 92 865 q 30 873 70 873 l 22 881 l 22 919 l 29 926 q 241 972 195 959 q 304 928 277 956 q 459 677 362 872 l 548 500 q 701 759 588 564 l 776 894 q 809 956 788 916 l 908 956 l 915 949 l 915 925 m 499 -53 m 499 996 m 739 1050 l 736 1044 l 684 1044 l 506 1190 l 328 1044 l 275 1044 l 273 1050 l 439 1292 l 572 1292 l 739 1050 m 759 1126 m 506 1264 z "},"Ÿ":{"ha":926,"x_min":22,"x_max":915,"o":"m 915 925 q 680 568 808 779 q 601 415 608 448 q 597 364 597 397 l 597 297 q 609 76 597 98 q 625 64 614 66 q 708 55 642 59 l 715 48 l 715 3 l 708 -4 q 499 0 641 0 q 290 -4 354 0 l 284 2 l 284 48 l 291 55 q 374 64 357 59 q 390 76 385 66 q 402 297 402 98 l 402 377 q 296 583 402 403 q 123 833 187 767 q 81 869 92 865 q 30 873 70 873 l 22 881 l 22 919 l 29 926 q 241 972 195 959 q 304 928 277 956 q 459 677 362 872 l 548 500 q 701 759 588 564 l 776 894 q 809 956 788 916 l 908 956 l 915 949 l 915 925 m 499 -53 m 499 996 m 753 1168 q 725 1098 753 1126 q 654 1069 696 1069 q 585 1098 614 1069 q 556 1168 556 1126 q 585 1239 556 1209 q 654 1268 614 1268 q 724 1239 694 1268 q 753 1168 753 1211 m 455 1168 q 426 1098 455 1127 q 357 1069 397 1069 q 287 1098 315 1069 q 258 1168 258 1126 q 288 1239 258 1211 q 357 1268 317 1268 q 426 1239 397 1268 q 455 1168 455 1209 z "},"Ź":{"ha":926,"x_min":35,"x_max":869,"o":"m 869 235 q 847 2 854 112 l 840 -4 q 417 1 562 1 q 42 -4 311 1 l 35 2 l 35 50 q 189 259 85 113 l 288 400 l 414 587 q 603 872 477 679 l 433 871 q 205 862 235 871 q 181 835 188 857 q 170 772 178 826 l 164 738 l 157 731 l 115 731 l 109 739 q 113 869 113 811 q 112 950 113 887 l 119 957 q 530 953 211 953 q 857 957 605 953 l 864 950 l 864 909 l 808 831 q 658 618 721 711 l 457 324 q 299 81 423 275 q 408 80 335 80 q 774 99 752 80 q 806 203 787 109 q 813 236 810 223 l 821 243 l 861 243 l 869 235 m 717 1272 l 411 1050 l 380 1074 l 380 1084 l 528 1271 l 702 1292 l 717 1272 z "},"Ž":{"ha":926,"x_min":35,"x_max":869,"o":"m 869 235 q 847 2 854 112 l 840 -4 q 417 1 562 1 q 42 -4 311 1 l 35 2 l 35 50 q 189 259 85 113 l 288 400 l 414 587 q 603 872 477 679 l 433 871 q 205 862 235 871 q 181 835 188 857 q 170 772 178 826 l 164 738 l 157 731 l 115 731 l 109 739 q 113 869 113 811 q 112 950 113 887 l 119 957 q 530 953 211 953 q 857 957 605 953 l 864 950 l 864 909 l 808 831 q 658 618 721 711 l 457 324 q 299 81 423 275 q 408 80 335 80 q 774 99 752 80 q 806 203 787 109 q 813 236 810 223 l 821 243 l 861 243 l 869 235 m 718 1285 l 551 1044 l 418 1044 l 252 1285 l 254 1292 l 307 1292 l 485 1146 l 663 1292 l 715 1292 l 718 1285 z "},"Ż":{"ha":926,"x_min":35,"x_max":869,"o":"m 869 235 q 847 2 854 112 l 840 -4 q 417 1 562 1 q 42 -4 311 1 l 35 2 l 35 50 q 189 259 85 113 l 288 400 l 414 587 q 603 872 477 679 l 433 871 q 205 862 235 871 q 181 835 188 857 q 170 772 178 826 l 164 738 l 157 731 l 115 731 l 109 739 q 113 869 113 811 q 112 950 113 887 l 119 957 q 530 953 211 953 q 857 957 605 953 l 864 950 l 864 909 l 808 831 q 658 618 721 711 l 457 324 q 299 81 423 275 q 408 80 335 80 q 774 99 752 80 q 806 203 787 109 q 813 236 810 223 l 821 243 l 861 243 l 869 235 m 584 1168 q 555 1098 584 1126 q 485 1069 526 1069 q 415 1098 444 1069 q 387 1168 387 1126 q 416 1239 387 1209 q 485 1268 445 1268 q 554 1239 525 1268 q 584 1168 584 1211 z "},"Ʒ":{"ha":770,"x_min":61,"x_max":707,"o":"m 706 349 q 581 92 705 198 q 273 -30 437 -31 q 102 14 191 -29 q 86 111 96 48 q 61 210 81 136 l 65 220 l 98 234 l 110 228 q 325 42 178 43 q 477 114 425 41 q 524 263 524 178 q 458 425 525 372 q 332 469 403 469 q 292 465 309 469 l 274 495 q 378 625 311 539 q 492 789 412 669 q 319 785 384 785 q 230 784 238 785 q 186 764 201 779 q 150 688 175 751 l 137 680 l 106 681 l 98 689 l 136 823 q 168 966 143 849 q 404 953 245 960 q 700 967 570 951 l 706 927 q 546 743 641 854 q 397 556 518 708 q 491 566 461 568 q 633 512 581 559 q 706 349 707 446 z "},"Ŋ":{"ha":1157,"x_min":60,"x_max":1112,"o":"m 1112 905 l 1105 898 q 1025 891 1036 894 q 1002 866 1006 886 q 994 656 994 817 l 994 -83 q 819 -328 994 -328 q 743 -306 781 -328 l 738 -296 l 767 -206 l 775 -202 q 833 -219 802 -219 q 954 -67 954 -219 l 954 -16 q 878 -4 930 -12 q 257 741 696 200 l 257 297 q 266 87 257 136 q 289 62 269 67 q 368 55 299 59 l 375 48 l 375 2 l 368 -4 q 223 0 290 0 q 66 -4 145 0 l 60 2 l 60 48 l 66 55 q 146 62 136 59 q 169 87 165 67 q 178 297 178 136 l 178 656 q 169 866 178 817 q 146 891 165 886 q 66 898 136 894 l 60 905 l 60 951 l 66 957 q 189 953 131 953 q 341 957 281 953 q 915 259 585 631 l 915 656 q 906 866 915 817 q 883 891 903 886 q 804 898 873 894 l 797 905 l 797 951 l 804 957 q 948 953 880 953 q 1105 957 1036 953 l 1112 951 l 1112 905 z "},"Þ":{"ha":848,"x_min":55,"x_max":795,"o":"m 795 560 q 657 300 795 385 q 517 258 589 258 q 430 268 490 258 l 408 318 l 421 332 q 479 322 454 322 q 573 371 551 322 q 595 487 595 420 q 564 652 595 604 q 456 700 532 700 q 368 686 410 700 l 368 297 q 376 87 368 136 q 399 62 380 67 q 492 55 406 60 l 501 48 l 501 3 l 494 -4 q 271 0 399 0 q 62 -4 125 0 l 55 2 l 55 48 l 62 55 q 141 62 131 59 q 164 87 161 67 q 173 297 173 136 l 173 656 q 164 866 173 817 q 141 891 161 886 q 62 898 131 894 l 55 905 l 55 951 l 62 957 q 271 953 127 953 q 479 957 418 953 l 486 951 l 486 904 l 479 898 q 399 891 410 894 q 376 866 380 886 q 370 772 370 832 l 385 771 q 491 768 414 770 q 716 730 659 766 q 795 560 795 680 z "},"a":{"ha":694,"x_min":54,"x_max":663,"o":"m 663 4 l 655 -3 q 524 0 598 0 q 414 -3 467 0 l 408 4 l 414 95 l 282 -5 q 237 -20 267 -17 q 210 -21 226 -21 q 95 24 135 -21 q 54 150 54 70 q 121 300 54 256 q 414 387 194 348 q 357 531 414 494 q 274 553 322 553 q 191 532 221 553 l 165 469 l 156 464 l 121 472 l 117 481 l 120 562 q 288 655 232 644 q 350 660 312 660 q 541 590 484 660 q 582 434 582 539 q 580 351 582 408 q 576 224 576 256 q 580 94 576 122 q 596 58 583 66 q 656 50 608 51 l 663 42 l 663 4 m 414 162 l 414 329 q 263 276 302 304 q 224 191 224 248 q 304 98 224 98 q 414 162 373 98 m 359 690 m 359 -53 z "},"b":{"ha":848,"x_min":22,"x_max":777,"o":"m 777 390 q 718 178 777 267 q 673 123 693 139 q 587 62 652 108 q 510 7 572 52 q 436 -24 477 -16 q 378 -30 410 -30 q 208 26 298 -30 l 145 -24 l 115 -14 q 127 362 127 202 l 127 629 q 124 793 127 664 q 121 857 123 829 q 85 899 117 892 q 28 902 77 900 l 22 909 l 22 947 l 28 954 q 291 1010 158 968 l 306 1002 q 297 610 297 749 l 297 538 l 379 606 q 519 657 440 657 q 747 527 684 657 q 777 390 777 465 m 602 314 q 556 473 602 414 q 433 533 511 533 q 347 509 389 533 q 297 464 313 490 l 297 144 q 437 68 348 68 q 561 138 517 68 q 602 314 602 203 z "},"c":{"ha":616,"x_min":61,"x_max":584,"o":"m 584 85 l 554 18 q 372 -30 462 -30 q 141 57 221 -30 q 61 295 61 144 q 123 507 61 435 q 187 561 140 528 q 318 644 285 630 q 418 657 351 657 q 571 629 511 657 l 578 617 q 568 554 577 608 l 561 508 q 555 417 559 496 l 548 410 l 507 410 l 500 417 q 491 501 496 477 q 376 554 461 554 q 233 368 233 554 q 290 154 233 232 q 456 73 349 73 q 571 101 522 73 l 584 85 z "},"d":{"ha":848,"x_min":74,"x_max":814,"o":"m 814 2 l 807 -5 q 687 0 741 0 q 549 -5 636 0 l 543 0 q 546 111 546 33 q 476 49 522 91 q 403 -14 420 -3 q 332 -24 381 -24 q 145 64 216 -24 q 74 290 74 151 q 129 500 74 425 q 213 570 143 520 q 332 644 294 629 q 414 658 364 658 q 546 628 485 658 l 546 666 q 537 876 546 844 q 509 898 532 894 q 447 902 498 900 l 440 909 l 440 947 l 447 954 q 709 1010 577 968 l 724 1002 q 722 935 724 1000 q 715 497 715 789 l 715 278 q 724 68 715 87 q 739 54 730 57 q 807 45 754 50 l 814 39 l 814 2 m 546 356 l 546 484 q 452 558 497 542 q 387 569 422 569 q 267 473 294 569 q 252 353 252 419 q 317 145 252 213 q 410 109 352 109 q 500 140 458 109 q 544 198 537 167 q 546 356 546 208 z "},"e":{"ha":694,"x_min":63,"x_max":646,"o":"m 646 380 q 645 346 646 369 l 637 336 q 400 312 548 312 q 320 311 374 312 q 239 310 267 310 q 301 145 243 210 q 458 75 361 75 q 613 120 524 75 l 629 100 l 600 33 q 385 -30 500 -30 q 148 56 232 -30 q 63 302 63 142 q 153 561 63 491 q 390 657 278 657 q 578 587 511 657 q 646 380 646 515 m 469 398 q 355 581 469 581 q 235 399 235 581 l 235 385 q 374 378 274 378 q 468 385 427 378 q 469 398 469 394 m 387 -53 m 387 690 z "},"f":{"ha":541,"x_min":54,"x_max":529,"o":"m 529 1004 l 526 932 l 528 864 l 507 852 q 424 886 474 886 q 336 825 345 886 q 331 703 331 795 l 331 608 l 393 608 q 512 614 439 608 l 522 606 l 506 529 l 499 522 l 402 523 q 331 522 351 523 l 331 401 q 340 73 331 94 q 359 57 346 60 q 452 50 379 52 l 459 43 l 459 2 l 452 -5 l 402 -3 q 246 0 330 0 q 61 -5 125 0 l 54 2 l 54 43 l 61 50 q 142 60 126 52 q 157 93 155 66 q 161 401 161 181 l 161 522 q 143 523 146 523 q 104 521 136 523 q 61 519 88 520 l 54 526 l 54 547 l 60 556 l 121 587 q 158 607 138 595 q 161 619 161 611 l 161 629 q 175 772 161 734 q 203 818 182 792 q 292 903 210 825 l 334 943 q 380 987 352 962 q 471 1014 418 1014 q 529 1004 500 1014 z "},"g":{"ha":772,"x_min":53,"x_max":758,"o":"m 758 -47 q 647 -283 758 -195 q 357 -372 536 -372 q 135 -319 216 -372 q 53 -178 53 -267 q 79 -87 53 -118 q 151 -43 82 -84 q 200 -15 184 -23 q 106 75 106 1 q 134 155 106 115 q 170 182 136 158 q 228 224 186 194 q 81 420 81 277 q 164 598 81 530 q 385 665 247 665 q 593 606 517 665 q 648 605 635 604 q 748 608 681 606 l 756 601 l 749 531 l 741 524 l 641 524 q 650 458 650 492 q 493 237 650 296 q 354 211 422 211 q 294 214 331 211 q 252 154 252 191 q 301 115 252 119 q 396 112 330 112 q 469 114 417 112 q 547 116 522 116 q 737 48 700 116 q 758 -47 758 12 m 479 427 q 364 598 479 598 q 252 450 252 598 q 369 275 252 275 q 479 427 479 275 m 602 -124 q 551 -31 602 -50 q 464 -22 529 -23 l 335 -21 q 275 -22 313 -21 q 182 -155 182 -80 q 237 -262 182 -223 q 385 -301 292 -301 q 543 -253 484 -301 q 602 -124 602 -205 z "},"h":{"ha":848,"x_min":30,"x_max":819,"o":"m 819 3 l 812 -5 q 686 0 738 0 q 548 -5 639 0 l 541 2 q 553 235 553 153 l 553 368 q 434 534 553 534 q 335 490 370 534 q 307 399 307 454 l 307 319 q 311 93 307 181 q 326 60 313 66 q 407 50 342 52 l 414 43 l 414 2 l 408 -5 q 222 0 343 0 q 37 -5 100 0 l 30 2 l 30 43 l 37 50 q 117 60 102 52 q 132 93 131 66 q 137 401 137 181 l 137 629 q 132 859 137 771 q 117 892 131 884 q 39 902 104 900 l 32 909 l 32 947 l 39 954 q 301 1010 170 968 l 315 1002 q 313 935 315 984 q 307 576 307 773 l 307 538 l 426 639 q 524 657 471 657 q 686 592 632 657 q 729 437 729 539 q 726 354 729 425 q 724 224 724 283 q 727 94 724 122 q 743 58 730 66 q 813 50 755 51 l 819 43 l 819 3 z "},"i":{"ha":463,"x_min":39,"x_max":424,"o":"m 330 887 q 300 813 330 844 q 227 782 269 782 q 153 813 183 782 q 122 887 122 844 q 153 962 122 932 q 227 993 184 993 q 299 962 269 993 q 330 887 330 932 m 424 2 l 417 -5 q 231 0 353 0 q 46 -5 110 0 l 39 2 l 39 43 l 46 50 q 127 60 111 52 q 142 93 140 66 q 146 282 146 181 l 146 379 q 136 535 146 511 q 107 552 131 549 q 48 555 99 553 l 41 562 l 41 600 l 48 608 q 311 664 178 619 l 325 655 q 316 447 316 532 l 316 231 q 321 93 316 181 q 336 60 322 66 q 416 50 351 52 l 424 43 l 424 2 m 231 -53 z "},"j":{"ha":463,"x_min":3,"x_max":328,"o":"m 328 887 q 297 813 328 844 q 224 782 267 782 q 150 813 180 782 q 119 887 119 844 q 150 962 119 930 q 224 993 181 993 q 297 962 266 993 q 328 887 328 932 m 323 655 q 314 447 314 612 l 314 332 l 315 132 q 277 -191 317 -90 q 125 -361 224 -324 q 44 -376 84 -376 q 18 -374 33 -376 l 3 -325 l 10 -315 q 31 -317 22 -317 q 124 -245 102 -317 q 144 101 144 -178 l 144 379 q 136 530 144 500 q 109 551 131 547 q 45 555 98 553 l 39 562 l 39 600 l 45 608 q 308 664 175 619 l 323 655 z "},"k":{"ha":848,"x_min":39,"x_max":834,"o":"m 834 2 l 827 -5 q 717 -2 782 -2 q 597 -5 656 -2 q 414 225 559 64 q 316 325 337 310 l 321 93 q 336 60 322 66 q 416 50 351 52 l 424 43 l 424 2 l 417 -5 q 231 0 353 0 q 46 -5 110 0 l 39 2 l 39 43 l 46 50 q 127 60 111 52 q 142 93 140 66 q 146 401 146 181 l 146 629 q 142 859 146 771 q 127 892 140 884 q 48 902 113 900 l 41 909 l 41 947 l 48 954 q 311 1010 179 968 l 325 1002 q 323 935 325 984 q 316 576 316 773 l 316 355 l 383 410 q 507 530 427 446 l 577 604 q 608 641 597 625 q 702 639 666 639 q 784 641 747 639 l 791 634 l 791 593 l 784 587 l 734 584 q 673 560 705 583 q 621 519 661 551 l 564 473 l 544 454 l 486 402 l 631 233 q 798 58 770 71 q 827 51 812 51 l 834 43 l 834 2 z "},"l":{"ha":463,"x_min":39,"x_max":424,"o":"m 424 2 l 417 -5 q 231 0 353 0 q 46 -5 110 0 l 39 2 l 39 43 l 46 50 q 127 60 111 52 q 142 93 140 66 q 146 401 146 181 l 146 629 q 142 859 146 771 q 127 892 140 884 q 48 902 113 900 l 41 909 l 41 947 l 48 954 q 311 1010 179 968 l 325 1002 q 323 935 325 984 q 316 576 316 773 l 316 401 q 321 93 316 181 q 336 60 322 66 q 416 50 351 52 l 424 43 l 424 2 z "},"m":{"ha":1235,"x_min":33,"x_max":1204,"o":"m 1204 3 l 1197 -4 q 1057 0 1158 0 q 939 -4 974 0 l 929 9 q 940 255 940 178 l 940 317 q 934 450 940 416 q 900 515 926 491 q 828 540 873 540 q 743 511 777 540 q 709 439 709 483 l 709 237 l 712 130 q 720 73 713 86 q 738 60 724 64 q 804 51 750 56 l 811 44 l 811 3 l 803 -4 q 637 0 721 0 q 458 -4 532 0 l 450 3 l 450 43 l 457 52 q 516 59 500 56 q 534 79 528 62 q 538 155 538 92 l 540 374 q 528 482 540 450 q 492 525 519 508 q 430 541 469 541 q 333 500 369 541 q 313 469 316 481 q 310 418 310 458 l 310 271 q 313 159 310 228 q 318 76 315 87 q 341 57 322 62 q 397 51 359 52 l 404 44 l 404 3 l 397 -4 q 225 0 340 0 q 40 -5 104 0 l 33 2 l 33 43 l 40 50 q 121 60 105 52 q 136 93 134 66 q 140 282 140 181 l 140 379 q 130 535 140 515 q 101 552 123 549 q 42 555 93 553 l 35 562 l 35 600 l 42 608 q 299 664 164 619 l 314 655 l 313 547 l 433 645 q 512 660 467 660 q 633 634 590 660 q 703 545 677 609 l 827 645 q 907 661 860 661 q 1089 566 1038 661 q 1112 437 1112 524 q 1111 383 1112 401 l 1110 357 q 1109 314 1109 325 l 1109 226 q 1112 95 1109 123 q 1128 60 1116 67 q 1197 51 1140 52 l 1204 43 l 1204 3 z "},"n":{"ha":848,"x_min":30,"x_max":819,"o":"m 819 3 l 812 -5 q 686 0 738 0 q 548 -5 639 0 l 541 2 q 553 235 553 153 l 553 368 q 434 534 553 534 q 336 491 372 534 q 307 418 307 455 l 307 292 q 315 76 307 116 q 394 51 321 52 l 401 44 l 401 3 l 394 -4 q 222 0 336 0 q 37 -5 100 0 l 30 2 l 30 43 l 37 50 q 117 60 102 52 q 132 93 131 66 q 137 282 137 181 l 137 379 q 127 535 137 515 q 98 552 120 549 q 39 555 90 553 l 32 562 l 32 600 l 39 608 q 296 664 161 619 l 311 655 l 309 541 l 426 639 q 524 657 471 657 q 686 592 632 657 q 729 437 729 539 q 726 342 729 425 q 724 224 724 260 q 727 94 724 122 q 743 58 730 66 q 813 50 755 51 l 819 43 l 819 3 z "},"o":{"ha":772,"x_min":56,"x_max":717,"o":"m 717 336 q 555 12 717 96 q 376 -30 477 -30 q 138 60 220 -30 q 56 319 56 151 q 215 629 56 551 q 396 667 293 667 q 683 517 612 667 q 717 336 717 445 m 529 281 q 492 523 529 450 q 379 595 455 595 q 244 352 244 595 q 395 39 244 39 q 515 143 490 39 q 529 281 529 197 m 393 -53 m 393 690 z "},"p":{"ha":848,"x_min":32,"x_max":784,"o":"m 784 393 q 754 234 784 310 q 697 140 732 178 q 639 91 682 123 q 527 4 594 55 q 425 -22 487 -22 q 307 -1 366 -22 l 307 -255 q 315 -296 307 -286 q 333 -305 319 -302 q 420 -313 344 -308 l 427 -320 l 427 -362 l 420 -369 q 212 -363 329 -363 q 41 -369 127 -363 l 35 -362 l 35 -321 l 41 -314 q 120 -303 110 -312 q 128 -290 127 -297 q 134 -224 131 -277 q 136 -120 136 -183 l 138 -15 l 138 379 q 134 479 138 386 q 126 536 132 524 q 98 552 121 549 q 39 555 90 553 l 32 562 l 32 600 l 39 608 q 301 664 168 619 l 316 655 q 310 538 316 626 q 425 632 355 576 q 527 657 458 657 q 756 528 695 657 q 784 393 784 469 m 610 310 q 532 509 610 458 q 446 536 490 536 q 307 468 362 536 l 307 132 q 443 66 369 66 q 591 181 553 66 q 610 310 610 239 z "},"q":{"ha":848,"x_min":73,"x_max":816,"o":"m 816 -362 l 809 -369 q 638 -363 708 -363 q 430 -369 565 -363 l 423 -362 l 423 -320 l 431 -313 q 536 -296 523 -307 q 543 -255 543 -290 l 543 99 q 402 -16 444 21 q 334 -30 375 -30 q 147 50 216 -30 q 73 284 73 133 q 130 498 73 422 q 216 568 149 523 q 352 642 290 616 q 435 657 391 657 q 635 598 529 657 l 705 656 l 736 642 l 725 572 q 716 454 720 536 q 713 288 713 378 l 713 -15 q 715 -224 713 -165 q 729 -303 719 -294 q 744 -311 735 -309 q 809 -314 753 -313 l 816 -321 l 816 -362 m 543 180 l 543 492 q 393 570 486 570 q 247 340 247 570 q 285 171 247 237 q 406 100 326 100 q 543 180 492 100 z "},"r":{"ha":541,"x_min":34,"x_max":539,"o":"m 539 655 l 534 534 q 532 467 534 505 l 503 458 q 415 504 471 504 q 331 463 364 504 q 311 389 311 438 l 311 231 q 315 93 311 181 q 330 60 317 68 q 424 50 342 53 l 431 44 l 431 3 l 424 -4 q 226 0 324 0 q 41 -5 104 0 l 34 2 l 34 43 l 41 50 q 121 60 106 52 q 136 93 135 66 q 141 282 141 181 l 141 379 q 131 535 141 515 q 102 552 124 549 q 43 555 94 553 l 36 562 l 36 600 l 43 608 q 300 664 165 619 l 315 655 l 313 522 q 415 636 355 571 q 491 663 443 663 q 539 655 519 663 z "},"s":{"ha":616,"x_min":62,"x_max":569,"o":"m 569 213 q 487 37 569 104 q 271 -30 404 -30 q 69 11 177 -30 l 62 21 q 69 118 68 83 l 73 203 l 79 211 l 119 211 l 127 203 q 134 114 130 127 q 285 40 191 40 q 380 69 345 40 q 416 147 416 98 q 362 229 416 209 q 271 252 339 238 q 121 307 159 276 q 63 443 63 353 q 134 601 63 541 q 336 663 209 663 q 517 627 445 663 l 523 616 q 511 459 515 585 l 504 452 l 465 452 l 458 459 q 448 538 455 508 q 324 593 406 593 q 237 567 271 593 q 203 499 203 541 q 261 424 203 443 q 361 401 287 416 q 512 349 475 378 q 569 213 569 304 z "},"t":{"ha":463,"x_min":31,"x_max":452,"o":"m 452 89 q 422 60 447 83 q 354 -9 382 22 q 287 -20 321 -20 q 149 35 193 -20 q 125 90 131 59 q 119 188 118 127 l 121 350 l 121 519 l 102 519 l 66 518 l 39 518 l 31 524 l 31 542 l 37 552 q 75 576 49 560 q 121 608 105 595 l 121 701 q 115 823 121 758 q 198 851 166 839 q 287 892 229 864 l 304 879 q 293 728 296 795 l 287 611 l 309 611 q 437 616 383 611 l 444 608 l 435 529 l 428 522 l 287 522 l 287 292 q 290 162 287 182 q 314 116 293 134 q 370 98 334 98 q 437 113 397 98 l 452 89 z "},"u":{"ha":848,"x_min":29,"x_max":814,"o":"m 814 3 l 808 -3 q 680 0 706 0 q 613 -2 657 0 q 547 -3 569 -3 l 542 2 q 547 108 547 58 q 424 -5 512 81 q 330 -22 380 -22 q 185 28 238 -22 q 132 172 132 78 q 134 220 132 183 q 135 292 135 258 l 135 379 q 125 535 135 513 q 96 552 118 549 q 36 555 87 553 l 29 562 l 29 600 l 36 608 q 298 664 165 619 l 313 655 q 304 447 304 543 l 304 315 q 311 188 304 222 q 343 126 317 147 q 411 105 368 105 q 504 139 464 105 q 544 216 542 173 q 545 258 545 250 l 545 379 q 535 535 545 512 q 507 552 529 549 q 447 555 498 553 l 439 562 l 439 600 l 447 608 q 709 664 576 619 l 724 655 q 715 447 715 553 l 715 234 q 723 72 715 91 q 736 60 727 62 q 807 52 753 55 l 814 45 l 814 3 m 421 690 m 421 -53 z "},"v":{"ha":772,"x_min":17,"x_max":758,"o":"m 758 592 l 751 585 q 697 574 710 582 q 674 545 688 569 q 623 435 661 520 l 494 134 q 435 -12 487 118 l 317 -12 q 234 208 279 96 q 113 514 163 386 q 64 581 90 571 q 24 587 50 586 l 17 594 l 17 633 l 24 640 q 205 638 87 638 q 369 640 310 638 l 376 633 l 376 593 l 369 586 q 304 580 319 585 q 289 562 289 575 q 372 323 289 543 q 430 176 416 205 q 513 375 473 277 q 577 562 577 534 q 563 580 577 576 q 496 587 549 585 l 489 593 l 489 633 l 496 640 q 620 638 549 638 q 751 640 696 638 l 758 633 l 758 592 z "},"w":{"ha":1157,"x_min":22,"x_max":1139,"o":"m 1139 593 l 1131 586 q 1080 580 1091 585 q 1062 565 1069 576 q 1033 496 1054 553 q 983 355 1008 429 l 905 119 q 884 53 895 90 l 866 -12 l 755 -12 l 681 170 l 572 422 q 405 45 478 226 l 382 -12 l 272 -12 q 260 40 270 -6 q 243 106 254 66 l 143 461 q 112 560 121 540 q 94 579 105 574 q 28 586 83 584 l 22 593 l 22 633 l 29 640 q 204 638 82 638 q 390 640 329 638 l 397 633 l 397 593 l 390 587 q 319 582 337 587 q 302 562 302 577 q 309 522 302 547 l 391 209 l 553 571 q 590 657 570 612 l 659 657 l 851 209 l 918 411 q 955 557 955 524 q 943 578 955 574 q 867 586 932 583 l 860 593 l 860 633 l 868 640 q 1009 638 919 638 q 1131 640 1076 638 l 1139 633 l 1139 593 z "},"x":{"ha":694,"x_min":30,"x_max":669,"o":"m 669 5 l 663 -1 q 560 0 628 0 q 456 -1 472 0 q 414 64 444 15 q 370 138 399 89 l 317 231 q 157 -1 231 117 q 98 0 135 0 q 38 -1 53 0 l 30 6 l 30 45 l 37 53 q 88 62 75 54 q 148 127 102 71 q 279 294 197 187 l 190 443 q 136 529 151 508 q 107 561 120 553 q 75 568 94 568 q 47 566 69 568 l 37 572 l 30 608 l 36 618 q 231 661 151 640 q 389 434 283 623 q 502 592 439 499 l 538 646 q 608 644 579 644 q 661 646 635 644 l 669 637 l 669 599 l 663 592 q 614 583 627 589 q 568 538 602 576 q 487 442 546 514 l 429 372 l 526 199 q 615 64 595 76 q 663 53 624 58 l 669 45 l 669 5 z "},"y":{"ha":772,"x_min":17,"x_max":758,"o":"m 758 592 l 751 586 q 690 560 707 586 q 642 460 682 545 q 495 123 553 267 l 386 -147 q 277 -326 335 -273 q 142 -375 222 -375 q 45 -351 92 -375 q 69 -216 57 -303 l 87 -213 q 182 -263 122 -263 q 313 -124 254 -263 l 341 -59 l 121 512 q 86 573 102 562 q 24 586 71 585 l 17 593 l 17 633 l 24 640 q 191 638 68 638 q 376 640 304 638 l 382 633 l 382 593 l 376 586 q 298 558 298 586 q 305 528 298 546 q 338 435 316 497 l 437 174 l 497 317 q 585 562 585 526 q 506 586 585 586 l 499 593 l 499 633 l 507 640 q 640 638 546 638 q 750 640 692 638 l 758 633 l 758 592 m 550 -53 m 393 690 z "},"z":{"ha":694,"x_min":24,"x_max":643,"o":"m 643 209 q 628 0 628 70 l 623 -5 q 300 1 406 1 q 31 -5 216 1 l 24 2 l 24 41 q 401 564 94 118 l 322 564 q 153 551 168 564 q 141 517 145 544 q 132 463 140 506 l 131 453 l 123 446 l 83 446 l 76 453 q 81 594 81 574 q 81 635 81 615 l 87 642 q 155 639 109 640 q 321 637 169 638 l 419 636 q 622 641 464 636 l 629 633 l 629 592 l 506 426 q 399 277 461 365 l 309 147 q 259 73 274 96 l 332 71 q 465 75 372 71 q 556 86 547 78 q 587 209 566 94 l 595 216 l 635 216 l 643 209 z "},"á":{"ha":694,"x_min":54,"x_max":663,"o":"m 663 4 l 655 -3 q 524 0 598 0 q 414 -3 467 0 l 408 4 l 414 95 l 282 -5 q 237 -20 267 -17 q 210 -21 226 -21 q 95 24 135 -21 q 54 150 54 70 q 121 300 54 256 q 414 387 194 348 q 357 531 414 494 q 274 553 322 553 q 191 532 221 553 l 165 469 l 156 464 l 121 472 l 117 481 l 120 562 q 288 655 232 644 q 350 660 312 660 q 541 590 484 660 q 582 434 582 539 q 580 351 582 408 q 576 224 576 256 q 580 94 576 122 q 596 58 583 66 q 656 50 608 51 l 663 42 l 663 4 m 414 162 l 414 329 q 263 276 302 304 q 224 191 224 248 q 304 98 224 98 q 414 162 373 98 m 359 690 m 359 -53 m 533 1000 l 311 739 l 273 759 l 273 768 l 368 999 l 516 1019 l 533 1000 z "},"à":{"ha":694,"x_min":54,"x_max":663,"o":"m 663 4 l 655 -3 q 524 0 598 0 q 414 -3 467 0 l 408 4 l 414 95 l 282 -5 q 237 -20 267 -17 q 210 -21 226 -21 q 95 24 135 -21 q 54 150 54 70 q 121 300 54 256 q 414 387 194 348 q 357 531 414 494 q 274 553 322 553 q 191 532 221 553 l 165 469 l 156 464 l 121 472 l 117 481 l 120 562 q 288 655 232 644 q 350 660 312 660 q 541 590 484 660 q 582 434 582 539 q 580 351 582 408 q 576 224 576 256 q 580 94 576 122 q 596 58 583 66 q 656 50 608 51 l 663 42 l 663 4 m 414 162 l 414 329 q 263 276 302 304 q 224 191 224 248 q 304 98 224 98 q 414 162 373 98 m 359 690 m 359 -53 m 446 759 l 408 739 l 186 1000 l 203 1019 l 351 999 l 446 768 l 446 759 z "},"â":{"ha":694,"x_min":54,"x_max":663,"o":"m 663 4 l 655 -3 q 524 0 598 0 q 414 -3 467 0 l 408 4 l 414 95 l 282 -5 q 237 -20 267 -17 q 210 -21 226 -21 q 95 24 135 -21 q 54 150 54 70 q 121 300 54 256 q 414 387 194 348 q 357 531 414 494 q 274 553 322 553 q 191 532 221 553 l 165 469 l 156 464 l 121 472 l 117 481 l 120 562 q 288 655 232 644 q 350 660 312 660 q 541 590 484 660 q 582 434 582 539 q 580 351 582 408 q 576 224 576 256 q 580 94 576 122 q 596 58 583 66 q 656 50 608 51 l 663 42 l 663 4 m 414 162 l 414 329 q 263 276 302 304 q 224 191 224 248 q 304 98 224 98 q 414 162 373 98 m 359 690 m 359 -53 m 572 760 l 570 753 l 517 753 l 359 916 l 201 753 l 149 753 l 147 760 l 300 1005 l 419 1005 l 572 760 m 359 977 m 606 833 z "},"ä":{"ha":694,"x_min":54,"x_max":663,"o":"m 663 4 l 655 -3 q 524 0 598 0 q 414 -3 467 0 l 408 4 l 414 95 l 282 -5 q 237 -20 267 -17 q 210 -21 226 -21 q 95 24 135 -21 q 54 150 54 70 q 121 300 54 256 q 414 387 194 348 q 357 531 414 494 q 274 553 322 553 q 191 532 221 553 l 165 469 l 156 464 l 121 472 l 117 481 l 120 562 q 288 655 232 644 q 350 660 312 660 q 541 590 484 660 q 582 434 582 539 q 580 351 582 408 q 576 224 576 256 q 580 94 576 122 q 596 58 583 66 q 656 50 608 51 l 663 42 l 663 4 m 414 162 l 414 329 q 263 276 302 304 q 224 191 224 248 q 304 98 224 98 q 414 162 373 98 m 359 690 m 359 -53 m 585 849 q 559 786 585 812 q 498 760 534 760 q 436 786 462 760 q 410 849 410 812 q 436 912 410 886 q 498 938 462 938 q 559 912 534 938 q 585 849 585 887 m 309 849 q 283 786 309 812 q 221 760 257 760 q 159 786 185 760 q 134 849 134 812 q 159 912 134 886 q 221 938 185 938 q 283 912 257 938 q 309 849 309 886 z "},"ã":{"ha":694,"x_min":54,"x_max":663,"o":"m 663 4 l 655 -3 q 524 0 598 0 q 414 -3 467 0 l 408 4 l 414 95 l 282 -5 q 237 -20 267 -17 q 210 -21 226 -21 q 95 24 135 -21 q 54 150 54 70 q 121 300 54 256 q 414 387 194 348 q 357 531 414 494 q 274 553 322 553 q 191 532 221 553 l 165 469 l 156 464 l 121 472 l 117 481 l 120 562 q 288 655 232 644 q 350 660 312 660 q 541 590 484 660 q 582 434 582 539 q 580 351 582 408 q 576 224 576 256 q 580 94 576 122 q 596 58 583 66 q 656 50 608 51 l 663 42 l 663 4 m 414 162 l 414 329 q 263 276 302 304 q 224 191 224 248 q 304 98 224 98 q 414 162 373 98 m 359 690 m 359 -53 m 601 937 q 443 774 559 774 q 334 812 411 774 q 243 846 266 846 q 165 779 189 846 l 123 779 l 118 786 q 276 949 159 949 q 385 911 308 949 q 476 877 453 877 q 553 944 530 877 l 596 944 l 601 937 z "},"ă":{"ha":694,"x_min":54,"x_max":663,"o":"m 663 4 l 655 -3 q 524 0 598 0 q 414 -3 467 0 l 408 4 l 414 95 l 282 -5 q 237 -20 267 -17 q 210 -21 226 -21 q 95 24 135 -21 q 54 150 54 70 q 121 300 54 256 q 414 387 194 348 q 357 531 414 494 q 274 553 322 553 q 191 532 221 553 l 165 469 l 156 464 l 121 472 l 117 481 l 120 562 q 288 655 232 644 q 350 660 312 660 q 541 590 484 660 q 582 434 582 539 q 580 351 582 408 q 576 224 576 256 q 580 94 576 122 q 596 58 583 66 q 656 50 608 51 l 663 42 l 663 4 m 414 162 l 414 329 q 263 276 302 304 q 224 191 224 248 q 304 98 224 98 q 414 162 373 98 m 359 690 m 359 -53 m 552 958 q 496 818 550 874 q 359 762 441 762 q 223 818 277 762 q 167 958 169 874 l 174 964 l 214 964 q 359 864 238 864 q 505 964 481 864 l 545 964 l 552 958 m 359 964 z "},"å":{"ha":694,"x_min":54,"x_max":663,"o":"m 663 4 l 655 -3 q 524 0 598 0 q 414 -3 467 0 l 408 4 l 414 95 l 282 -5 q 237 -20 267 -17 q 210 -21 226 -21 q 95 24 135 -21 q 54 150 54 70 q 121 300 54 256 q 414 387 194 348 q 357 531 414 494 q 274 553 322 553 q 191 532 221 553 l 165 469 l 156 464 l 121 472 l 117 481 l 120 562 q 288 655 232 644 q 350 660 312 660 q 541 590 484 660 q 582 434 582 539 q 580 351 582 408 q 576 224 576 256 q 580 94 576 122 q 596 58 583 66 q 656 50 608 51 l 663 42 l 663 4 m 414 162 l 414 329 q 263 276 302 304 q 224 191 224 248 q 304 98 224 98 q 414 162 373 98 m 359 690 m 359 -53 m 495 866 q 457 777 495 810 q 359 743 418 743 q 263 776 300 743 q 224 866 224 810 q 263 956 224 922 q 359 989 300 989 q 456 956 418 989 q 495 866 495 922 m 429 866 q 410 925 429 901 q 359 949 392 949 q 309 925 327 949 q 290 866 290 901 q 308 808 290 831 q 359 783 327 783 q 411 808 392 783 q 429 866 429 831 z "},"ǻ":{"ha":694,"x_min":54,"x_max":663,"o":"m 663 4 l 655 -3 q 524 0 598 0 q 414 -3 467 0 l 408 4 l 414 95 l 282 -5 q 237 -20 267 -17 q 210 -21 226 -21 q 95 24 135 -21 q 54 150 54 70 q 121 300 54 256 q 414 387 194 348 q 357 531 414 494 q 274 553 322 553 q 191 532 221 553 l 165 469 l 156 464 l 121 472 l 117 481 l 120 562 q 288 655 232 644 q 350 660 312 660 q 541 590 484 660 q 582 434 582 539 q 580 351 582 408 q 576 224 576 256 q 580 94 576 122 q 596 58 583 66 q 656 50 608 51 l 663 42 l 663 4 m 414 162 l 414 329 q 263 276 302 304 q 224 191 224 248 q 304 98 224 98 q 414 162 373 98 m 359 690 m 359 -53 m 495 866 q 457 777 495 810 q 359 743 418 743 q 263 776 300 743 q 224 866 224 810 q 263 956 224 922 q 359 989 300 989 q 456 956 418 989 q 495 866 495 922 m 429 866 q 410 925 429 901 q 359 949 392 949 q 309 925 327 949 q 290 866 290 901 q 308 808 290 831 q 359 783 327 783 q 411 808 392 783 q 429 866 429 831 m 533 1297 l 311 1036 l 273 1057 l 273 1065 l 368 1297 l 516 1316 l 533 1297 z "},"ā":{"ha":694,"x_min":54,"x_max":663,"o":"m 663 4 l 655 -3 q 524 0 598 0 q 414 -3 467 0 l 408 4 l 414 95 l 282 -5 q 237 -20 267 -17 q 210 -21 226 -21 q 95 24 135 -21 q 54 150 54 70 q 121 300 54 256 q 414 387 194 348 q 357 531 414 494 q 274 553 322 553 q 191 532 221 553 l 165 469 l 156 464 l 121 472 l 117 481 l 120 562 q 288 655 232 644 q 350 660 312 660 q 541 590 484 660 q 582 434 582 539 q 580 351 582 408 q 576 224 576 256 q 580 94 576 122 q 596 58 583 66 q 656 50 608 51 l 663 42 l 663 4 m 414 162 l 414 329 q 263 276 302 304 q 224 191 224 248 q 304 98 224 98 q 414 162 373 98 m 359 690 m 359 -53 m 578 803 l 140 803 l 140 888 l 578 888 l 578 803 z "},"ą":{"ha":694,"x_min":54,"x_max":684,"o":"m 684 -249 l 680 -258 q 623 -285 657 -273 q 536 -298 584 -298 q 430 -266 470 -298 q 388 -172 388 -231 q 430 -68 388 -117 q 520 0 465 -26 q 414 -3 467 0 l 408 4 l 414 95 l 282 -5 q 237 -20 267 -17 q 210 -21 226 -21 q 95 24 135 -21 q 54 150 54 70 q 121 300 54 256 q 414 387 195 348 q 357 531 414 494 q 274 553 322 553 q 191 532 221 553 l 165 469 l 156 464 l 121 472 l 117 481 l 120 562 q 288 655 232 644 q 350 660 313 660 q 541 590 484 660 q 582 434 582 539 q 580 351 582 408 q 576 224 576 256 q 580 94 576 122 q 596 58 583 66 q 656 50 608 51 l 663 42 l 663 4 l 655 -3 q 576 -1 625 -1 q 490 -152 490 -64 q 583 -241 490 -241 q 671 -223 625 -241 l 680 -227 l 684 -249 m 414 162 l 414 329 q 263 276 302 304 q 224 191 224 248 q 304 98 224 98 q 414 162 373 98 z "},"æ":{"ha":1080,"x_min":66,"x_max":1020,"o":"m 1020 382 q 1019 346 1020 370 l 1012 336 q 774 312 922 312 q 694 311 748 312 q 614 310 641 310 q 675 144 618 210 q 833 75 736 75 q 987 120 901 75 l 1004 100 l 973 33 q 759 -30 875 -30 q 483 108 555 -30 q 330 -6 433 79 q 238 -28 290 -28 q 110 21 156 -28 q 66 142 66 68 q 89 239 66 193 q 149 302 113 285 q 443 378 239 344 q 444 397 444 390 q 299 554 444 554 q 198 526 248 554 q 178 470 190 511 l 170 465 l 136 471 l 130 479 q 127 559 128 534 q 198 600 129 559 q 281 645 240 625 q 380 657 319 657 q 561 585 493 657 q 764 657 673 657 q 953 587 886 657 q 1020 382 1020 516 m 844 398 q 730 581 844 581 q 610 399 610 581 l 610 385 q 750 378 650 378 q 844 385 802 378 q 844 398 844 394 m 444 312 q 367 299 416 312 q 293 273 318 286 q 241 174 241 244 q 265 115 241 138 q 328 92 289 92 q 438 152 388 92 q 443 212 443 167 l 444 312 z "},"ǽ":{"ha":1080,"x_min":66,"x_max":1020,"o":"m 1020 382 q 1019 346 1020 370 l 1012 336 q 774 312 922 312 q 694 311 748 312 q 614 310 641 310 q 675 144 618 210 q 833 75 736 75 q 987 120 901 75 l 1004 100 l 973 33 q 759 -30 875 -30 q 483 108 555 -30 q 330 -6 433 79 q 238 -28 290 -28 q 110 21 156 -28 q 66 142 66 68 q 89 239 66 193 q 149 302 113 285 q 443 378 239 344 q 444 397 444 390 q 299 554 444 554 q 198 526 248 554 q 178 470 190 511 l 170 465 l 136 471 l 130 479 q 127 559 128 534 q 198 600 129 559 q 281 645 240 625 q 380 657 319 657 q 561 585 493 657 q 764 657 673 657 q 953 587 886 657 q 1020 382 1020 516 m 844 398 q 730 581 844 581 q 610 399 610 581 l 610 385 q 750 378 650 378 q 844 385 802 378 q 844 398 844 394 m 444 312 q 367 299 416 312 q 293 273 318 286 q 241 174 241 244 q 265 115 241 138 q 328 92 289 92 q 438 152 388 92 q 443 212 443 167 l 444 312 m 741 1000 l 519 739 l 481 759 l 481 768 l 576 999 l 724 1019 l 741 1000 z "},"ć":{"ha":616,"x_min":61,"x_max":584,"o":"m 584 85 l 554 18 q 372 -30 462 -30 q 141 57 221 -30 q 61 295 61 144 q 123 507 61 435 q 187 561 140 528 q 318 644 285 630 q 418 657 351 657 q 571 629 511 657 l 578 617 q 568 554 577 608 l 561 508 q 555 417 559 496 l 548 410 l 507 410 l 500 417 q 491 501 496 477 q 376 554 461 554 q 233 368 233 554 q 290 154 233 232 q 456 73 349 73 q 571 101 522 73 l 584 85 m 550 1000 l 328 739 l 290 759 l 290 768 l 385 999 l 533 1019 l 550 1000 z "},"ĉ":{"ha":616,"x_min":61,"x_max":623,"o":"m 584 85 l 554 18 q 372 -30 462 -30 q 141 57 221 -30 q 61 295 61 144 q 123 507 61 435 q 187 561 140 528 q 318 644 285 630 q 418 657 351 657 q 571 629 511 657 l 578 617 q 568 554 577 608 l 561 508 q 555 417 559 496 l 548 410 l 507 410 l 500 417 q 491 501 496 477 q 376 554 461 554 q 233 368 233 554 q 290 154 233 232 q 456 73 349 73 q 571 101 522 73 l 584 85 m 589 760 l 587 753 l 534 753 l 376 916 l 218 753 l 166 753 l 164 760 l 317 1005 l 436 1005 l 589 760 m 376 977 m 623 833 z "},"č":{"ha":616,"x_min":61,"x_max":589,"o":"m 584 85 l 554 18 q 372 -30 462 -30 q 141 57 221 -30 q 61 295 61 144 q 123 507 61 435 q 187 561 140 528 q 318 644 285 630 q 418 657 351 657 q 571 629 511 657 l 578 617 q 568 554 577 608 l 561 508 q 555 417 559 496 l 548 410 l 507 410 l 500 417 q 491 501 496 477 q 376 554 461 554 q 233 368 233 554 q 290 154 233 232 q 456 73 349 73 q 571 101 522 73 l 584 85 m 589 998 l 436 753 l 317 753 l 164 998 l 166 1005 l 218 1005 l 376 842 l 534 1005 l 587 1005 l 589 998 z "},"ç":{"ha":616,"x_min":61,"x_max":584,"o":"m 584 85 l 554 18 q 372 -30 462 -30 q 357 -30 366 -30 l 329 -94 q 372 -90 351 -90 q 463 -118 427 -90 q 498 -191 498 -146 q 449 -279 498 -242 q 319 -317 400 -317 q 192 -294 252 -317 l 189 -283 l 201 -254 l 212 -251 q 283 -266 254 -266 q 345 -248 320 -266 q 372 -194 372 -229 q 354 -154 372 -170 q 311 -139 336 -139 q 274 -142 294 -139 l 260 -132 l 306 -25 q 120 83 183 -7 q 61 295 61 165 q 123 507 61 435 q 187 561 140 528 q 318 644 285 630 q 418 657 351 657 q 571 629 511 657 l 578 617 q 568 554 577 609 l 561 508 q 555 417 559 495 l 548 410 l 507 410 l 500 417 q 491 501 496 477 q 376 554 461 554 q 233 368 233 554 q 290 154 233 232 q 456 73 349 73 q 571 101 522 73 l 584 85 z "},"ċ":{"ha":616,"x_min":61,"x_max":584,"o":"m 584 85 l 554 18 q 372 -30 462 -30 q 141 57 221 -30 q 61 295 61 144 q 123 507 61 435 q 187 561 140 528 q 318 644 285 630 q 418 657 351 657 q 571 629 511 657 l 578 617 q 568 554 577 608 l 561 508 q 555 417 559 496 l 548 410 l 507 410 l 500 417 q 491 501 496 477 q 376 554 461 554 q 233 368 233 554 q 290 154 233 232 q 456 73 349 73 q 571 101 522 73 l 584 85 m 469 849 q 443 786 469 812 q 381 760 417 760 q 319 786 345 760 q 294 849 294 812 q 319 912 294 886 q 381 938 345 938 q 443 912 417 938 q 469 849 469 887 z "},"ď":{"ha":999,"x_min":74,"x_max":983,"o":"m 814 2 l 807 -5 q 687 0 741 0 q 549 -5 636 0 l 543 0 q 546 111 546 33 q 476 49 522 91 q 403 -14 420 -3 q 332 -24 381 -24 q 145 64 216 -24 q 74 290 74 151 q 129 500 74 425 q 213 570 143 520 q 332 644 294 629 q 414 658 364 658 q 546 628 485 658 l 546 666 q 537 876 546 844 q 509 898 532 894 q 447 902 498 900 l 440 909 l 440 947 l 447 954 q 709 1010 577 968 l 724 1002 q 722 935 724 1000 q 715 497 715 789 l 715 278 q 724 68 715 87 q 739 54 730 57 q 807 45 754 50 l 814 39 l 814 2 m 546 356 l 546 484 q 452 558 497 542 q 387 569 422 569 q 267 473 294 569 q 252 353 252 419 q 317 145 252 213 q 410 109 352 109 q 500 140 458 109 q 544 198 537 167 q 546 356 546 208 m 983 890 q 930 764 983 816 q 799 705 877 713 l 794 722 q 891 770 862 736 q 912 821 912 795 q 882 846 912 846 q 820 867 844 846 q 794 925 794 888 q 819 987 794 964 q 882 1010 844 1010 q 956 976 929 1010 q 983 890 983 942 z "},"đ":{"ha":848,"x_min":74,"x_max":820,"o":"m 820 748 l 813 741 l 717 741 q 715 497 715 636 l 715 278 q 724 68 715 87 q 739 54 730 57 q 807 45 754 50 l 814 39 l 814 2 l 807 -5 q 687 0 741 0 q 549 -5 636 0 l 543 0 q 546 111 546 33 q 476 49 522 91 q 403 -14 420 -3 q 332 -24 381 -24 q 145 64 216 -24 q 74 290 74 151 q 129 500 74 425 q 213 570 143 520 q 332 644 294 629 q 414 658 364 658 q 546 628 485 658 l 546 666 q 545 741 546 694 l 386 741 l 379 749 l 379 791 l 386 799 l 543 799 q 528 891 539 882 q 447 902 517 899 l 440 909 l 440 947 l 447 954 q 709 1010 577 968 l 724 1002 q 722 931 724 998 q 718 799 719 857 l 813 799 l 820 791 l 820 748 m 546 356 l 546 484 q 452 558 497 542 q 387 569 422 569 q 267 473 294 569 q 252 353 252 419 q 317 145 252 213 q 410 109 352 109 q 500 140 458 109 q 544 198 537 167 q 546 356 546 208 z "},"é":{"ha":694,"x_min":63,"x_max":646,"o":"m 646 380 q 645 346 646 369 l 637 336 q 400 312 548 312 q 320 311 374 312 q 239 310 267 310 q 301 145 243 210 q 458 75 361 75 q 613 120 524 75 l 629 100 l 600 33 q 385 -30 500 -30 q 148 56 232 -30 q 63 302 63 142 q 153 561 63 491 q 390 657 278 657 q 578 587 511 657 q 646 380 646 515 m 469 398 q 355 581 469 581 q 235 399 235 581 l 235 385 q 374 378 274 378 q 468 385 427 378 q 469 398 469 394 m 387 -53 m 387 690 m 560 1000 l 338 739 l 300 759 l 300 768 l 395 999 l 543 1019 l 560 1000 z "},"è":{"ha":694,"x_min":63,"x_max":646,"o":"m 646 380 q 645 346 646 369 l 637 336 q 400 312 548 312 q 320 311 374 312 q 239 310 267 310 q 301 145 243 210 q 458 75 361 75 q 613 120 524 75 l 629 100 l 600 33 q 385 -30 500 -30 q 148 56 232 -30 q 63 302 63 142 q 153 561 63 491 q 390 657 278 657 q 578 587 511 657 q 646 380 646 515 m 469 398 q 355 581 469 581 q 235 399 235 581 l 235 385 q 374 378 274 378 q 468 385 427 378 q 469 398 469 394 m 387 -53 m 387 690 m 473 759 l 435 739 l 213 1000 l 230 1019 l 378 999 l 473 768 l 473 759 z "},"ê":{"ha":694,"x_min":63,"x_max":646,"o":"m 646 380 q 645 346 646 369 l 637 336 q 400 312 548 312 q 320 311 374 312 q 239 310 267 310 q 301 145 243 210 q 458 75 361 75 q 613 120 524 75 l 629 100 l 600 33 q 385 -30 500 -30 q 148 56 232 -30 q 63 302 63 142 q 153 561 63 491 q 390 657 278 657 q 578 587 511 657 q 646 380 646 515 m 469 398 q 355 581 469 581 q 235 399 235 581 l 235 385 q 374 378 274 378 q 468 385 427 378 q 469 398 469 394 m 387 -53 m 387 690 m 578 760 l 576 753 l 524 753 l 366 916 l 208 753 l 156 753 l 154 760 l 307 1005 l 426 1005 l 578 760 m 366 977 m 612 833 z "},"ë":{"ha":694,"x_min":63,"x_max":646,"o":"m 646 380 q 645 346 646 369 l 637 336 q 400 312 548 312 q 320 311 374 312 q 239 310 267 310 q 301 145 243 210 q 458 75 361 75 q 613 120 524 75 l 629 100 l 600 33 q 385 -30 500 -30 q 148 56 232 -30 q 63 302 63 142 q 153 561 63 491 q 390 657 278 657 q 578 587 511 657 q 646 380 646 515 m 469 398 q 355 581 469 581 q 235 399 235 581 l 235 385 q 374 378 274 378 q 468 385 427 378 q 469 398 469 394 m 387 -53 m 387 690 m 592 849 q 566 786 592 812 q 505 760 541 760 q 443 786 469 760 q 417 849 417 812 q 443 912 417 886 q 505 938 469 938 q 566 912 541 938 q 592 849 592 887 m 315 849 q 290 786 315 812 q 228 760 264 760 q 166 786 192 760 q 140 849 140 812 q 166 912 140 886 q 228 938 192 938 q 290 912 264 938 q 315 849 315 886 z "},"ě":{"ha":694,"x_min":63,"x_max":646,"o":"m 646 380 q 645 346 646 369 l 637 336 q 400 312 548 312 q 320 311 374 312 q 239 310 267 310 q 301 145 243 210 q 458 75 361 75 q 613 120 524 75 l 629 100 l 600 33 q 385 -30 500 -30 q 148 56 232 -30 q 63 302 63 142 q 153 561 63 491 q 390 657 278 657 q 578 587 511 657 q 646 380 646 515 m 469 398 q 355 581 469 581 q 235 399 235 581 l 235 385 q 374 378 274 378 q 468 385 427 378 q 469 398 469 394 m 387 -53 m 387 690 m 578 998 l 426 753 l 307 753 l 154 998 l 156 1005 l 208 1005 l 366 842 l 524 1005 l 576 1005 l 578 998 z "},"ĕ":{"ha":694,"x_min":63,"x_max":646,"o":"m 646 380 q 645 346 646 369 l 637 336 q 400 312 548 312 q 320 311 374 312 q 239 310 267 310 q 301 145 243 210 q 458 75 361 75 q 613 120 524 75 l 629 100 l 600 33 q 385 -30 500 -30 q 148 56 232 -30 q 63 302 63 142 q 153 561 63 491 q 390 657 278 657 q 578 587 511 657 q 646 380 646 515 m 469 398 q 355 581 469 581 q 235 399 235 581 l 235 385 q 374 378 274 378 q 468 385 427 378 q 469 398 469 394 m 387 -53 m 387 690 m 559 958 q 503 818 557 874 q 366 762 448 762 q 230 818 284 762 q 174 958 176 874 l 180 964 l 221 964 q 366 864 245 864 q 511 964 488 864 l 552 964 l 559 958 m 366 964 z "},"ė":{"ha":694,"x_min":63,"x_max":646,"o":"m 646 380 q 645 346 646 369 l 637 336 q 400 312 548 312 q 320 311 374 312 q 239 310 267 310 q 301 145 243 210 q 458 75 361 75 q 613 120 524 75 l 629 100 l 600 33 q 385 -30 500 -30 q 148 56 232 -30 q 63 302 63 142 q 153 561 63 491 q 390 657 278 657 q 578 587 511 657 q 646 380 646 515 m 469 398 q 355 581 469 581 q 235 399 235 581 l 235 385 q 374 378 274 378 q 468 385 427 378 q 469 398 469 394 m 387 -53 m 387 690 m 454 849 q 428 786 454 812 q 366 760 402 760 q 304 786 330 760 q 279 849 279 812 q 304 912 279 886 q 366 938 330 938 q 428 912 402 938 q 454 849 454 887 z "},"ē":{"ha":694,"x_min":63,"x_max":646,"o":"m 646 380 q 645 346 646 369 l 637 336 q 400 312 548 312 q 320 311 374 312 q 239 310 267 310 q 301 145 243 210 q 458 75 361 75 q 613 120 524 75 l 629 100 l 600 33 q 385 -30 500 -30 q 148 56 232 -30 q 63 302 63 142 q 153 561 63 491 q 390 657 278 657 q 578 587 511 657 q 646 380 646 515 m 469 398 q 355 581 469 581 q 235 399 235 581 l 235 385 q 374 378 274 378 q 468 385 427 378 q 469 398 469 394 m 387 -53 m 387 690 m 585 803 l 147 803 l 147 888 l 585 888 l 585 803 z "},"ę":{"ha":694,"x_min":63,"x_max":646,"o":"m 646 380 q 645 346 646 369 l 637 336 q 400 312 548 312 q 320 311 374 312 q 239 310 267 310 q 300 145 243 211 q 458 75 361 75 q 613 120 524 75 l 629 100 l 600 33 q 399 -30 507 -26 q 346 -152 346 -84 q 439 -241 346 -241 q 527 -223 481 -241 l 536 -227 l 541 -249 l 536 -258 q 479 -285 513 -273 q 393 -298 440 -298 q 286 -266 326 -298 q 244 -172 244 -231 q 330 -27 244 -90 q 128 79 198 -12 q 63 302 63 164 q 153 561 63 491 q 390 657 278 657 q 583 581 517 657 q 646 380 646 510 m 469 398 q 355 581 469 581 q 235 399 235 581 l 235 385 q 374 378 274 378 q 468 385 427 378 q 469 398 469 394 z "},"ǵ":{"ha":772,"x_min":53,"x_max":758,"o":"m 758 -47 q 647 -283 758 -195 q 357 -372 536 -372 q 135 -319 216 -372 q 53 -178 53 -267 q 79 -87 53 -118 q 151 -43 82 -84 q 200 -15 184 -23 q 106 75 106 1 q 134 155 106 115 q 170 182 136 158 q 228 224 186 194 q 81 420 81 277 q 164 598 81 530 q 385 665 247 665 q 593 606 517 665 q 648 605 635 604 q 748 608 681 606 l 756 601 l 749 531 l 741 524 l 641 524 q 650 458 650 492 q 493 237 650 296 q 354 211 422 211 q 294 214 331 211 q 252 154 252 191 q 301 115 252 119 q 396 112 330 112 q 469 114 417 112 q 547 116 522 116 q 737 48 700 116 q 758 -47 758 12 m 479 427 q 364 598 479 598 q 252 450 252 598 q 369 275 252 275 q 479 427 479 275 m 602 -124 q 551 -31 602 -50 q 464 -22 529 -23 l 335 -21 q 275 -22 313 -21 q 182 -155 182 -80 q 237 -262 182 -223 q 385 -301 292 -301 q 543 -253 484 -301 q 602 -124 602 -205 m 558 1000 l 336 739 l 298 759 l 298 768 l 393 999 l 541 1019 l 558 1000 z "},"ĝ":{"ha":772,"x_min":53,"x_max":758,"o":"m 758 -47 q 647 -283 758 -195 q 357 -372 536 -372 q 135 -319 216 -372 q 53 -178 53 -267 q 79 -87 53 -118 q 151 -43 82 -84 q 200 -15 184 -23 q 106 75 106 1 q 134 155 106 115 q 170 182 136 158 q 228 224 186 194 q 81 420 81 277 q 164 598 81 530 q 385 665 247 665 q 593 606 517 665 q 648 605 635 604 q 748 608 681 606 l 756 601 l 749 531 l 741 524 l 641 524 q 650 458 650 492 q 493 237 650 296 q 354 211 422 211 q 294 214 331 211 q 252 154 252 191 q 301 115 252 119 q 396 112 330 112 q 469 114 417 112 q 547 116 522 116 q 737 48 700 116 q 758 -47 758 12 m 479 427 q 364 598 479 598 q 252 450 252 598 q 369 275 252 275 q 479 427 479 275 m 602 -124 q 551 -31 602 -50 q 464 -22 529 -23 l 335 -21 q 275 -22 313 -21 q 182 -155 182 -80 q 237 -262 182 -223 q 385 -301 292 -301 q 543 -253 484 -301 q 602 -124 602 -205 m 580 760 l 578 753 l 526 753 l 368 916 l 210 753 l 157 753 l 155 760 l 308 1005 l 427 1005 l 580 760 m 368 977 m 614 833 z "},"ğ":{"ha":772,"x_min":53,"x_max":758,"o":"m 758 -47 q 647 -283 758 -195 q 357 -372 536 -372 q 135 -319 216 -372 q 53 -178 53 -267 q 79 -87 53 -118 q 151 -43 82 -84 q 200 -15 184 -23 q 106 75 106 1 q 134 155 106 115 q 170 182 136 158 q 228 224 186 194 q 81 420 81 277 q 164 598 81 530 q 385 665 247 665 q 593 606 517 665 q 648 605 635 604 q 748 608 681 606 l 756 601 l 749 531 l 741 524 l 641 524 q 650 458 650 492 q 493 237 650 296 q 354 211 422 211 q 294 214 331 211 q 252 154 252 191 q 301 115 252 119 q 396 112 330 112 q 469 114 417 112 q 547 116 522 116 q 737 48 700 116 q 758 -47 758 12 m 479 427 q 364 598 479 598 q 252 450 252 598 q 369 275 252 275 q 479 427 479 275 m 602 -124 q 551 -31 602 -50 q 464 -22 529 -23 l 335 -21 q 275 -22 313 -21 q 182 -155 182 -80 q 237 -262 182 -223 q 385 -301 292 -301 q 543 -253 484 -301 q 602 -124 602 -205 m 560 958 q 504 818 558 874 q 368 762 450 762 q 231 818 286 762 q 175 958 177 874 l 182 964 l 222 964 q 368 864 246 864 q 513 964 489 864 l 553 964 l 560 958 m 368 964 z "},"ģ":{"ha":772,"x_min":53,"x_max":758,"o":"m 758 -47 q 647 -283 758 -195 q 357 -372 536 -372 q 135 -319 216 -372 q 53 -178 53 -267 q 79 -87 53 -118 q 151 -43 82 -84 q 200 -15 184 -23 q 106 75 106 1 q 134 155 106 115 q 170 182 136 158 q 228 224 186 194 q 81 420 81 277 q 164 598 81 530 q 385 665 247 665 q 593 606 517 665 q 648 605 635 604 q 748 608 681 606 l 756 601 l 749 531 l 741 524 l 641 524 q 650 458 650 492 q 493 237 650 296 q 354 211 422 211 q 294 214 331 211 q 252 154 252 191 q 301 115 252 119 q 396 112 330 112 q 469 114 417 112 q 547 116 522 116 q 737 48 700 116 q 758 -47 758 12 m 479 427 q 364 598 479 598 q 252 450 252 598 q 369 275 252 275 q 479 427 479 275 m 602 -124 q 551 -31 602 -50 q 464 -22 529 -23 l 335 -21 q 275 -22 313 -21 q 182 -155 182 -80 q 237 -262 182 -223 q 385 -301 292 -301 q 543 -253 484 -301 q 602 -124 602 -205 m 455 834 q 430 772 455 795 q 368 749 406 749 q 293 783 320 749 q 266 869 266 817 q 320 996 266 943 q 450 1055 372 1046 l 455 1038 q 358 989 387 1023 q 337 939 337 964 q 368 913 337 913 q 430 892 406 913 q 455 834 455 871 z "},"ġ":{"ha":772,"x_min":53,"x_max":758,"o":"m 758 -47 q 647 -283 758 -195 q 357 -372 536 -372 q 135 -319 216 -372 q 53 -178 53 -267 q 79 -87 53 -118 q 151 -43 82 -84 q 200 -15 184 -23 q 106 75 106 1 q 134 155 106 115 q 170 182 136 158 q 228 224 186 194 q 81 420 81 277 q 164 598 81 530 q 385 665 247 665 q 593 606 517 665 q 648 605 635 604 q 748 608 681 606 l 756 601 l 749 531 l 741 524 l 641 524 q 650 458 650 492 q 493 237 650 296 q 354 211 422 211 q 294 214 331 211 q 252 154 252 191 q 301 115 252 119 q 396 112 330 112 q 469 114 417 112 q 547 116 522 116 q 737 48 700 116 q 758 -47 758 12 m 479 427 q 364 598 479 598 q 252 450 252 598 q 369 275 252 275 q 479 427 479 275 m 602 -124 q 551 -31 602 -50 q 464 -22 529 -23 l 335 -21 q 275 -22 313 -21 q 182 -155 182 -80 q 237 -262 182 -223 q 385 -301 292 -301 q 543 -253 484 -301 q 602 -124 602 -205 m 455 849 q 429 786 455 812 q 368 760 404 760 q 306 786 332 760 q 280 849 280 812 q 306 912 280 886 q 368 938 332 938 q 429 912 404 938 q 455 849 455 887 z "},"ĥ":{"ha":848,"x_min":16,"x_max":819,"o":"m 819 3 l 812 -5 q 686 0 738 0 q 548 -5 639 0 l 541 2 q 553 235 553 153 l 553 368 q 434 534 553 534 q 335 490 370 534 q 307 399 307 454 l 307 319 q 311 93 307 181 q 326 60 313 66 q 407 50 342 52 l 414 43 l 414 2 l 408 -5 q 222 0 343 0 q 37 -5 100 0 l 30 2 l 30 43 l 37 50 q 117 60 102 52 q 132 93 131 66 q 137 401 137 181 l 137 629 q 132 859 137 771 q 117 892 131 884 q 39 902 104 900 l 32 909 l 32 947 l 39 954 q 301 1010 170 968 l 315 1002 q 313 935 315 984 q 307 576 307 773 l 307 538 l 426 639 q 524 657 471 657 q 686 592 632 657 q 729 437 729 539 q 726 354 729 425 q 724 224 724 283 q 727 94 724 122 q 743 58 730 66 q 813 50 755 51 l 819 43 l 819 3 m 441 1065 l 439 1058 l 387 1058 l 229 1221 l 71 1058 l 18 1058 l 16 1065 l 169 1310 l 288 1310 l 441 1065 m 229 1282 m 475 1139 z "},"ħ":{"ha":848,"x_min":30,"x_max":819,"o":"m 819 3 l 812 -5 q 686 0 738 0 q 548 -5 639 0 l 541 2 q 553 235 553 153 l 553 368 q 434 534 553 534 q 335 490 370 534 q 307 399 307 454 l 307 319 q 311 93 307 181 q 326 60 313 66 q 407 50 342 52 l 414 43 l 414 2 l 408 -5 q 222 0 343 0 q 37 -5 100 0 l 30 2 l 30 43 l 37 50 q 117 60 102 52 q 132 93 131 66 q 137 401 137 181 l 137 629 q 136 741 137 673 l 55 741 l 47 749 l 47 791 l 55 799 l 134 799 l 132 859 q 117 892 131 884 q 39 902 104 900 l 32 909 l 32 947 l 39 954 q 301 1010 170 968 l 315 1002 q 313 935 315 984 q 309 799 311 886 l 517 799 l 524 791 l 524 748 l 517 741 l 308 741 q 307 576 307 658 l 307 538 l 426 639 q 524 657 471 657 q 686 592 632 657 q 729 437 729 539 q 726 354 729 425 q 724 224 724 283 q 727 94 724 122 q 743 58 730 66 q 813 50 755 51 l 819 43 l 819 3 z "},"í":{"ha":463,"x_min":39,"x_max":424,"o":"m 424 2 l 417 -5 q 231 0 353 0 q 46 -5 110 0 l 39 2 l 39 43 l 46 50 q 127 60 111 52 q 142 93 140 66 q 146 282 146 181 l 146 379 q 136 535 146 511 q 107 552 131 549 q 48 555 99 553 l 41 562 l 41 600 l 48 608 q 311 664 178 619 l 325 655 q 316 447 316 532 l 316 231 q 321 93 316 181 q 336 60 322 66 q 416 50 351 52 l 424 43 l 424 2 m 231 690 m 389 1000 l 167 739 l 129 759 l 129 768 l 224 999 l 372 1019 l 389 1000 z "},"ì":{"ha":463,"x_min":39,"x_max":424,"o":"m 424 2 l 417 -5 q 231 0 353 0 q 46 -5 110 0 l 39 2 l 39 43 l 46 50 q 127 60 111 52 q 142 93 140 66 q 146 282 146 181 l 146 379 q 136 535 146 511 q 107 552 131 549 q 48 555 99 553 l 41 562 l 41 600 l 48 608 q 311 664 178 619 l 325 655 q 316 447 316 532 l 316 231 q 321 93 316 181 q 336 60 322 66 q 416 50 351 52 l 424 43 l 424 2 m 231 690 m 302 759 l 264 739 l 41 1000 l 58 1019 l 207 999 l 302 768 l 302 759 z "},"î":{"ha":463,"x_min":2,"x_max":460,"o":"m 424 2 l 417 -5 q 231 0 353 0 q 46 -5 110 0 l 39 2 l 39 43 l 46 50 q 127 60 111 52 q 142 93 140 66 q 146 282 146 181 l 146 379 q 136 535 146 511 q 107 552 131 549 q 48 555 99 553 l 41 562 l 41 600 l 48 608 q 311 664 178 619 l 325 655 q 316 447 316 532 l 316 231 q 321 93 316 181 q 336 60 322 66 q 416 50 351 52 l 424 43 l 424 2 m 231 690 m 427 760 l 425 753 l 372 753 l 214 916 l 56 753 l 4 753 l 2 760 l 155 1005 l 274 1005 l 427 760 m 214 977 m 460 833 z "},"ï":{"ha":463,"x_min":-10,"x_max":441,"o":"m 424 2 l 417 -5 q 231 0 353 0 q 46 -5 110 0 l 39 2 l 39 43 l 46 50 q 127 60 111 52 q 142 93 140 66 q 146 282 146 181 l 146 379 q 136 535 146 511 q 107 552 131 549 q 48 555 99 553 l 41 562 l 41 600 l 48 608 q 311 664 178 619 l 325 655 q 316 447 316 532 l 316 231 q 321 93 316 181 q 336 60 322 66 q 416 50 351 52 l 424 43 l 424 2 m 231 690 m 441 849 q 416 786 441 812 q 354 760 390 760 q 292 786 318 760 q 267 849 267 812 q 292 912 267 886 q 354 938 318 938 q 416 912 390 938 q 441 849 441 887 m 165 849 q 139 786 165 812 q 77 760 113 760 q 16 786 41 760 q -10 849 -10 812 q 16 912 -10 886 q 77 938 41 938 q 139 912 113 938 q 165 849 165 886 z "},"ĩ":{"ha":463,"x_min":-26,"x_max":457,"o":"m 424 2 l 417 -5 q 231 0 353 0 q 46 -5 110 0 l 39 2 l 39 43 l 46 50 q 127 60 111 52 q 142 93 140 66 q 146 282 146 181 l 146 379 q 136 535 146 511 q 107 552 131 549 q 48 555 99 553 l 41 562 l 41 600 l 48 608 q 311 664 178 619 l 325 655 q 316 447 316 532 l 316 231 q 321 93 316 181 q 336 60 322 66 q 416 50 351 52 l 424 43 l 424 2 m 231 690 m 457 937 q 299 774 416 774 q 191 812 267 774 q 99 846 122 846 q 22 779 45 846 l -21 779 l -26 786 q 132 949 16 949 q 241 911 164 949 q 332 877 309 877 q 410 944 386 877 l 452 944 l 457 937 z "},"ĭ":{"ha":463,"x_min":23,"x_max":424,"o":"m 424 2 l 417 -5 q 231 0 353 0 q 46 -5 110 0 l 39 2 l 39 43 l 46 50 q 127 60 111 52 q 142 93 140 66 q 146 282 146 181 l 146 379 q 136 535 146 511 q 107 552 131 549 q 48 555 99 553 l 41 562 l 41 600 l 48 608 q 311 664 178 619 l 325 655 q 316 447 316 532 l 316 231 q 321 93 316 181 q 336 60 322 66 q 416 50 351 52 l 424 43 l 424 2 m 231 690 m 408 958 q 352 818 406 874 q 216 762 298 762 q 79 818 134 762 q 23 958 25 874 l 30 964 l 71 964 q 216 864 94 864 q 361 964 337 864 l 401 964 l 408 958 m 216 964 z "},"ı":{"ha":463,"x_min":39,"x_max":424,"o":"m 424 2 l 417 -5 q 231 0 353 0 q 46 -5 110 0 l 39 2 l 39 43 l 46 50 q 127 60 111 52 q 142 93 140 66 q 146 282 146 181 l 146 379 q 136 535 146 511 q 107 552 131 549 q 48 555 99 553 l 41 562 l 41 600 l 48 608 q 311 664 178 619 l 325 655 q 316 447 316 532 l 316 231 q 321 93 316 181 q 336 60 322 66 q 416 50 351 52 l 424 43 l 424 2 m 231 690 z "},"ī":{"ha":463,"x_min":-3,"x_max":435,"o":"m 424 2 l 417 -5 q 231 0 353 0 q 46 -5 110 0 l 39 2 l 39 43 l 46 50 q 127 60 111 52 q 142 93 140 66 q 146 282 146 181 l 146 379 q 136 535 146 511 q 107 552 131 549 q 48 555 99 553 l 41 562 l 41 600 l 48 608 q 311 664 178 619 l 325 655 q 316 447 316 532 l 316 231 q 321 93 316 181 q 336 60 322 66 q 416 50 351 52 l 424 43 l 424 2 m 231 690 m 435 803 l -3 803 l -3 888 l 435 888 l 435 803 z "},"į":{"ha":463,"x_min":39,"x_max":424,"o":"m 330 887 q 300 813 330 844 q 227 782 269 782 q 153 813 183 782 q 122 887 122 844 q 153 962 122 931 q 227 993 183 993 q 300 962 271 993 q 330 887 330 931 m 424 2 l 417 -5 q 280 0 363 -1 q 193 -152 193 -64 q 286 -241 193 -241 q 374 -223 328 -241 l 382 -227 l 387 -249 l 383 -258 q 326 -285 360 -273 q 239 -298 287 -298 q 133 -266 173 -298 q 91 -172 91 -231 q 133 -68 91 -117 q 223 0 168 -26 q 46 -5 110 0 l 39 2 l 39 43 l 46 50 q 127 60 110 52 q 142 93 140 67 q 146 282 146 182 l 146 379 q 136 535 146 510 q 107 552 131 549 q 48 555 98 553 l 41 562 l 41 600 l 48 608 q 311 664 178 619 l 325 655 q 316 447 316 532 l 316 231 q 321 93 316 182 q 336 60 322 67 q 416 50 353 52 l 424 43 l 424 2 z "},"ĵ":{"ha":463,"x_min":2,"x_max":427,"o":"m 155 1005 l 274 1005 l 427 760 l 425 753 l 372 753 l 214 917 l 56 753 l 4 753 l 2 760 l 155 1005 m 309 664 l 323 655 q 314 447 314 612 l 314 332 l 315 132 q 310 -40 315 44 q 278 -191 304 -123 q 209 -301 252 -258 q 124 -360 166 -345 q 44 -376 83 -376 q 18 -374 33 -376 l 3 -325 l 10 -315 q 31 -317 22 -317 q 90 -298 66 -317 q 125 -244 114 -279 q 140 -125 136 -210 q 144 101 144 -41 l 144 379 q 142 461 144 401 q 136 529 139 520 q 127 544 134 538 q 108 551 121 549 q 46 555 96 553 l 39 562 l 39 600 l 46 608 q 309 664 175 619 z "},"ķ":{"ha":848,"x_min":39,"x_max":834,"o":"m 834 2 l 827 -5 q 717 -2 782 -2 q 597 -5 656 -2 q 414 225 559 64 q 316 325 337 310 l 321 93 q 336 60 322 66 q 416 50 351 52 l 424 43 l 424 2 l 417 -5 q 231 0 353 0 q 46 -5 110 0 l 39 2 l 39 43 l 46 50 q 127 60 111 52 q 142 93 140 66 q 146 401 146 181 l 146 629 q 142 859 146 771 q 127 892 140 884 q 48 902 113 900 l 41 909 l 41 947 l 48 954 q 311 1010 179 968 l 325 1002 q 323 935 325 984 q 316 576 316 773 l 316 355 l 383 410 q 507 530 427 446 l 577 604 q 608 641 597 625 q 702 639 666 639 q 784 641 747 639 l 791 634 l 791 593 l 784 587 l 734 584 q 673 560 705 583 q 621 519 661 551 l 564 473 l 544 454 l 486 402 l 631 233 q 798 58 770 71 q 827 51 812 51 l 834 43 l 834 2 m 532 -199 q 478 -325 532 -273 q 347 -385 425 -376 l 342 -368 q 439 -319 410 -353 q 460 -269 460 -294 q 430 -243 460 -243 q 368 -222 392 -243 q 342 -164 342 -201 q 367 -102 342 -125 q 430 -79 392 -79 q 505 -113 477 -79 q 532 -199 532 -147 z "},"ĸ":{"ha":805,"x_min":30,"x_max":788,"o":"m 788 3 l 781 -4 l 654 0 q 544 -4 642 0 q 498 62 532 16 q 307 307 414 178 l 307 231 q 311 93 307 181 q 326 60 313 68 q 393 50 340 52 l 401 43 l 401 2 l 394 -5 q 222 0 330 0 q 37 -5 100 0 l 30 2 l 30 43 l 37 50 q 98 53 92 52 q 132 93 130 60 q 137 282 137 181 l 137 379 q 127 535 137 511 q 98 552 121 549 q 39 555 90 553 l 32 562 l 32 600 l 39 608 q 301 664 169 619 l 315 655 q 307 447 307 532 l 307 327 q 518 532 451 463 q 570 593 570 587 q 561 605 570 601 l 561 633 l 569 640 q 658 637 616 637 q 758 640 701 637 l 765 633 l 765 591 l 758 584 q 656 560 698 584 q 572 494 635 548 l 452 389 q 499 332 469 368 l 685 106 q 735 62 709 77 q 781 50 754 51 l 788 43 l 788 3 z "},"ĺ":{"ha":463,"x_min":39,"x_max":424,"o":"m 424 2 l 417 -5 q 231 0 353 0 q 46 -5 110 0 l 39 2 l 39 43 l 46 50 q 127 60 111 52 q 142 93 140 66 q 146 401 146 181 l 146 629 q 142 859 146 771 q 127 892 140 884 q 48 902 113 900 l 41 909 l 41 947 l 48 954 q 311 1010 179 968 l 325 1002 q 323 935 325 984 q 316 576 316 773 l 316 401 q 321 93 316 181 q 336 60 322 66 q 416 50 351 52 l 424 43 l 424 2 m 389 1324 l 167 1063 l 129 1083 l 129 1092 l 224 1323 l 372 1343 l 389 1324 z "},"ļ":{"ha":463,"x_min":39,"x_max":424,"o":"m 424 2 l 417 -5 q 231 0 353 0 q 46 -5 110 0 l 39 2 l 39 43 l 46 50 q 127 60 111 52 q 142 93 140 66 q 146 401 146 181 l 146 629 q 142 859 146 771 q 127 892 140 884 q 48 902 113 900 l 41 909 l 41 947 l 48 954 q 311 1010 179 968 l 325 1002 q 323 935 325 984 q 316 576 316 773 l 316 401 q 321 93 316 181 q 336 60 322 66 q 416 50 351 52 l 424 43 l 424 2 m 326 -199 q 273 -325 326 -273 q 142 -385 220 -376 l 137 -368 q 234 -319 205 -353 q 255 -269 255 -294 q 224 -243 255 -243 q 163 -222 186 -243 q 137 -164 137 -201 q 162 -102 137 -125 q 224 -79 186 -79 q 299 -113 272 -79 q 326 -199 326 -147 z "},"ľ":{"ha":600,"x_min":39,"x_max":584,"o":"m 424 2 l 417 -5 q 231 0 353 0 q 46 -5 110 0 l 39 2 l 39 43 l 46 50 q 127 60 111 52 q 142 93 140 66 q 146 401 146 181 l 146 629 q 142 859 146 771 q 127 892 140 884 q 48 902 113 900 l 41 909 l 41 947 l 48 954 q 311 1010 179 968 l 325 1002 q 323 935 325 984 q 316 576 316 773 l 316 401 q 321 93 316 181 q 336 60 322 66 q 416 50 351 52 l 424 43 l 424 2 m 584 890 q 531 764 584 816 q 399 705 477 713 l 395 722 q 492 770 463 736 q 513 821 513 795 q 482 846 513 846 q 420 867 444 846 q 395 925 395 888 q 419 987 395 964 q 482 1010 444 1010 q 557 976 530 1010 q 584 890 584 942 z "},"ŀ":{"ha":596,"x_min":39,"x_max":570,"o":"m 424 2 l 417 -5 q 231 0 353 0 q 46 -5 110 0 l 39 2 l 39 43 l 46 50 q 127 60 111 52 q 142 93 140 66 q 146 401 146 181 l 146 629 q 142 859 146 771 q 127 892 140 884 q 48 902 113 900 l 41 909 l 41 947 l 48 954 q 311 1010 179 968 l 325 1002 q 323 935 325 984 q 316 576 316 773 l 316 401 q 321 93 316 181 q 336 60 322 66 q 416 50 351 52 l 424 43 l 424 2 m 570 536 q 544 474 570 500 q 482 448 518 448 q 420 474 446 448 q 395 536 395 500 q 420 599 395 573 q 482 625 446 625 q 544 600 518 625 q 570 536 570 574 z "},"ł":{"ha":463,"x_min":1,"x_max":467,"o":"m 467 680 l 464 671 l 316 575 l 316 401 q 321 93 316 181 q 336 60 322 66 q 416 50 351 52 l 424 43 l 424 2 l 417 -5 q 231 0 353 0 q 46 -5 110 0 l 39 2 l 39 43 l 46 50 q 127 60 111 52 q 142 93 140 66 q 146 401 146 181 l 146 465 l 25 385 l 16 388 l 1 424 l 3 433 l 146 526 l 146 629 q 142 859 146 771 q 127 892 140 884 q 48 902 113 900 l 41 909 l 41 947 l 48 954 q 311 1010 179 968 l 325 1002 q 323 935 325 984 q 316 637 317 794 l 443 720 l 452 715 l 467 680 z "},"ń":{"ha":848,"x_min":30,"x_max":819,"o":"m 819 3 l 812 -5 q 686 0 738 0 q 548 -5 639 0 l 541 2 q 553 235 553 153 l 553 368 q 434 534 553 534 q 336 491 372 534 q 307 418 307 455 l 307 292 q 315 76 307 116 q 394 51 321 52 l 401 44 l 401 3 l 394 -4 q 222 0 336 0 q 37 -5 100 0 l 30 2 l 30 43 l 37 50 q 117 60 102 52 q 132 93 131 66 q 137 282 137 181 l 137 379 q 127 535 137 515 q 98 552 120 549 q 39 555 90 553 l 32 562 l 32 600 l 39 608 q 296 664 161 619 l 311 655 l 309 541 l 426 639 q 524 657 471 657 q 686 592 632 657 q 729 437 729 539 q 726 342 729 425 q 724 224 724 260 q 727 94 724 122 q 743 58 730 66 q 813 50 755 51 l 819 43 l 819 3 m 600 1000 l 377 739 l 339 759 l 339 768 l 434 999 l 583 1019 l 600 1000 z "},"ñ":{"ha":848,"x_min":30,"x_max":819,"o":"m 819 3 l 812 -5 q 686 0 738 0 q 548 -5 639 0 l 541 2 q 553 235 553 153 l 553 368 q 434 534 553 534 q 336 491 372 534 q 307 418 307 455 l 307 292 q 315 76 307 116 q 394 51 321 52 l 401 44 l 401 3 l 394 -4 q 222 0 336 0 q 37 -5 100 0 l 30 2 l 30 43 l 37 50 q 117 60 102 52 q 132 93 131 66 q 137 282 137 181 l 137 379 q 127 535 137 515 q 98 552 120 549 q 39 555 90 553 l 32 562 l 32 600 l 39 608 q 296 664 161 619 l 311 655 l 309 541 l 426 639 q 524 657 471 657 q 686 592 632 657 q 729 437 729 539 q 726 342 729 425 q 724 224 724 260 q 727 94 724 122 q 743 58 730 66 q 813 50 755 51 l 819 43 l 819 3 m 665 937 q 507 774 623 774 q 398 812 475 774 q 307 846 330 846 q 229 779 253 846 l 186 779 l 182 786 q 340 949 223 949 q 448 911 372 949 q 540 877 517 877 q 617 944 593 877 l 660 944 l 665 937 z "},"ň":{"ha":848,"x_min":30,"x_max":819,"o":"m 819 3 l 812 -5 q 686 0 738 0 q 548 -5 639 0 l 541 2 q 553 235 553 153 l 553 368 q 434 534 553 534 q 336 491 372 534 q 307 418 307 455 l 307 292 q 315 76 307 116 q 394 51 321 52 l 401 44 l 401 3 l 394 -4 q 222 0 336 0 q 37 -5 100 0 l 30 2 l 30 43 l 37 50 q 117 60 102 52 q 132 93 131 66 q 137 282 137 181 l 137 379 q 127 535 137 515 q 98 552 120 549 q 39 555 90 553 l 32 562 l 32 600 l 39 608 q 296 664 161 619 l 311 655 l 309 541 l 426 639 q 524 657 471 657 q 686 592 632 657 q 729 437 729 539 q 726 342 729 425 q 724 224 724 260 q 727 94 724 122 q 743 58 730 66 q 813 50 755 51 l 819 43 l 819 3 m 635 998 l 483 753 l 363 753 l 211 998 l 213 1005 l 265 1005 l 423 842 l 581 1005 l 633 1005 l 635 998 z "},"ņ":{"ha":848,"x_min":30,"x_max":819,"o":"m 819 3 l 812 -5 q 686 0 738 0 q 548 -5 639 0 l 541 2 q 553 235 553 153 l 553 368 q 434 534 553 534 q 336 491 372 534 q 307 418 307 455 l 307 292 q 315 76 307 116 q 394 51 321 52 l 401 44 l 401 3 l 394 -4 q 222 0 336 0 q 37 -5 100 0 l 30 2 l 30 43 l 37 50 q 117 60 102 52 q 132 93 131 66 q 137 282 137 181 l 137 379 q 127 535 137 515 q 98 552 120 549 q 39 555 90 553 l 32 562 l 32 600 l 39 608 q 296 664 161 619 l 311 655 l 309 541 l 426 639 q 524 657 471 657 q 686 592 632 657 q 729 437 729 539 q 726 342 729 425 q 724 224 724 260 q 727 94 724 122 q 743 58 730 66 q 813 50 755 51 l 819 43 l 819 3 m 528 -199 q 474 -325 528 -273 q 343 -385 421 -376 l 338 -368 q 435 -319 406 -353 q 456 -269 456 -294 q 426 -243 456 -243 q 364 -222 388 -243 q 338 -164 338 -201 q 363 -102 338 -125 q 426 -79 388 -79 q 500 -113 473 -79 q 528 -199 528 -147 z "},"ŉ":{"ha":1108,"x_min":15,"x_max":1079,"o":"m 1079 3 l 1072 -5 q 946 0 998 0 q 808 -5 899 0 l 801 2 q 813 235 813 153 l 813 368 q 694 534 813 534 q 596 491 631 534 q 566 418 566 455 l 566 292 q 575 76 566 116 q 654 51 581 52 l 661 44 l 661 3 l 654 -4 q 481 0 596 0 q 296 -5 360 0 l 290 2 l 290 43 l 296 50 q 377 60 361 52 q 392 93 391 66 q 397 282 397 181 l 397 379 q 387 535 397 515 q 357 552 380 549 q 298 555 349 553 l 292 562 l 292 600 l 298 608 q 555 664 420 619 l 570 655 l 569 541 l 686 639 q 784 657 730 657 q 945 592 892 657 q 989 437 989 539 q 986 342 989 425 q 983 224 983 260 q 987 94 983 122 q 1002 58 990 66 q 1073 50 1015 51 l 1079 43 l 1079 3 m 204 832 q 151 707 204 758 q 20 647 98 655 l 15 664 q 112 713 83 678 q 133 763 133 738 q 102 789 133 789 q 41 809 64 789 q 15 867 15 831 q 40 929 15 906 q 102 953 64 953 q 177 919 150 953 q 204 832 204 884 z "},"ó":{"ha":772,"x_min":56,"x_max":717,"o":"m 717 336 q 555 12 717 96 q 376 -30 477 -30 q 138 60 220 -30 q 56 319 56 151 q 215 629 56 551 q 396 667 293 667 q 683 517 612 667 q 717 336 717 445 m 529 281 q 492 523 529 450 q 379 595 455 595 q 244 352 244 595 q 395 39 244 39 q 515 143 490 39 q 529 281 529 197 m 393 -53 m 393 690 m 567 1000 l 345 739 l 307 759 l 307 768 l 401 999 l 550 1019 l 567 1000 z "},"ò":{"ha":772,"x_min":56,"x_max":717,"o":"m 717 336 q 555 12 717 96 q 376 -30 477 -30 q 138 60 220 -30 q 56 319 56 151 q 215 629 56 551 q 396 667 293 667 q 683 517 612 667 q 717 336 717 445 m 529 281 q 492 523 529 450 q 379 595 455 595 q 244 352 244 595 q 395 39 244 39 q 515 143 490 39 q 529 281 529 197 m 393 -53 m 393 690 m 480 759 l 442 739 l 220 1000 l 237 1019 l 385 999 l 480 768 l 480 759 z "},"ô":{"ha":772,"x_min":56,"x_max":717,"o":"m 717 336 q 555 12 717 96 q 376 -30 477 -30 q 138 60 220 -30 q 56 319 56 151 q 215 629 56 551 q 396 667 293 667 q 683 517 612 667 q 717 336 717 445 m 529 281 q 492 523 529 450 q 379 595 455 595 q 244 352 244 595 q 395 39 244 39 q 515 143 490 39 q 529 281 529 197 m 393 -53 m 393 690 m 606 760 l 604 753 l 551 753 l 393 916 l 235 753 l 183 753 l 181 760 l 334 1005 l 453 1005 l 606 760 m 393 977 m 640 833 z "},"ö":{"ha":772,"x_min":56,"x_max":717,"o":"m 717 336 q 555 12 717 96 q 376 -30 477 -30 q 138 60 220 -30 q 56 319 56 151 q 215 629 56 551 q 396 667 293 667 q 683 517 612 667 q 717 336 717 445 m 529 281 q 492 523 529 450 q 379 595 455 595 q 244 352 244 595 q 395 39 244 39 q 515 143 490 39 q 529 281 529 197 m 393 -53 m 393 690 m 619 849 q 593 786 619 812 q 532 760 568 760 q 470 786 496 760 q 444 849 444 812 q 470 912 444 886 q 532 938 496 938 q 593 912 568 938 q 619 849 619 887 m 342 849 q 317 786 342 812 q 255 760 291 760 q 193 786 219 760 q 168 849 168 812 q 193 912 168 886 q 255 938 219 938 q 317 912 291 938 q 342 849 342 886 z "},"õ":{"ha":772,"x_min":56,"x_max":717,"o":"m 717 336 q 555 12 717 96 q 376 -30 477 -30 q 138 60 220 -30 q 56 319 56 151 q 215 629 56 551 q 396 667 293 667 q 683 517 612 667 q 717 336 717 445 m 529 281 q 492 523 529 450 q 379 595 455 595 q 244 352 244 595 q 395 39 244 39 q 515 143 490 39 q 529 281 529 197 m 393 -53 m 393 690 m 635 937 q 477 774 593 774 q 368 812 445 774 q 277 846 300 846 q 199 779 223 846 l 157 779 l 152 786 q 310 949 193 949 q 418 911 342 949 q 510 877 487 877 q 587 944 564 877 l 630 944 l 635 937 z "},"ŏ":{"ha":772,"x_min":56,"x_max":717,"o":"m 717 336 q 555 12 717 96 q 376 -30 477 -30 q 138 60 220 -30 q 56 319 56 151 q 215 629 56 551 q 396 667 293 667 q 683 517 612 667 q 717 336 717 445 m 529 281 q 492 523 529 450 q 379 595 455 595 q 244 352 244 595 q 395 39 244 39 q 515 143 490 39 q 529 281 529 197 m 393 -53 m 393 690 m 586 958 q 530 818 584 874 q 393 762 475 762 q 257 818 311 762 q 201 958 203 874 l 208 964 l 248 964 q 393 864 272 864 q 538 964 515 864 l 579 964 l 586 958 m 393 964 z "},"ő":{"ha":772,"x_min":56,"x_max":718,"o":"m 717 336 q 555 12 717 96 q 376 -30 477 -30 q 138 60 220 -30 q 56 319 56 151 q 215 629 56 551 q 396 667 293 667 q 683 517 612 667 q 717 336 717 445 m 529 281 q 492 523 529 450 q 379 595 455 595 q 244 352 244 595 q 395 39 244 39 q 515 143 490 39 q 529 281 529 197 m 393 -53 m 393 690 m 718 1000 l 496 739 l 458 759 l 458 768 l 553 999 l 701 1019 l 718 1000 m 492 1000 l 270 739 l 232 759 l 232 768 l 327 999 l 475 1019 l 492 1000 z "},"ō":{"ha":772,"x_min":56,"x_max":717,"o":"m 717 336 q 555 12 717 96 q 376 -30 477 -30 q 138 60 220 -30 q 56 319 56 151 q 215 629 56 551 q 396 667 293 667 q 683 517 612 667 q 717 336 717 445 m 529 281 q 492 523 529 450 q 379 595 455 595 q 244 352 244 595 q 395 39 244 39 q 515 143 490 39 q 529 281 529 197 m 393 -53 m 393 690 m 612 803 l 174 803 l 174 888 l 612 888 l 612 803 z "},"ø":{"ha":772,"x_min":28,"x_max":724,"o":"m 724 631 l 656 562 q 717 336 717 481 q 555 12 717 96 q 376 -30 477 -30 q 151 47 231 -30 l 68 -36 l 58 -36 l 28 -7 l 28 2 l 115 90 q 56 319 56 176 q 215 629 56 551 q 396 667 293 667 q 618 601 539 667 l 685 669 l 696 669 l 724 640 l 724 631 m 506 487 q 379 595 472 595 q 244 352 244 595 q 252 229 244 283 l 506 487 m 529 281 q 520 424 529 365 l 264 163 q 395 39 300 39 q 515 143 490 39 q 529 281 529 197 z "},"ǿ":{"ha":772,"x_min":28,"x_max":724,"o":"m 724 631 l 656 562 q 717 336 717 481 q 555 12 717 96 q 376 -30 477 -30 q 151 47 231 -30 l 68 -36 l 58 -36 l 28 -7 l 28 2 l 115 90 q 56 319 56 176 q 215 629 56 551 q 396 667 293 667 q 618 601 539 667 l 685 669 l 696 669 l 724 640 l 724 631 m 506 487 q 379 595 472 595 q 244 352 244 595 q 252 229 244 283 l 506 487 m 529 281 q 520 424 529 365 l 264 163 q 395 39 300 39 q 515 143 490 39 q 529 281 529 197 m 567 1000 l 345 739 l 307 759 l 307 768 l 401 999 l 550 1019 l 567 1000 z "},"œ":{"ha":1157,"x_min":61,"x_max":1108,"o":"m 1108 380 q 1107 346 1108 369 l 1100 336 q 863 312 1010 312 q 783 311 836 312 q 702 310 729 310 q 762 146 705 212 q 920 75 823 75 q 1075 120 989 75 l 1092 100 l 1061 33 q 847 -30 963 -30 q 618 60 702 -30 q 376 -32 526 -32 q 149 55 228 -32 q 61 318 61 151 q 150 568 61 479 q 404 657 239 657 q 637 576 555 657 q 854 657 753 657 q 1040 588 973 657 q 1108 380 1108 516 m 931 398 q 817 581 931 581 q 697 399 697 581 l 697 385 q 837 378 736 378 q 930 385 889 378 q 931 398 931 394 m 537 267 q 500 517 537 436 q 387 588 469 588 q 251 365 251 588 q 287 121 251 202 q 404 37 324 37 q 537 267 537 37 z "},"ŕ":{"ha":541,"x_min":34,"x_max":539,"o":"m 539 655 l 534 534 q 532 467 534 505 l 503 458 q 415 504 471 504 q 331 463 364 504 q 311 389 311 438 l 311 231 q 315 93 311 181 q 330 60 317 68 q 424 50 342 53 l 431 44 l 431 3 l 424 -4 q 226 0 324 0 q 41 -5 104 0 l 34 2 l 34 43 l 41 50 q 121 60 106 52 q 136 93 135 66 q 141 282 141 181 l 141 379 q 131 535 141 515 q 102 552 124 549 q 43 555 94 553 l 36 562 l 36 600 l 43 608 q 300 664 165 619 l 315 655 l 313 522 q 415 636 355 571 q 491 663 443 663 q 539 655 519 663 m 477 1000 l 254 739 l 216 759 l 216 768 l 311 999 l 460 1019 l 477 1000 z "},"ř":{"ha":541,"x_min":34,"x_max":539,"o":"m 539 655 l 534 534 q 532 467 534 505 l 503 458 q 415 504 471 504 q 331 463 364 504 q 311 389 311 438 l 311 231 q 315 93 311 181 q 330 60 317 68 q 424 50 342 53 l 431 44 l 431 3 l 424 -4 q 226 0 324 0 q 41 -5 104 0 l 34 2 l 34 43 l 41 50 q 121 60 106 52 q 136 93 135 66 q 141 282 141 181 l 141 379 q 131 535 141 515 q 102 552 124 549 q 43 555 94 553 l 36 562 l 36 600 l 43 608 q 300 664 165 619 l 315 655 l 313 522 q 415 636 355 571 q 491 663 443 663 q 539 655 519 663 m 511 998 l 359 753 l 239 753 l 87 998 l 89 1005 l 141 1005 l 299 842 l 457 1005 l 509 1005 l 511 998 z "},"ŗ":{"ha":541,"x_min":34,"x_max":539,"o":"m 539 655 l 534 534 q 532 467 534 505 l 503 458 q 415 504 471 504 q 331 463 364 504 q 311 389 311 438 l 311 231 q 315 93 311 181 q 330 60 317 68 q 424 50 342 53 l 431 44 l 431 3 l 424 -4 q 226 0 324 0 q 41 -5 104 0 l 34 2 l 34 43 l 41 50 q 121 60 106 52 q 136 93 135 66 q 141 282 141 181 l 141 379 q 131 535 141 515 q 102 552 124 549 q 43 555 94 553 l 36 562 l 36 600 l 43 608 q 300 664 165 619 l 315 655 l 313 522 q 415 636 355 571 q 491 663 443 663 q 539 655 519 663 m 338 -199 q 284 -325 338 -273 q 153 -385 231 -376 l 149 -368 q 245 -319 216 -353 q 267 -269 267 -294 q 236 -243 267 -243 q 174 -222 198 -243 q 149 -164 149 -201 q 173 -102 149 -125 q 236 -79 198 -79 q 311 -113 283 -79 q 338 -199 338 -147 z "},"ś":{"ha":616,"x_min":62,"x_max":569,"o":"m 569 213 q 487 37 569 104 q 271 -30 404 -30 q 69 11 177 -30 l 62 21 q 69 118 68 83 l 73 203 l 79 211 l 119 211 l 127 203 q 134 114 130 127 q 285 40 191 40 q 380 69 345 40 q 416 147 416 98 q 362 229 416 209 q 271 252 339 238 q 121 307 159 276 q 63 443 63 353 q 134 601 63 541 q 336 663 209 663 q 517 627 445 663 l 523 616 q 511 459 515 585 l 504 452 l 465 452 l 458 459 q 448 538 455 508 q 324 593 406 593 q 237 567 271 593 q 203 499 203 541 q 261 424 203 443 q 361 401 287 416 q 512 349 475 378 q 569 213 569 304 m 510 1000 l 288 739 l 250 759 l 250 768 l 345 999 l 493 1019 l 510 1000 z "},"ŝ":{"ha":616,"x_min":62,"x_max":569,"o":"m 569 213 q 487 37 569 104 q 271 -30 404 -30 q 69 11 177 -30 l 62 21 q 69 118 68 83 l 73 203 l 79 211 l 119 211 l 127 203 q 134 114 130 127 q 285 40 191 40 q 380 69 345 40 q 416 147 416 98 q 362 229 416 209 q 271 252 339 238 q 121 307 159 276 q 63 443 63 353 q 134 601 63 541 q 336 663 209 663 q 517 627 445 663 l 523 616 q 511 459 515 585 l 504 452 l 465 452 l 458 459 q 448 538 455 508 q 324 593 406 593 q 237 567 271 593 q 203 499 203 541 q 261 424 203 443 q 361 401 287 416 q 512 349 475 378 q 569 213 569 304 m 525 760 l 523 753 l 471 753 l 313 916 l 155 753 l 102 753 l 100 760 l 253 1005 l 372 1005 l 525 760 m 313 977 m 559 833 z "},"š":{"ha":616,"x_min":62,"x_max":569,"o":"m 569 213 q 487 37 569 104 q 271 -30 404 -30 q 69 11 177 -30 l 62 21 q 69 118 68 83 l 73 203 l 79 211 l 119 211 l 127 203 q 134 114 130 127 q 285 40 191 40 q 380 69 345 40 q 416 147 416 98 q 362 229 416 209 q 271 252 339 238 q 121 307 159 276 q 63 443 63 353 q 134 601 63 541 q 336 663 209 663 q 517 627 445 663 l 523 616 q 511 459 515 585 l 504 452 l 465 452 l 458 459 q 448 538 455 508 q 324 593 406 593 q 237 567 271 593 q 203 499 203 541 q 261 424 203 443 q 361 401 287 416 q 512 349 475 378 q 569 213 569 304 m 525 998 l 372 753 l 253 753 l 100 998 l 102 1005 l 155 1005 l 313 842 l 471 1005 l 523 1005 l 525 998 z "},"ș":{"ha":616,"x_min":62,"x_max":569,"o":"m 569 213 q 487 37 569 104 q 271 -30 404 -30 q 69 11 177 -30 l 62 21 q 69 118 68 83 l 73 203 l 79 211 l 119 211 l 127 203 q 134 114 130 127 q 285 40 191 40 q 380 69 345 40 q 416 147 416 98 q 362 229 416 209 q 271 252 339 238 q 121 307 159 276 q 63 443 63 353 q 134 601 63 541 q 336 663 209 663 q 517 627 445 663 l 523 616 q 511 459 515 585 l 504 452 l 465 452 l 458 459 q 448 538 455 508 q 324 593 406 593 q 237 567 271 593 q 203 499 203 541 q 261 424 203 443 q 361 401 287 416 q 512 349 475 378 q 569 213 569 304 m 397 -199 q 343 -325 397 -273 q 212 -385 290 -376 l 208 -368 q 304 -319 275 -353 q 326 -269 326 -294 q 295 -243 326 -243 q 233 -222 257 -243 q 208 -164 208 -201 q 232 -102 208 -125 q 295 -79 257 -79 q 370 -113 342 -79 q 397 -199 397 -147 z "},"ş":{"ha":616,"x_min":62,"x_max":569,"o":"m 569 213 q 487 37 569 104 q 323 -27 421 -16 l 294 -94 q 338 -90 317 -90 q 428 -118 393 -90 q 463 -191 463 -146 q 414 -279 463 -242 q 284 -317 366 -317 q 157 -294 218 -317 l 154 -283 l 167 -254 l 177 -251 q 248 -266 220 -266 q 310 -248 286 -266 q 337 -194 337 -229 q 319 -154 337 -170 q 277 -139 302 -139 q 239 -142 259 -139 l 226 -132 l 269 -30 q 69 11 176 -29 l 62 21 q 69 118 68 83 l 73 203 l 79 211 l 119 211 l 127 203 q 134 114 130 127 q 285 40 191 40 q 380 69 345 40 q 416 147 416 98 q 362 229 416 209 q 271 252 340 238 q 121 307 159 276 q 63 443 63 353 q 148 612 63 552 q 336 663 222 663 q 517 627 445 663 l 523 616 q 511 459 515 585 l 504 452 l 465 452 l 458 459 q 448 538 455 508 q 324 593 406 593 q 237 567 271 593 q 203 499 203 541 q 261 424 203 443 q 361 401 286 416 q 512 349 475 378 q 569 213 569 304 z "},"ț":{"ha":463,"x_min":31,"x_max":452,"o":"m 452 89 q 422 60 447 83 q 354 -9 382 22 q 287 -20 321 -20 q 149 35 193 -20 q 125 90 131 59 q 119 188 118 127 l 121 350 l 121 519 l 102 519 l 66 518 l 39 518 l 31 524 l 31 542 l 37 552 q 75 576 49 560 q 121 608 105 595 l 121 701 q 115 823 121 758 q 198 851 166 839 q 287 892 229 864 l 304 879 q 293 728 296 795 l 287 611 l 309 611 q 437 616 383 611 l 444 608 l 435 529 l 428 522 l 287 522 l 287 292 q 290 162 287 182 q 314 116 293 134 q 370 98 334 98 q 437 113 397 98 l 452 89 m 353 -199 q 299 -325 353 -273 q 168 -385 246 -376 l 163 -368 q 260 -319 231 -353 q 281 -269 281 -294 q 251 -243 281 -243 q 189 -222 213 -243 q 163 -164 163 -201 q 188 -102 163 -125 q 251 -79 213 -79 q 326 -113 298 -79 q 353 -199 353 -147 z "},"ť":{"ha":595,"x_min":31,"x_max":579,"o":"m 452 89 q 422 60 447 83 q 354 -9 382 22 q 287 -20 321 -20 q 149 35 193 -20 q 125 90 131 59 q 119 188 118 127 l 121 350 l 121 519 l 102 519 l 66 518 l 39 518 l 31 524 l 31 542 l 37 552 q 75 576 49 560 q 121 608 105 595 l 121 701 q 115 823 121 758 q 198 851 166 839 q 287 892 229 864 l 304 879 q 293 728 296 795 l 287 611 l 309 611 q 437 616 383 611 l 444 608 l 435 529 l 428 522 l 287 522 l 287 292 q 290 162 287 182 q 314 116 293 134 q 370 98 334 98 q 437 113 397 98 l 452 89 m 579 890 q 526 764 579 816 q 395 705 473 713 l 390 722 q 487 770 458 736 q 508 821 508 795 q 477 846 508 846 q 416 867 439 846 q 390 925 390 888 q 415 987 390 964 q 477 1010 439 1010 q 552 976 525 1010 q 579 890 579 942 z "},"ţ":{"ha":463,"x_min":31,"x_max":452,"o":"m 452 89 q 422 60 447 83 q 354 -9 382 22 q 287 -20 321 -20 q 149 35 193 -20 q 125 90 131 59 q 119 188 118 127 l 121 350 l 121 519 l 102 519 l 66 518 l 39 518 l 31 524 l 31 542 l 37 552 q 75 576 49 560 q 121 608 105 595 l 121 701 q 115 823 121 758 q 198 851 166 839 q 287 892 229 864 l 304 879 q 293 728 296 795 l 287 611 l 309 611 q 437 616 383 611 l 444 608 l 435 529 l 428 522 l 287 522 l 287 292 q 290 162 287 182 q 314 116 293 134 q 370 98 334 98 q 437 113 397 98 l 452 89 m 406 -191 q 357 -279 406 -242 q 227 -317 309 -317 q 100 -294 161 -317 l 97 -283 l 110 -254 l 120 -251 q 191 -266 163 -266 q 253 -248 229 -266 q 280 -194 280 -229 q 262 -154 280 -170 q 220 -139 245 -139 q 182 -142 202 -139 l 176 -136 l 186 -104 q 281 -90 233 -90 q 371 -118 336 -90 q 406 -191 406 -146 z "},"ŧ":{"ha":463,"x_min":31,"x_max":452,"o":"m 452 89 q 422 60 447 83 q 354 -9 382 22 q 287 -20 321 -20 q 149 35 193 -20 q 125 90 131 59 q 119 188 118 127 l 121 347 l 102 347 l 39 345 l 31 352 l 31 370 l 36 379 q 75 404 39 381 q 121 437 104 422 l 121 519 l 102 519 l 66 518 l 39 518 l 31 524 l 31 542 l 37 552 q 75 576 49 560 q 121 608 105 595 l 121 701 q 115 823 121 758 q 198 851 166 839 q 287 892 229 864 l 304 879 q 293 728 296 795 l 287 611 l 309 611 q 437 616 383 611 l 444 608 l 435 529 l 428 522 l 287 522 l 287 438 l 309 438 q 437 444 394 438 l 444 436 l 435 357 l 428 349 l 353 350 l 287 349 l 287 292 q 290 162 287 182 q 314 116 293 134 q 370 98 334 98 q 437 113 397 98 l 452 89 z "},"ú":{"ha":848,"x_min":29,"x_max":814,"o":"m 814 3 l 808 -3 q 680 0 706 0 q 613 -2 657 0 q 547 -3 569 -3 l 542 2 q 547 108 547 58 q 424 -5 512 81 q 330 -22 380 -22 q 185 28 238 -22 q 132 172 132 78 q 134 220 132 183 q 135 292 135 258 l 135 379 q 125 535 135 513 q 96 552 118 549 q 36 555 87 553 l 29 562 l 29 600 l 36 608 q 298 664 165 619 l 313 655 q 304 447 304 543 l 304 315 q 311 188 304 222 q 343 126 317 147 q 411 105 368 105 q 504 139 464 105 q 544 216 542 173 q 545 258 545 250 l 545 379 q 535 535 545 512 q 507 552 529 549 q 447 555 498 553 l 439 562 l 439 600 l 447 608 q 709 664 576 619 l 724 655 q 715 447 715 553 l 715 234 q 723 72 715 91 q 736 60 727 62 q 807 52 753 55 l 814 45 l 814 3 m 421 690 m 421 -53 m 595 1000 l 372 739 l 334 759 l 334 768 l 429 999 l 578 1019 l 595 1000 z "},"ù":{"ha":848,"x_min":29,"x_max":814,"o":"m 814 3 l 808 -3 q 680 0 706 0 q 613 -2 657 0 q 547 -3 569 -3 l 542 2 q 547 108 547 58 q 424 -5 512 81 q 330 -22 380 -22 q 185 28 238 -22 q 132 172 132 78 q 134 220 132 183 q 135 292 135 258 l 135 379 q 125 535 135 513 q 96 552 118 549 q 36 555 87 553 l 29 562 l 29 600 l 36 608 q 298 664 165 619 l 313 655 q 304 447 304 543 l 304 315 q 311 188 304 222 q 343 126 317 147 q 411 105 368 105 q 504 139 464 105 q 544 216 542 173 q 545 258 545 250 l 545 379 q 535 535 545 512 q 507 552 529 549 q 447 555 498 553 l 439 562 l 439 600 l 447 608 q 709 664 576 619 l 724 655 q 715 447 715 553 l 715 234 q 723 72 715 91 q 736 60 727 62 q 807 52 753 55 l 814 45 l 814 3 m 421 690 m 421 -53 m 508 759 l 470 739 l 248 1000 l 264 1019 l 413 999 l 508 768 l 508 759 z "},"û":{"ha":848,"x_min":29,"x_max":814,"o":"m 814 3 l 808 -3 q 680 0 706 0 q 613 -2 657 0 q 547 -3 569 -3 l 542 2 q 547 108 547 58 q 424 -5 512 81 q 330 -22 380 -22 q 185 28 238 -22 q 132 172 132 78 q 134 220 132 183 q 135 292 135 258 l 135 379 q 125 535 135 513 q 96 552 118 549 q 36 555 87 553 l 29 562 l 29 600 l 36 608 q 298 664 165 619 l 313 655 q 304 447 304 543 l 304 315 q 311 188 304 222 q 343 126 317 147 q 411 105 368 105 q 504 139 464 105 q 544 216 542 173 q 545 258 545 250 l 545 379 q 535 535 545 512 q 507 552 529 549 q 447 555 498 553 l 439 562 l 439 600 l 447 608 q 709 664 576 619 l 724 655 q 715 447 715 553 l 715 234 q 723 72 715 91 q 736 60 727 62 q 807 52 753 55 l 814 45 l 814 3 m 421 690 m 421 -53 m 633 760 l 631 753 l 579 753 l 421 916 l 263 753 l 211 753 l 209 760 l 361 1005 l 481 1005 l 633 760 m 421 977 m 667 833 z "},"ü":{"ha":848,"x_min":29,"x_max":814,"o":"m 814 3 l 808 -3 q 680 0 706 0 q 613 -2 657 0 q 547 -3 569 -3 l 542 2 q 547 108 547 58 q 424 -5 512 81 q 330 -22 380 -22 q 185 28 238 -22 q 132 172 132 78 q 134 220 132 183 q 135 292 135 258 l 135 379 q 125 535 135 513 q 96 552 118 549 q 36 555 87 553 l 29 562 l 29 600 l 36 608 q 298 664 165 619 l 313 655 q 304 447 304 543 l 304 315 q 311 188 304 222 q 343 126 317 147 q 411 105 368 105 q 504 139 464 105 q 544 216 542 173 q 545 258 545 250 l 545 379 q 535 535 545 512 q 507 552 529 549 q 447 555 498 553 l 439 562 l 439 600 l 447 608 q 709 664 576 619 l 724 655 q 715 447 715 553 l 715 234 q 723 72 715 91 q 736 60 727 62 q 807 52 753 55 l 814 45 l 814 3 m 421 690 m 421 -53 m 647 849 q 621 786 647 812 q 559 760 595 760 q 498 786 524 760 q 472 849 472 812 q 498 912 472 886 q 559 938 524 938 q 621 912 595 938 q 647 849 647 887 m 370 849 q 345 786 370 812 q 283 760 319 760 q 221 786 247 760 q 195 849 195 812 q 221 912 195 886 q 283 938 247 938 q 345 912 319 938 q 370 849 370 886 z "},"ũ":{"ha":848,"x_min":29,"x_max":814,"o":"m 814 3 l 808 -3 q 680 0 706 0 q 613 -2 657 0 q 547 -3 569 -3 l 542 2 q 547 108 547 58 q 424 -5 512 81 q 330 -22 380 -22 q 185 28 238 -22 q 132 172 132 78 q 134 220 132 183 q 135 292 135 258 l 135 379 q 125 535 135 513 q 96 552 118 549 q 36 555 87 553 l 29 562 l 29 600 l 36 608 q 298 664 165 619 l 313 655 q 304 447 304 543 l 304 315 q 311 188 304 222 q 343 126 317 147 q 411 105 368 105 q 504 139 464 105 q 544 216 542 173 q 545 258 545 250 l 545 379 q 535 535 545 512 q 507 552 529 549 q 447 555 498 553 l 439 562 l 439 600 l 447 608 q 709 664 576 619 l 724 655 q 715 447 715 553 l 715 234 q 723 72 715 91 q 736 60 727 62 q 807 52 753 55 l 814 45 l 814 3 m 421 690 m 421 -53 m 663 937 q 505 774 621 774 q 396 812 473 774 q 304 846 328 846 q 227 779 251 846 l 184 779 l 180 786 q 338 949 221 949 q 446 911 370 949 q 538 877 515 877 q 615 944 591 877 l 658 944 l 663 937 z "},"ŭ":{"ha":848,"x_min":29,"x_max":814,"o":"m 814 3 l 808 -3 q 680 0 706 0 q 613 -2 657 0 q 547 -3 569 -3 l 542 2 q 547 108 547 58 q 424 -5 512 81 q 330 -22 380 -22 q 185 28 238 -22 q 132 172 132 78 q 134 220 132 183 q 135 292 135 258 l 135 379 q 125 535 135 513 q 96 552 118 549 q 36 555 87 553 l 29 562 l 29 600 l 36 608 q 298 664 165 619 l 313 655 q 304 447 304 543 l 304 315 q 311 188 304 222 q 343 126 317 147 q 411 105 368 105 q 504 139 464 105 q 544 216 542 173 q 545 258 545 250 l 545 379 q 535 535 545 512 q 507 552 529 549 q 447 555 498 553 l 439 562 l 439 600 l 447 608 q 709 664 576 619 l 724 655 q 715 447 715 553 l 715 234 q 723 72 715 91 q 736 60 727 62 q 807 52 753 55 l 814 45 l 814 3 m 421 690 m 421 -53 m 614 958 q 557 818 612 874 q 421 762 503 762 q 285 818 339 762 q 229 958 231 874 l 235 964 l 276 964 q 421 864 300 864 q 566 964 543 864 l 607 964 l 614 958 m 421 964 z "},"ů":{"ha":848,"x_min":29,"x_max":814,"o":"m 814 3 l 808 -3 q 680 0 706 0 q 613 -2 657 0 q 547 -3 569 -3 l 542 2 q 547 108 547 58 q 424 -5 512 81 q 330 -22 380 -22 q 185 28 238 -22 q 132 172 132 78 q 134 220 132 183 q 135 292 135 258 l 135 379 q 125 535 135 513 q 96 552 118 549 q 36 555 87 553 l 29 562 l 29 600 l 36 608 q 298 664 165 619 l 313 655 q 304 447 304 543 l 304 315 q 311 188 304 222 q 343 126 317 147 q 411 105 368 105 q 504 139 464 105 q 544 216 542 173 q 545 258 545 250 l 545 379 q 535 535 545 512 q 507 552 529 549 q 447 555 498 553 l 439 562 l 439 600 l 447 608 q 709 664 576 619 l 724 655 q 715 447 715 553 l 715 234 q 723 72 715 91 q 736 60 727 62 q 807 52 753 55 l 814 45 l 814 3 m 421 690 m 421 -53 m 557 866 q 518 777 557 810 q 421 743 480 743 q 325 776 362 743 q 286 866 286 810 q 325 956 286 922 q 421 989 362 989 q 517 956 480 989 q 557 866 557 922 m 490 866 q 472 925 490 901 q 421 949 454 949 q 370 925 389 949 q 352 866 352 901 q 370 808 352 831 q 421 783 389 783 q 473 808 454 783 q 490 866 490 831 z "},"ű":{"ha":848,"x_min":29,"x_max":814,"o":"m 814 3 l 808 -3 q 680 0 706 0 q 613 -2 657 0 q 547 -3 569 -3 l 542 2 q 547 108 547 58 q 424 -5 512 81 q 330 -22 380 -22 q 185 28 238 -22 q 132 172 132 78 q 134 220 132 183 q 135 292 135 258 l 135 379 q 125 535 135 513 q 96 552 118 549 q 36 555 87 553 l 29 562 l 29 600 l 36 608 q 298 664 165 619 l 313 655 q 304 447 304 543 l 304 315 q 311 188 304 222 q 343 126 317 147 q 411 105 368 105 q 504 139 464 105 q 544 216 542 173 q 545 258 545 250 l 545 379 q 535 535 545 512 q 507 552 529 549 q 447 555 498 553 l 439 562 l 439 600 l 447 608 q 709 664 576 619 l 724 655 q 715 447 715 553 l 715 234 q 723 72 715 91 q 736 60 727 62 q 807 52 753 55 l 814 45 l 814 3 m 421 690 m 421 -53 m 746 1000 l 524 739 l 486 759 l 486 768 l 581 999 l 729 1019 l 746 1000 m 520 1000 l 298 739 l 260 759 l 260 768 l 355 999 l 503 1019 l 520 1000 z "},"ū":{"ha":848,"x_min":29,"x_max":814,"o":"m 814 3 l 808 -3 q 680 0 706 0 q 613 -2 657 0 q 547 -3 569 -3 l 542 2 q 547 108 547 58 q 424 -5 512 81 q 330 -22 380 -22 q 185 28 238 -22 q 132 172 132 78 q 134 220 132 183 q 135 292 135 258 l 135 379 q 125 535 135 513 q 96 552 118 549 q 36 555 87 553 l 29 562 l 29 600 l 36 608 q 298 664 165 619 l 313 655 q 304 447 304 543 l 304 315 q 311 188 304 222 q 343 126 317 147 q 411 105 368 105 q 504 139 464 105 q 544 216 542 173 q 545 258 545 250 l 545 379 q 535 535 545 512 q 507 552 529 549 q 447 555 498 553 l 439 562 l 439 600 l 447 608 q 709 664 576 619 l 724 655 q 715 447 715 553 l 715 234 q 723 72 715 91 q 736 60 727 62 q 807 52 753 55 l 814 45 l 814 3 m 421 690 m 421 -53 m 640 803 l 202 803 l 202 888 l 640 888 l 640 803 z "},"ų":{"ha":848,"x_min":29,"x_max":814,"o":"m 814 3 l 808 -3 l 701 0 q 614 -152 614 -64 q 708 -241 614 -241 q 795 -223 750 -241 l 804 -227 l 809 -249 l 805 -258 q 748 -285 782 -273 q 661 -298 709 -298 q 555 -266 595 -298 q 513 -172 513 -231 q 555 -68 513 -117 q 644 -1 590 -26 l 613 -1 q 547 -3 554 -3 l 542 2 q 547 108 547 58 q 424 -5 512 81 q 330 -22 380 -22 q 184 29 237 -22 q 132 172 132 79 q 134 220 132 183 q 135 292 135 258 l 135 379 q 125 535 135 514 q 96 552 118 549 q 36 555 87 553 l 29 562 l 29 600 l 36 608 q 298 664 165 619 l 313 655 q 304 447 304 543 l 304 315 q 311 188 304 223 q 343 126 317 147 q 411 105 368 105 q 504 139 464 105 q 544 216 542 173 q 545 258 545 250 l 545 379 q 535 535 545 512 q 507 552 529 549 q 447 555 498 553 l 439 562 l 439 600 l 447 608 q 709 664 576 619 l 724 655 q 715 447 715 553 l 715 234 q 723 72 715 91 q 736 60 727 62 q 807 52 753 55 l 814 45 l 814 3 z "},"ẃ":{"ha":1157,"x_min":22,"x_max":1139,"o":"m 1139 593 l 1131 586 q 1080 580 1091 585 q 1062 565 1069 576 q 1033 496 1054 553 q 983 355 1008 429 l 905 119 q 884 53 895 90 l 866 -12 l 755 -12 l 681 170 l 572 422 q 405 45 478 226 l 382 -12 l 272 -12 q 260 40 270 -6 q 243 106 254 66 l 143 461 q 112 560 121 540 q 94 579 105 574 q 28 586 83 584 l 22 593 l 22 633 l 29 640 q 204 638 82 638 q 390 640 329 638 l 397 633 l 397 593 l 390 587 q 319 582 337 587 q 302 562 302 577 q 309 522 302 547 l 391 209 l 553 571 q 590 657 570 612 l 659 657 l 851 209 l 918 411 q 955 557 955 524 q 943 578 955 574 q 867 586 932 583 l 860 593 l 860 633 l 868 640 q 1009 638 919 638 q 1131 640 1076 638 l 1139 633 l 1139 593 m 781 1000 l 558 739 l 520 759 l 520 768 l 615 999 l 764 1019 l 781 1000 z "},"ẁ":{"ha":1157,"x_min":22,"x_max":1139,"o":"m 1139 593 l 1131 586 q 1080 580 1091 585 q 1062 565 1069 576 q 1033 496 1054 553 q 983 355 1008 429 l 905 119 q 884 53 895 90 l 866 -12 l 755 -12 l 681 170 l 572 422 q 405 45 478 226 l 382 -12 l 272 -12 q 260 40 270 -6 q 243 106 254 66 l 143 461 q 112 560 121 540 q 94 579 105 574 q 28 586 83 584 l 22 593 l 22 633 l 29 640 q 204 638 82 638 q 390 640 329 638 l 397 633 l 397 593 l 390 587 q 319 582 337 587 q 302 562 302 577 q 309 522 302 547 l 391 209 l 553 571 q 590 657 570 612 l 659 657 l 851 209 l 918 411 q 955 557 955 524 q 943 578 955 574 q 867 586 932 583 l 860 593 l 860 633 l 868 640 q 1009 638 919 638 q 1131 640 1076 638 l 1139 633 l 1139 593 m 694 759 l 656 739 l 433 1000 l 450 1019 l 599 999 l 694 768 l 694 759 z "},"ŵ":{"ha":1157,"x_min":22,"x_max":1139,"o":"m 1139 593 l 1131 586 q 1080 580 1091 585 q 1062 565 1069 576 q 1033 496 1054 553 q 983 355 1008 429 l 905 119 q 884 53 895 90 l 866 -12 l 755 -12 l 681 170 l 572 422 q 405 45 478 226 l 382 -12 l 272 -12 q 260 40 270 -6 q 243 106 254 66 l 143 461 q 112 560 121 540 q 94 579 105 574 q 28 586 83 584 l 22 593 l 22 633 l 29 640 q 204 638 82 638 q 390 640 329 638 l 397 633 l 397 593 l 390 587 q 319 582 337 587 q 302 562 302 577 q 309 522 302 547 l 391 209 l 553 571 q 590 657 570 612 l 659 657 l 851 209 l 918 411 q 955 557 955 524 q 943 578 955 574 q 867 586 932 583 l 860 593 l 860 633 l 868 640 q 1009 638 919 638 q 1131 640 1076 638 l 1139 633 l 1139 593 m 819 760 l 817 753 l 765 753 l 607 916 l 449 753 l 397 753 l 395 760 l 547 1005 l 667 1005 l 819 760 m 607 977 m 853 833 z "},"ẅ":{"ha":1157,"x_min":22,"x_max":1139,"o":"m 1139 593 l 1131 586 q 1080 580 1091 585 q 1062 565 1069 576 q 1033 496 1054 553 q 983 355 1008 429 l 905 119 q 884 53 895 90 l 866 -12 l 755 -12 l 681 170 l 572 422 q 405 45 478 226 l 382 -12 l 272 -12 q 260 40 270 -6 q 243 106 254 66 l 143 461 q 112 560 121 540 q 94 579 105 574 q 28 586 83 584 l 22 593 l 22 633 l 29 640 q 204 638 82 638 q 390 640 329 638 l 397 633 l 397 593 l 390 587 q 319 582 337 587 q 302 562 302 577 q 309 522 302 547 l 391 209 l 553 571 q 590 657 570 612 l 659 657 l 851 209 l 918 411 q 955 557 955 524 q 943 578 955 574 q 867 586 932 583 l 860 593 l 860 633 l 868 640 q 1009 638 919 638 q 1131 640 1076 638 l 1139 633 l 1139 593 m 833 849 q 807 786 833 812 q 745 760 781 760 q 684 786 709 760 q 658 849 658 812 q 684 912 658 886 q 745 938 709 938 q 807 912 781 938 q 833 849 833 887 m 556 849 q 530 786 556 812 q 469 760 505 760 q 407 786 433 760 q 381 849 381 812 q 407 912 381 886 q 469 938 433 938 q 530 912 505 938 q 556 849 556 886 z "},"ý":{"ha":772,"x_min":17,"x_max":758,"o":"m 758 592 l 751 586 q 690 560 707 586 q 642 460 682 545 q 495 123 553 267 l 386 -147 q 277 -326 335 -273 q 142 -375 222 -375 q 45 -351 92 -375 q 69 -216 57 -303 l 87 -213 q 182 -263 122 -263 q 313 -124 254 -263 l 341 -59 l 121 512 q 86 573 102 562 q 24 586 71 585 l 17 593 l 17 633 l 24 640 q 191 638 68 638 q 376 640 304 638 l 382 633 l 382 593 l 376 586 q 298 558 298 586 q 305 528 298 546 q 338 435 316 497 l 437 174 l 497 317 q 585 562 585 526 q 506 586 585 586 l 499 593 l 499 633 l 507 640 q 640 638 546 638 q 750 640 692 638 l 758 633 l 758 592 m 550 -53 m 393 690 m 567 1000 l 345 739 l 307 759 l 307 768 l 401 999 l 550 1019 l 567 1000 z "},"ỳ":{"ha":772,"x_min":17,"x_max":758,"o":"m 758 592 l 751 586 q 690 560 707 586 q 642 460 682 545 q 495 123 553 267 l 386 -147 q 277 -326 335 -273 q 142 -375 222 -375 q 45 -351 92 -375 q 69 -216 57 -303 l 87 -213 q 182 -263 122 -263 q 313 -124 254 -263 l 341 -59 l 121 512 q 86 573 102 562 q 24 586 71 585 l 17 593 l 17 633 l 24 640 q 191 638 68 638 q 376 640 304 638 l 382 633 l 382 593 l 376 586 q 298 558 298 586 q 305 528 298 546 q 338 435 316 497 l 437 174 l 497 317 q 585 562 585 526 q 506 586 585 586 l 499 593 l 499 633 l 507 640 q 640 638 546 638 q 750 640 692 638 l 758 633 l 758 592 m 550 -53 m 393 690 m 480 759 l 442 739 l 220 1000 l 237 1019 l 385 999 l 480 768 l 480 759 z "},"ŷ":{"ha":772,"x_min":17,"x_max":758,"o":"m 758 592 l 751 586 q 690 560 707 586 q 642 460 682 545 q 495 123 553 267 l 386 -147 q 277 -326 335 -273 q 142 -375 222 -375 q 45 -351 92 -375 q 69 -216 57 -303 l 87 -213 q 182 -263 122 -263 q 313 -124 254 -263 l 341 -59 l 121 512 q 86 573 102 562 q 24 586 71 585 l 17 593 l 17 633 l 24 640 q 191 638 68 638 q 376 640 304 638 l 382 633 l 382 593 l 376 586 q 298 558 298 586 q 305 528 298 546 q 338 435 316 497 l 437 174 l 497 317 q 585 562 585 526 q 506 586 585 586 l 499 593 l 499 633 l 507 640 q 640 638 546 638 q 750 640 692 638 l 758 633 l 758 592 m 550 -53 m 393 690 m 606 760 l 604 753 l 551 753 l 393 916 l 235 753 l 183 753 l 181 760 l 334 1005 l 453 1005 l 606 760 m 393 977 m 640 833 z "},"ÿ":{"ha":772,"x_min":17,"x_max":758,"o":"m 758 592 l 751 586 q 690 560 707 586 q 642 460 682 545 q 495 123 553 267 l 386 -147 q 277 -326 335 -273 q 142 -375 222 -375 q 45 -351 92 -375 q 69 -216 57 -303 l 87 -213 q 182 -263 122 -263 q 313 -124 254 -263 l 341 -59 l 121 512 q 86 573 102 562 q 24 586 71 585 l 17 593 l 17 633 l 24 640 q 191 638 68 638 q 376 640 304 638 l 382 633 l 382 593 l 376 586 q 298 558 298 586 q 305 528 298 546 q 338 435 316 497 l 437 174 l 497 317 q 585 562 585 526 q 506 586 585 586 l 499 593 l 499 633 l 507 640 q 640 638 546 638 q 750 640 692 638 l 758 633 l 758 592 m 550 -53 m 393 690 m 619 849 q 593 786 619 812 q 532 760 568 760 q 470 786 496 760 q 444 849 444 812 q 470 912 444 886 q 532 938 496 938 q 593 912 568 938 q 619 849 619 887 m 342 849 q 317 786 342 812 q 255 760 291 760 q 193 786 219 760 q 168 849 168 812 q 193 912 168 886 q 255 938 219 938 q 317 912 291 938 q 342 849 342 886 z "},"ź":{"ha":694,"x_min":24,"x_max":643,"o":"m 643 209 q 628 0 628 70 l 623 -5 q 300 1 406 1 q 31 -5 216 1 l 24 2 l 24 41 q 401 564 94 118 l 322 564 q 153 551 168 564 q 141 517 145 544 q 132 463 140 506 l 131 453 l 123 446 l 83 446 l 76 453 q 81 594 81 574 q 81 635 81 615 l 87 642 q 155 639 109 640 q 321 637 169 638 l 419 636 q 622 641 464 636 l 629 633 l 629 592 l 506 426 q 399 277 461 365 l 309 147 q 259 73 274 96 l 332 71 q 465 75 372 71 q 556 86 547 78 q 587 209 566 94 l 595 216 l 635 216 l 643 209 m 537 1000 l 315 739 l 277 759 l 277 768 l 372 999 l 520 1019 l 537 1000 z "},"ž":{"ha":694,"x_min":24,"x_max":643,"o":"m 643 209 q 628 0 628 70 l 623 -5 q 300 1 406 1 q 31 -5 216 1 l 24 2 l 24 41 q 401 564 94 118 l 322 564 q 153 551 168 564 q 141 517 145 544 q 132 463 140 506 l 131 453 l 123 446 l 83 446 l 76 453 q 81 594 81 574 q 81 635 81 615 l 87 642 q 155 639 109 640 q 321 637 169 638 l 419 636 q 622 641 464 636 l 629 633 l 629 592 l 506 426 q 399 277 461 365 l 309 147 q 259 73 274 96 l 332 71 q 465 75 372 71 q 556 86 547 78 q 587 209 566 94 l 595 216 l 635 216 l 643 209 m 567 998 l 414 753 l 295 753 l 142 998 l 144 1005 l 197 1005 l 355 842 l 513 1005 l 565 1005 l 567 998 z "},"ż":{"ha":694,"x_min":24,"x_max":643,"o":"m 643 209 q 628 0 628 70 l 623 -5 q 300 1 406 1 q 31 -5 216 1 l 24 2 l 24 41 q 401 564 94 118 l 322 564 q 153 551 168 564 q 141 517 145 544 q 132 463 140 506 l 131 453 l 123 446 l 83 446 l 76 453 q 81 594 81 574 q 81 635 81 615 l 87 642 q 155 639 109 640 q 321 637 169 638 l 419 636 q 622 641 464 636 l 629 633 l 629 592 l 506 426 q 399 277 461 365 l 309 147 q 259 73 274 96 l 332 71 q 465 75 372 71 q 556 86 547 78 q 587 209 566 94 l 595 216 l 635 216 l 643 209 m 442 849 q 416 786 442 812 q 355 760 391 760 q 293 786 319 760 q 267 849 267 812 q 293 912 267 886 q 355 938 319 938 q 416 912 391 938 q 442 849 442 887 z "},"ʒ":{"ha":749,"x_min":7,"x_max":696,"o":"m 696 -12 q 666 -133 696 -69 q 602 -227 640 -189 q 426 -338 527 -304 q 222 -375 309 -376 q 83 -350 127 -374 q 48 -264 72 -322 q 8 -196 36 -237 l 7 -182 l 34 -153 l 47 -156 q 127 -239 70 -181 q 296 -313 208 -312 q 454 -239 385 -315 q 508 -66 508 -180 q 452 93 508 47 q 336 131 407 130 q 269 121 307 132 l 251 155 l 366 326 q 459 475 400 376 q 286 471 351 471 q 197 469 205 471 q 153 449 168 465 q 117 373 142 437 l 104 365 l 73 366 l 65 374 l 102 509 q 135 652 110 534 q 371 638 212 645 q 667 652 537 637 l 673 612 l 501 406 q 346 203 473 371 q 446 212 405 213 q 627 153 566 210 q 696 -12 696 88 z "},"ŋ":{"ha":838,"x_min":30,"x_max":727,"o":"m 726 150 q 690 -185 727 -86 q 537 -359 640 -320 q 454 -376 494 -376 q 429 -374 444 -376 l 414 -325 l 420 -315 q 441 -317 433 -317 q 546 -187 532 -317 q 553 131 553 -115 q 552 391 553 365 q 517 503 547 476 q 434 534 484 534 q 340 495 374 534 q 307 418 307 456 l 307 231 q 315 76 307 116 q 394 51 321 52 l 401 44 l 401 3 l 394 -4 q 222 0 336 0 q 37 -5 100 0 l 30 2 l 30 43 l 37 50 q 117 60 102 52 q 132 93 131 66 q 137 282 137 181 l 137 379 q 127 535 137 515 q 98 552 120 549 q 39 555 90 553 l 32 562 l 32 600 l 39 608 q 296 664 161 619 l 311 655 l 309 541 l 426 639 q 524 657 471 657 q 677 601 625 657 q 726 438 726 549 l 726 150 z "},"þ":{"ha":848,"x_min":32,"x_max":784,"o":"m 784 393 q 754 234 784 311 q 697 140 732 179 q 639 91 682 123 q 527 4 594 55 q 425 -22 487 -22 q 307 -1 366 -22 l 307 -111 q 312 -271 307 -182 q 326 -303 313 -296 q 420 -313 339 -311 l 427 -320 l 427 -361 l 420 -368 q 222 -363 356 -363 q 41 -368 105 -363 l 35 -361 l 35 -320 l 41 -313 q 118 -303 104 -311 q 133 -271 132 -296 q 138 38 138 -182 l 138 629 q 133 859 138 771 q 118 892 132 884 q 39 902 104 900 l 32 909 l 32 947 l 39 954 q 301 1010 168 968 l 316 1002 q 314 935 316 984 q 307 663 307 773 l 307 535 q 370 587 332 555 q 471 652 437 644 q 527 657 492 657 q 718 584 649 657 q 784 393 784 513 m 610 310 q 532 509 610 458 q 446 536 490 536 q 307 468 362 536 l 307 132 q 443 66 369 66 q 591 181 553 66 q 610 310 610 239 z "},"ð":{"ha":772,"x_min":52,"x_max":722,"o":"m 449 904 l 629 989 l 639 985 l 658 946 l 654 936 l 498 863 q 664 641 606 765 q 722 376 722 516 q 683 170 722 263 q 560 24 644 77 q 366 -30 476 -30 q 200 10 273 -30 q 89 123 127 50 q 52 313 52 197 q 64 433 52 373 q 115 544 77 492 q 218 630 153 596 q 372 665 284 665 q 459 652 421 665 q 376 805 434 737 l 193 719 l 184 722 l 165 764 l 168 773 l 333 850 q 205 942 273 905 l 203 953 l 250 1014 l 262 1017 q 449 904 391 951 m 395 40 q 496 106 462 40 q 530 317 530 173 q 517 464 530 404 q 470 561 504 524 q 380 597 436 597 q 297 566 330 597 q 254 480 264 536 q 244 338 244 424 q 286 106 244 173 q 395 40 328 40 z "},"ß":{"ha":848,"x_min":43,"x_max":783,"o":"m 783 237 q 718 85 783 149 q 584 -17 632 -1 q 514 -28 550 -28 q 401 7 439 -28 l 396 -4 q 227 0 309 0 q 50 -4 180 0 l 43 3 l 43 43 l 50 50 q 127 60 114 52 q 142 93 141 68 q 147 401 147 181 l 147 515 l 120 515 q 90 514 112 515 q 54 513 67 513 l 47 519 l 47 536 l 52 546 q 142 607 121 587 q 149 734 143 700 q 182 811 157 774 q 283 909 208 849 q 402 986 357 966 q 509 1006 448 1006 q 665 953 608 1006 q 722 808 722 899 q 697 634 722 724 q 680 564 680 572 l 663 553 q 590 579 622 579 q 541 563 562 579 q 521 521 521 547 q 546 472 521 494 q 653 404 570 450 q 770 305 749 349 q 783 237 783 279 m 646 139 q 544 255 646 193 q 481 294 486 290 q 441 327 460 307 q 399 433 399 369 q 522 625 399 525 q 611 650 553 650 q 621 746 621 699 q 553 888 621 840 q 465 913 517 913 q 369 881 408 913 q 322 804 330 849 q 314 644 314 754 l 314 216 q 323 68 314 86 q 400 51 332 51 q 407 94 404 62 q 413 146 410 132 l 419 154 l 450 159 l 458 153 l 462 90 q 549 52 500 52 q 619 76 592 52 q 646 139 646 101 z "},"Ĳ":{"ha":1056,"x_min":55,"x_max":1018,"o":"m 486 3 l 479 -4 q 270 0 412 0 q 61 -4 129 0 l 55 3 l 55 48 l 62 55 q 141 62 131 59 q 164 87 161 67 q 173 297 173 136 l 173 656 q 164 866 173 817 q 141 891 161 886 q 62 898 131 894 l 55 905 l 55 951 l 62 957 q 271 953 127 953 q 479 957 414 953 l 486 951 l 486 905 l 479 898 q 399 891 410 894 q 376 866 380 886 q 368 656 368 817 l 368 297 q 376 87 368 136 q 399 62 380 67 q 479 55 410 59 l 486 48 l 486 3 m 270 996 m 270 -53 m 1018 904 l 1011 898 q 932 891 942 894 q 909 866 912 886 q 900 656 900 817 l 900 151 q 871 -61 900 15 q 751 -223 838 -148 q 571 -306 657 -306 q 515 -296 543 -306 q 519 -170 519 -245 l 534 -161 q 631 -210 589 -210 q 696 -149 690 -210 q 705 92 705 -68 l 705 656 q 696 866 705 817 q 673 891 693 886 q 578 898 669 892 l 572 905 l 572 951 l 578 957 q 802 953 672 953 q 1011 957 950 953 l 1018 951 l 1018 904 z "},"ﬁ":{"ha":853,"x_min":40,"x_max":831,"o":"m 758 887 q 728 813 758 844 q 654 782 697 782 q 581 813 611 782 q 550 887 550 844 q 581 962 550 932 q 654 993 612 993 q 727 962 696 993 q 758 887 758 932 m 831 2 l 825 -5 q 646 0 760 0 q 467 -5 531 0 l 460 2 l 460 43 l 467 50 q 541 60 528 52 q 556 93 555 68 q 561 282 561 181 l 561 379 q 551 535 561 511 q 522 552 545 549 q 463 555 513 553 l 458 529 l 451 522 l 354 523 q 303 522 323 523 l 303 401 q 313 73 303 94 q 332 57 317 62 q 404 50 347 52 l 411 43 l 411 2 l 404 -5 l 354 -3 q 218 0 282 0 q 47 -5 111 0 l 40 2 l 40 43 l 47 50 q 114 60 101 52 q 129 93 127 68 q 134 401 134 181 l 134 522 q 88 521 119 523 q 52 519 76 520 l 45 526 l 45 547 l 52 556 l 102 587 q 130 606 125 602 q 134 619 134 611 l 134 629 q 147 772 134 734 q 176 818 155 792 q 264 903 182 825 l 306 943 q 352 987 324 962 q 443 1014 389 1014 q 494 1004 465 1014 q 492 932 493 982 q 493 864 491 904 l 472 852 q 389 886 439 886 q 333 871 353 886 q 308 826 313 856 q 303 703 303 797 l 303 608 q 463 611 404 608 q 618 631 556 615 q 725 664 661 642 l 739 655 q 730 447 730 532 l 730 231 q 735 93 730 181 q 750 60 736 68 q 824 50 764 52 l 831 43 l 831 2 z "},"ﬂ":{"ha":853,"x_min":40,"x_max":831,"o":"m 831 2 l 825 -5 q 646 0 760 0 q 467 -5 531 0 l 460 2 l 460 43 l 467 50 q 541 60 528 52 q 556 93 555 68 q 561 401 561 181 l 561 629 q 556 859 561 771 q 542 892 555 884 q 492 901 532 898 q 493 864 492 882 l 472 852 q 389 886 439 886 q 333 871 353 886 q 308 826 313 856 q 303 703 303 797 l 303 608 l 345 608 q 464 614 391 608 l 473 606 l 458 529 l 451 522 l 354 523 q 303 522 323 523 l 303 401 q 313 73 303 94 q 332 57 317 62 q 404 50 347 52 l 411 43 l 411 2 l 404 -5 l 354 -3 q 218 0 282 0 q 47 -5 111 0 l 40 2 l 40 43 l 47 50 q 114 60 101 52 q 129 93 127 68 q 134 401 134 181 l 134 522 q 88 521 119 523 q 52 519 76 520 l 45 526 l 45 547 l 52 556 l 102 587 q 130 606 125 602 q 134 619 134 611 l 134 629 q 147 772 134 734 q 176 818 155 792 q 264 903 182 825 l 306 943 q 352 987 324 962 q 443 1014 389 1014 q 494 1004 465 1014 q 492 958 494 993 q 577 970 535 963 q 725 1010 631 980 l 739 1002 q 737 935 739 984 q 730 576 730 773 l 730 401 q 735 93 730 181 q 750 60 736 68 q 824 50 764 52 l 831 43 l 831 2 z "},"ﬀ":{"ha":938,"x_min":40,"x_max":922,"o":"m 922 1004 q 919 932 920 982 q 920 864 918 904 l 899 852 q 817 886 867 886 q 760 871 780 886 q 735 826 741 856 q 730 703 730 797 l 730 608 l 772 608 q 891 614 818 608 l 901 606 l 885 529 l 878 522 l 781 523 q 730 522 750 523 l 730 401 q 740 73 730 94 q 760 57 745 62 q 831 50 774 52 l 838 43 l 838 2 l 831 -5 l 781 -3 q 646 0 709 0 q 474 -5 538 0 l 467 2 l 467 43 l 474 50 q 542 60 528 52 q 556 93 555 68 q 561 401 561 181 l 561 522 l 303 522 l 303 401 q 313 73 303 94 q 332 57 317 62 q 404 50 347 52 l 411 43 l 411 2 l 404 -5 l 354 -3 q 218 0 282 0 q 47 -5 111 0 l 40 2 l 40 43 l 47 50 q 114 60 101 52 q 129 93 127 68 q 134 401 134 181 l 134 522 q 88 521 119 523 q 52 519 76 520 l 45 526 l 45 547 l 52 556 l 102 587 q 130 606 125 602 q 134 619 134 611 l 134 629 q 147 772 134 734 q 176 818 155 792 q 264 903 182 825 l 306 943 q 352 987 324 962 q 443 1014 389 1014 q 494 1004 465 1014 q 492 932 493 982 q 493 864 491 904 l 472 852 q 389 886 439 886 q 333 871 353 886 q 308 826 313 856 q 303 703 303 797 l 303 608 l 561 608 l 561 629 q 574 772 561 734 q 603 818 582 792 q 691 903 609 825 l 733 943 q 779 987 751 962 q 870 1014 817 1014 q 922 1004 892 1014 z "},"ﬃ":{"ha":1280,"x_min":40,"x_max":1259,"o":"m 1185 887 q 1155 813 1185 844 q 1082 782 1124 782 q 1008 813 1038 782 q 977 887 977 844 q 1008 962 977 932 q 1082 993 1039 993 q 1155 962 1124 993 q 1185 887 1185 932 m 1259 2 l 1252 -5 q 1073 0 1187 0 q 895 -5 958 0 l 888 2 l 888 43 l 895 50 q 968 60 955 52 q 983 93 982 68 q 988 282 988 181 l 988 379 q 978 535 988 511 q 949 552 972 549 q 890 555 940 553 l 885 529 l 878 522 l 781 523 q 730 522 750 523 l 730 401 q 740 73 730 94 q 760 57 745 62 q 831 50 774 52 l 838 43 l 838 2 l 831 -5 l 781 -3 q 646 0 709 0 q 474 -5 538 0 l 467 2 l 467 43 l 474 50 q 542 60 528 52 q 556 93 555 68 q 561 401 561 181 l 561 522 l 303 522 l 303 401 q 313 73 303 94 q 332 57 317 62 q 404 50 347 52 l 411 43 l 411 2 l 404 -5 l 354 -3 q 218 0 282 0 q 47 -5 111 0 l 40 2 l 40 43 l 47 50 q 114 60 101 52 q 129 93 127 68 q 134 401 134 181 l 134 522 q 88 521 119 523 q 52 519 76 520 l 45 526 l 45 547 l 52 556 l 102 587 q 130 606 125 602 q 134 619 134 611 l 134 629 q 147 772 134 734 q 176 818 155 792 q 264 903 182 825 l 306 943 q 352 987 324 962 q 443 1014 389 1014 q 494 1004 465 1014 q 492 932 493 982 q 493 864 491 904 l 472 852 q 389 886 439 886 q 333 871 353 886 q 308 826 313 856 q 303 703 303 797 l 303 608 l 561 608 l 561 629 q 574 772 561 734 q 603 818 582 792 q 691 903 609 825 l 733 943 q 779 987 751 962 q 870 1014 817 1014 q 922 1004 892 1014 q 919 932 920 982 q 920 864 918 904 l 899 852 q 817 886 867 886 q 760 871 780 886 q 735 826 741 856 q 730 703 730 797 l 730 608 q 890 611 831 608 q 1046 631 983 615 q 1152 664 1088 642 l 1166 655 q 1158 447 1158 532 l 1158 231 q 1162 93 1158 181 q 1177 60 1164 68 q 1251 50 1191 52 l 1259 43 l 1259 2 z "}}}
